<svg xmlns="http://www.w3.org/2000/svg" width="16" height="17" fill="none"><g fill="#193E47" fill-rule="evenodd" clip-path="url(#a)" clip-rule="evenodd"><path d="M.627 8.214a1.23 1.23 0 0 1 1.74 0l5.284 5.284 5.283-5.284a1.23 1.23 0 1 1 1.74 1.74l-6.153 6.154c-.48.48-1.26.48-1.74 0L.627 9.955a1.23 1.23 0 0 1 0-1.74Z"/><path d="M.627.83a1.23 1.23 0 0 1 1.74 0l5.284 5.283L12.934.829a1.23 1.23 0 0 1 1.74 1.74L8.522 8.724c-.48.481-1.26.481-1.74 0L.627 2.57a1.23 1.23 0 0 1 0-1.74Z"/></g><defs><clipPath id="a"><path fill="#fff" d="M.19.469h15v16h-15z"/></clipPath></defs></svg>
