<svg xmlns="http://www.w3.org/2000/svg" width="15" height="16" fill="none"><g fill="#42FF8B" fill-rule="evenodd" clip-path="url(#a)" clip-rule="evenodd"><path d="M.438 7.745a1.23 1.23 0 0 1 1.74 0l5.283 5.284 5.284-5.284a1.23 1.23 0 1 1 1.74 1.74L8.332 15.64c-.481.481-1.26.481-1.74 0L.437 9.486a1.23 1.23 0 0 1 0-1.74Z"/><path d="M.438.36a1.23 1.23 0 0 1 1.74 0l5.283 5.284L12.745.36a1.23 1.23 0 0 1 1.74 1.741L8.332 8.255c-.481.48-1.26.48-1.74 0L.437 2.1a1.23 1.23 0 0 1 0-1.74Z"/></g><defs><clipPath id="a"><path fill="#fff" d="M0 0h15v16H0z"/></clipPath></defs></svg>