<svg xmlns="http://www.w3.org/2000/svg" width="33" height="32" fill="none"><g clip-path="url(#a)"><path fill="#8EBAC5" d="M1.63 10.36h10.025v11.322H1.63c-.715 0-1.296-.58-1.296-1.296v-8.73c0-.716.58-1.296 1.296-1.296Z"/><path fill="#678D98" d="M5.11 10.36v6.665a1.977 1.977 0 0 1-1.977 1.977h-2.8v1.384c0 .716.58 1.296 1.296 1.296h10.026V10.36H5.11Z"/><path fill="#B0AFB5" d="m14.883 4.409-7.829 5.95v11.262l7.829 5.951a7.215 7.215 0 0 0 4.367 1.472 1.03 1.03 0 0 0 1.03-1.031V3.969a1.03 1.03 0 0 0-1.03-1.031 7.217 7.217 0 0 0-4.367 1.47Z"/><path fill="#959499" d="M19.25 2.938c-.902 0-1.789.17-2.619.492v19.75c0 .57-.461 1.03-1.03 1.03a7.215 7.215 0 0 1-4.367-1.47l-4.18-3.177v2.058l7.829 5.951a7.215 7.215 0 0 0 4.367 1.472 1.03 1.03 0 0 0 1.03-1.031V3.969a1.03 1.03 0 0 0-1.03-1.031Z"/><path fill="#FFDC70" d="M25.545 25.49a1.037 1.037 0 0 1-.382-2.002 8.021 8.021 0 0 0 5.095-7.497c0-3.33-2-6.273-5.095-7.498a1.037 1.037 0 0 1 .763-1.928 10.122 10.122 0 0 1 4.609 3.663 10.074 10.074 0 0 1 1.797 5.763c0 2.071-.621 4.064-1.797 5.761a10.12 10.12 0 0 1-4.609 3.665c-.125.05-.254.072-.381.072Z"/><path fill="#FFDC70" d="M22.857 22.17a1.037 1.037 0 0 1-.13-2.065 4.154 4.154 0 0 0 3.621-4.114 4.154 4.154 0 0 0-3.62-4.115 1.037 1.037 0 1 1 .261-2.057 6.232 6.232 0 0 1 5.433 6.171 6.231 6.231 0 0 1-5.433 6.172 1.003 1.003 0 0 1-.132.009Z"/></g><defs><clipPath id="a"><path fill="#fff" d="M.333 0h32v32h-32z"/></clipPath></defs></svg>