<svg xmlns="http://www.w3.org/2000/svg" width="33" height="32" fill="none"><g clip-path="url(#a)"><path fill="#495059" d="M23.777 29.198c-.314 0-.629-.12-.87-.357-1.468-1.442-1.84-2.509-2.792-5.662a1.243 1.243 0 1 1 2.38-.718c.908 3.007 1.15 3.62 2.154 4.608a1.243 1.243 0 0 1-.872 2.129Z"/><path fill="#DDAF89" d="M13.74 31.245a1.554 1.554 0 0 1-1.547-1.433c-.163-2.089-.098-3.648.225-5.382a1.553 1.553 0 1 1 3.054.568c-.273 1.468-.324 2.75-.182 4.573a1.553 1.553 0 0 1-1.55 1.674ZM19.93 31.245a1.553 1.553 0 0 1-1.55-1.674c.142-1.823.09-3.105-.182-4.573a1.553 1.553 0 1 1 3.054-.568c.323 1.734.388 3.294.226 5.382a1.554 1.554 0 0 1-1.548 1.433ZM9.064 27.07a1.554 1.554 0 0 1-1.548-1.7c.233-2.476.442-4.116 1.74-6.511a1.554 1.554 0 0 1 2.732 1.48c-1.015 1.873-1.17 3.113-1.379 5.323a1.554 1.554 0 0 1-1.545 1.408ZM24.603 27.07a1.554 1.554 0 0 1-1.545-1.409c-.208-2.209-.363-3.45-1.378-5.321a1.553 1.553 0 1 1 2.73-1.481c1.3 2.395 1.509 4.035 1.742 6.512a1.553 1.553 0 0 1-1.549 1.699Z"/><path fill="#D1A582" d="M25.201 20.546a14.661 14.661 0 0 0-.79-1.687 1.553 1.553 0 1 0-2.731 1.48c.878 1.62 1.113 2.767 1.295 4.477 1.184-1.15 1.988-2.629 2.226-4.27ZM21.25 24.43a1.554 1.554 0 0 0-3.054.569c.133.717.213 1.39.244 2.104a8.852 8.852 0 0 0 3.032-1.132 18.49 18.49 0 0 0-.222-1.54ZM14.228 23.187a1.553 1.553 0 0 0-1.811 1.243 18.37 18.37 0 0 0-.222 1.541c.904.546 1.93.938 3.032 1.133.03-.714.11-1.388.244-2.105a1.553 1.553 0 0 0-1.243-1.812ZM11.362 18.234a1.553 1.553 0 0 0-2.106.625 14.652 14.652 0 0 0-.79 1.687c.238 1.641 1.042 3.12 2.226 4.27.182-1.71.417-2.857 1.295-4.476a1.554 1.554 0 0 0-.625-2.106Z"/><path fill="#DDAF89" d="M24.407 19.527c0-3.782-3.39-6.848-7.573-6.848-4.182 0-7.573 3.066-7.573 6.848s3.39 6.848 7.573 6.848c4.182 0 7.573-3.066 7.573-6.848Z"/><path fill="#7F9AE6" d="M23.673 15.13a10.675 10.675 0 0 1-6.84 2.466c-2.6 0-4.983-.926-6.84-2.466a7.438 7.438 0 0 0-.972 1.66 1.75 1.75 0 0 0 .728 2.186 13.95 13.95 0 0 0 7.084 1.92c2.585 0 5.006-.7 7.084-1.92a1.75 1.75 0 0 0 .73-2.186 7.457 7.457 0 0 0-.974-1.66Z"/><path fill="#738CD1" d="M13.384 17.029a10.704 10.704 0 0 1-3.39-1.899 7.445 7.445 0 0 0-.973 1.66 1.75 1.75 0 0 0 .728 2.186 13.935 13.935 0 0 0 3.496 1.454c-.455-.913-.326-2.285.14-3.401Z"/><path fill="#495059" d="M13.905 6.039a1.55 1.55 0 0 1-.914-.298L11.075 4.35c-.84-.61-1.971-.559-2.753.124L7.067 5.568A1.557 1.557 0 0 1 5.02 3.222l1.254-1.096A5.346 5.346 0 0 1 9.537.818a5.345 5.345 0 0 1 3.368 1.011l1.917 1.392a1.558 1.558 0 0 1-.917 2.818ZM19.761 6.039a1.558 1.558 0 0 1-.916-2.818l1.916-1.392A5.348 5.348 0 0 1 24.13.818c1.2.053 2.359.518 3.264 1.308l1.255 1.096a1.557 1.557 0 1 1-2.05 2.346l-1.254-1.096a2.199 2.199 0 0 0-2.752-.123l-1.917 1.392a1.55 1.55 0 0 1-.914.298Z"/><path fill="#DDAF89" d="M16.833 18.374c7.907 0 11.47-3.622 10.358-8.721-1.195-5.481-4.96-8.481-10.358-8.481-5.398 0-9.162 3-10.357 8.48-1.112 5.1 2.45 8.722 10.357 8.722Z"/><path fill="#F6E06A" d="M18.949 21.162a2.115 2.115 0 1 1-4.23 0 2.115 2.115 0 0 1 4.23 0Z"/><path fill="#495059" d="M18.823 8.216a1.384 1.384 0 0 0-.796-.561 4.713 4.713 0 0 0-2.388 0 1.385 1.385 0 0 0-.795.561.726.726 0 0 0 .305 1.072l1.148.51c.022.01.045.02.068.028v2.758a.469.469 0 1 0 .937 0V9.826l.068-.028 1.147-.51a.726.726 0 0 0 .306-1.072Z"/><path fill="#D16283" d="M16.826 14.838c1.214 0 2.295 1.07 2.975-.25.69-1.338-.855-3.413-2.975-3.413s-3.664 2.075-2.975 3.414c.68 1.319 1.761.25 2.975.25Z"/><path fill="#EB9898" d="M16.824 13.612c-1.25 0-2.305.594-2.653 1.41.676.595 1.616-.184 2.653-.184s1.977.78 2.653.184c-.348-.816-1.403-1.41-2.653-1.41Z"/><path fill="#495059" d="M22.897 7.82a.468.468 0 0 1-.354-.16.859.859 0 0 0-1.296 0 .47.47 0 0 1-.706-.616 1.796 1.796 0 0 1 2.709 0 .469.469 0 0 1-.353.776ZM12.772 7.82a.468.468 0 0 1-.354-.16.859.859 0 0 0-1.296 0 .47.47 0 0 1-.706-.616 1.796 1.796 0 0 1 2.709 0 .469.469 0 0 1-.353.776Z"/><path fill="#D2EFFF" d="M28.342 8.151c.842.842.844 2.205.007 3.05-.875.883-2.322.809-3.169-.103-1.081-1.165-.705-2.173-1.361-3.169a.504.504 0 0 1 .32-.77c1.876-.383 3.126-.086 4.203.992ZM32.631 15.63a2.161 2.161 0 0 1-1.036 2.868c-1.125.53-2.46-.034-2.943-1.18-.618-1.465.08-2.284-.196-3.444a.504.504 0 0 1 .565-.613c1.893.28 2.966.988 3.61 2.37ZM1.036 15.63a2.161 2.161 0 0 0 1.037 2.868c1.125.53 2.459-.034 2.942-1.18.618-1.465-.08-2.284.196-3.444a.504.504 0 0 0-.565-.613c-1.893.28-2.965.988-3.61 2.37ZM5.324 8.151a2.161 2.161 0 0 0-.007 3.05c.876.883 2.322.809 3.169-.103 1.081-1.165.705-2.173 1.361-3.169a.504.504 0 0 0-.32-.77c-1.876-.383-3.125-.086-4.203.992Z"/></g><defs><clipPath id="a"><path fill="#fff" d="M.833 0h32v32h-32z"/></clipPath></defs></svg>