<svg xmlns="http://www.w3.org/2000/svg" width="31" height="32" fill="none"><path fill="#BBD9FF" d="M27.932 23.348c.32.315-.02 1.93-.635 2.545a1.35 1.35 0 0 1-1.91-1.91c.614-.614 2.23-.955 2.545-.635ZM22.253 27.478c.32.315-.02 1.93-.635 2.545a1.35 1.35 0 1 1-1.91-1.91c.614-.614 2.23-.955 2.545-.635ZM3.668 29.027c.32.315-.02 1.93-.635 2.545a1.28 1.28 0 0 1-1.91 0 1.279 1.279 0 0 1 0-1.91c.614-.615 2.23-.955 2.545-.635ZM12.96 29.027c.32.315-.02 1.93-.635 2.545a1.35 1.35 0 0 1-1.91-1.91c.614-.614 2.23-.955 2.545-.635ZM10.38 23.864c.32.315-.021 1.931-.636 2.545a1.279 1.279 0 0 1-1.91 0 1.279 1.279 0 0 1 0-1.91c.614-.614 2.23-.955 2.545-.635ZM17.607 22.316c.32.315-.02 1.93-.635 2.545a1.35 1.35 0 1 1-1.91-1.91c.614-.615 2.23-.955 2.545-.635ZM12.96 18.186c.32.315-.02 1.93-.635 2.545a1.35 1.35 0 1 1-1.91-1.91c.614-.615 2.23-.955 2.545-.635Z"/><path fill="#FFDC70" d="M5.34 14.965a3.517 3.517 0 0 0 1.998-.615l.068.098L5.34 17.03h3.097l-6.711 7.227 3.097-5.679H1.727l2.581-3.613.036-.14c.324.094.66.141.997.14ZM24.958 14.448l-3.098 3.614h4.647l-9.293 9.809 3.614-7.228h-3.614l3.098-4.13a4.127 4.127 0 0 0 3.928-2.86c.224.272.489.508.785.697l-.067.098Z"/><path fill="#B0AFB5" d="M28.22 7.944a3.613 3.613 0 0 1-1.197 7.02 3.516 3.516 0 0 1-1.998-.614 3.356 3.356 0 0 1-.785-.697 4.126 4.126 0 0 1-3.929 2.86c-2.281 0-3.613-1.032-4.13-3.097-.516 2.065-1.848 3.097-4.13 3.097a4.126 4.126 0 0 1-3.928-2.86 3.354 3.354 0 0 1-.785.697 3.579 3.579 0 0 1-2.994.475 3.614 3.614 0 0 1-.671-6.68A2.572 2.572 0 0 1 5.34 3.607c.582.001 1.145.202 1.596.568a4.078 4.078 0 0 1-.047-.568A3.614 3.614 0 0 1 13.91 2.41a2.556 2.556 0 0 1 4.543 0 3.613 3.613 0 0 1 7.02 1.197v.01a2.572 2.572 0 1 1 2.747 4.327Z"/><path fill="#959499" d="M27.023 10.835a3.601 3.601 0 0 1-2.783-1.311 4.126 4.126 0 0 1-3.929 2.86c-2.281 0-3.613-1.033-4.13-3.098-.516 2.065-1.848 3.098-4.13 3.098a4.127 4.127 0 0 1-3.928-2.86 3.61 3.61 0 0 1-5.742-.232 3.608 3.608 0 0 0 5.742 4.361 4.126 4.126 0 0 0 3.929 2.86c2.281 0 3.613-1.032 4.13-3.097.516 2.065 1.848 3.097 4.13 3.097a4.127 4.127 0 0 0 3.928-2.86 3.61 3.61 0 0 0 5.745-4.364 3.605 3.605 0 0 1-2.962 1.546Z"/><path fill="#F3B83A" d="M7.338 14.35a3.579 3.579 0 0 1-2.994.475l-.036.14-.764 1.069a3.596 3.596 0 0 0 2.231.453l1.63-2.039-.067-.098ZM25.025 14.35a3.347 3.347 0 0 1-.784-.697 4.126 4.126 0 0 1-3.93 2.86l-1.083 1.446c.357.067.72.102 1.084.103.698 0 1.385-.18 1.995-.52l1.867-2.179c.02-.054.048-.103.067-.16.01.013.025.026.037.04l.68-.795.067-.098Z"/><path fill="#E8E7F0" d="M23.925 5.46c.008.295.263.504.477.693.152.134.294.278.425.432.361.427.686.96 1.21 1.119.13.047.273.044.402-.007a.65.65 0 0 0 .206-.169 1.663 1.663 0 0 0 .259-1.678 2.21 2.21 0 0 0-1.613-1.18c-.48-.123-1.383.135-1.366.79ZM22.119 2.575c-.023.188.14.336.28.459.196.171.376.362.536.567.098.128.219.276.377.262a.3.3 0 0 0 .212-.142.794.794 0 0 0 .097-.25c.03-.106.045-.217.043-.327a.817.817 0 0 0-.413-.636c-.212-.128-1.075-.39-1.133.067Z"/><path fill="#6994D4" d="M27.813 24.86a1.28 1.28 0 0 1-1.91 0 1.363 1.363 0 0 1-.425-.957c-.032.026-.063.051-.091.08a1.35 1.35 0 1 0 1.91 1.91c.282-.323.485-.706.596-1.12-.026.029-.052.06-.08.088ZM22.134 28.99a1.279 1.279 0 0 1-1.91 0 1.364 1.364 0 0 1-.425-.957c-.032.026-.063.051-.091.08a1.35 1.35 0 0 0 1.91 1.91 2.81 2.81 0 0 0 .596-1.12c-.026.029-.052.06-.08.088ZM12.841 30.54a1.28 1.28 0 0 1-1.91 0 1.364 1.364 0 0 1-.425-.959c-.032.027-.063.052-.091.08a1.35 1.35 0 1 0 1.91 1.91c.281-.322.485-.705.596-1.12-.026.03-.053.061-.08.088ZM3.55 30.54a1.28 1.28 0 0 1-1.91 0 1.364 1.364 0 0 1-.426-.959c-.032.027-.063.052-.091.08a1.279 1.279 0 0 0 0 1.91 1.28 1.28 0 0 0 1.91 0 2.81 2.81 0 0 0 .596-1.12c-.026.03-.052.061-.08.088ZM10.26 25.377a1.28 1.28 0 0 1-1.91 0 1.363 1.363 0 0 1-.424-.958c-.032.026-.064.052-.092.08a1.28 1.28 0 0 0 0 1.91 1.278 1.278 0 0 0 1.91 0 2.81 2.81 0 0 0 .597-1.12c-.027.03-.053.06-.08.088ZM17.488 23.828a1.28 1.28 0 0 1-1.91 0 1.363 1.363 0 0 1-.425-.958 1.35 1.35 0 1 0 1.819 1.99c.281-.322.485-.706.596-1.12-.026.03-.053.06-.08.088ZM12.841 19.698a1.28 1.28 0 0 1-1.91 0 1.364 1.364 0 0 1-.425-.958c-.032.027-.063.052-.091.08a1.35 1.35 0 1 0 1.91 1.911 2.81 2.81 0 0 0 .596-1.123 1.372 1.372 0 0 1-.08.09Z"/></svg>