<svg xmlns="http://www.w3.org/2000/svg" width="32" height="32" fill="none"><g clip-path="url(#a)"><path fill="#7E8589" d="M31 27.063C31 30.928 28.09 31 24.5 31s-6.5-.072-6.5-3.938S20.91 17 24.5 17 31 23.197 31 27.063Z"/><path fill="#9AA3A8" d="M29.5 29a1 1 0 0 1 .999 1.045c-.024.54-.49.955-1.03.955h-2.966a1.003 1.003 0 0 1-1.003-1.003V29h-.002L25.497 29c-.561-.002-.971-.444-.995-1h-.004c-.023.556-.434.998-.995 1H23.5v.002l-.001.001v.994A1.003 1.003 0 0 1 22.497 31H19.53c-.54 0-1.006-.415-1.03-.955A.999.999 0 0 1 19.5 29h.497l.002-.001.001-.002V20a4 4 0 0 1 4-4h1a4 4 0 0 1 4 4v8.997l.001.002.002.001h.497Z"/><path fill="#B6B9BA" d="M24.5 28.5a.5.5 0 0 1-.5-.5v-2a.5.5 0 0 1 1 0v2a.5.5 0 0 1-.5.5Z"/><path fill="#9AA3A8" d="M30 13.5V7.118a.618.618 0 0 0-.945-.523L26.5 8.5h-4l-2.555-1.905a.618.618 0 0 0-.945.523V13.5h11Z"/><path fill="#B6B9BA" d="M30 13.59c0 3.315-1.956 3.91-5.5 3.91s-5.5-.595-5.5-3.91c0-3.313 1.956-6.09 5.5-6.09s5.5 2.777 5.5 6.09Z"/><path fill="#7E8589" d="M20 13a.502.502 0 0 1-.098-.01l-2.5-.5a.499.499 0 1 1 .196-.98l2.5.5a.5.5 0 0 1-.097.99ZM17.5 15.5a.5.5 0 0 1-.098-.99l2.5-.5a.5.5 0 1 1 .197.98l-2.5.5a.503.503 0 0 1-.1.01ZM29 13a.5.5 0 0 1-.098-.99l2.5-.5a.5.5 0 0 1 .197.98l-2.5.5a.503.503 0 0 1-.1.01ZM31.5 15.5a.502.502 0 0 1-.098-.01l-2.5-.5a.5.5 0 1 1 .196-.98l2.5.5a.5.5 0 0 1-.097.99Z"/><path fill="#8C5237" d="M.5 28h9v3h-6a3 3 0 0 1-3-3Z"/><path fill="#B37A60" d="M18 26.5c0 4.418-3.358 4.5-7.5 4.5-4.142 0-7.5-.082-7.5-4.5S6.358 15 10.5 15c4.142 0 7.5 7.082 7.5 11.5Z"/><path fill="#DDAF89" d="M16.5 29a1 1 0 0 1 0 2h-4a1 1 0 0 1-1-1v-1c-.563 0-.975-.443-.998-1h-.004c-.023.557-.435 1-.998 1v1a1 1 0 0 1-1 1h-4a1 1 0 0 1 0-2H5V18a5 5 0 0 1 5-5h1a5 5 0 0 1 5 5v11h.5Z"/><path fill="#C48669" d="M10.5 28.5a.5.5 0 0 1-.5-.5v-3.5a.5.5 0 0 1 1 0V28a.5.5 0 0 1-.5.5ZM6.5 29.5H5a.5.5 0 0 1 0-1h1.5a.5.5 0 0 1 0 1ZM16 29.5h-1.5a.5.5 0 0 1 0-1H16a.5.5 0 0 1 0 1Z"/><path fill="#8C5237" d="M10 2H6.613c-.693.1-1.2.534-1.613 1.006L2.376 6.528C1.276 8.537 2.722 11 5.004 11H10V2ZM11 2h3.387c.693.1 1.2.534 1.613 1.006l2.624 3.522c1.1 2.01-.346 4.472-2.628 4.472H11V2Z"/><path fill="#DDAF89" d="M10.5 1C8 1 7 2.5 6 5.5s-1.5 3-1.5 5 1 3.482 2 3.482h8c1 0 2-1.482 2-3.482s-.5-2-1.5-5S13 1 10.5 1Z"/><path fill="#F0C6A4" d="M14 12.482c0 1.795-1.567 1.5-3.5 1.5s-3.5.295-3.5-1.5 1.567-5 3.5-5 3.5 3.205 3.5 5Z"/><path fill="#8C5237" d="M12.5 6.482a.5.5 0 1 0 0-1 .5.5 0 0 0 0 1ZM8.5 6.482a.5.5 0 1 0 0-1 .5.5 0 0 0 0 1ZM12 11.5c-.907 0-.992-.416-1-.51v-.49a.5.5 0 0 0 .5-.5c0-.485-.35-1-1-1s-1 .515-1 1a.5.5 0 0 0 .5.5v.5a.48.48 0 0 1-.088.2c-.147.196-.462.3-.912.3a.5.5 0 0 0 0 1c.74 0 1.206-.208 1.5-.47.294.262.76.47 1.5.47a.5.5 0 0 0 0-1Z"/><path fill="#7E8589" d="M21 21.5h-1v1h1a.5.5 0 0 0 0-1ZM21 23.5h-1v1h1a.5.5 0 0 0 0-1ZM27.5 24a.5.5 0 0 0 .5.5h1v-1h-1a.5.5 0 0 0-.5.5ZM27.5 22a.5.5 0 0 0 .5.5h1v-1h-1a.5.5 0 0 0-.5.5ZM27 12.5a.5.5 0 1 0 0-1 .5.5 0 0 0 0 1ZM22 12.5a.5.5 0 1 0 0-1 .5.5 0 0 0 0 1ZM25.723 15.053c-.32-.16-.672-.435-.723-.562V13a.5.5 0 0 0-1 0v1.485c-.05.128-.402.406-.724.568a.5.5 0 1 0 .447.894c.28-.139.54-.314.775-.52.236.207.498.382.78.52a.5.5 0 0 0 .445-.894Z"/><path fill="#7E8589" d="M24.5 12.5c-.65 0-1 .515-1 1a.5.5 0 1 0 1 .014V13.5a.5.5 0 0 0 1 0c0-.485-.35-1-1-1Z"/></g><defs><clipPath id="a"><path fill="#fff" d="M0 0h32v32H0z"/></clipPath></defs></svg>