<svg xmlns="http://www.w3.org/2000/svg" width="33" height="32" fill="none"><g clip-path="url(#a)"><path fill="#80D6FB" d="m19.332 17.6-2.666 2.667-2.667-2.667-5.423 1.205a5.333 5.333 0 0 0-4.177 5.207V32h24.533v-7.988c0-2.5-1.735-4.664-4.176-5.207L19.332 17.6Z"/><path fill="#80D6FB" d="m19.332 17.6-2.666 2.667-2.667-2.667-5.423 1.205a5.333 5.333 0 0 0-4.177 5.207V32h24.533v-7.988c0-2.5-1.735-4.664-4.176-5.207L19.332 17.6Z"/><path fill="#46BEE8" d="m19.332 17.6-2.666 2.667-2.667-2.667-1.6.356 4.267 4.444 4.266-4.444-1.6-.356Z"/><path fill="#FFD3B3" d="M24.133 28.8h4.8V32h-4.8v-3.2ZM4.4 28.8h4.8V32H4.4v-3.2Z"/><path fill="#6E83B7" d="M21.6 29.127c.234 0 .395.206.721.206.233 0 .515-.182.515-.449 0-.824-.714-1.236-1.236-1.236s-1.236.412-1.236 1.236c0 .267.282.45.515.45.326 0 .487-.207.721-.207ZM20.289 27.246c.147.162.296.588.135.736-.162.148-.572-.039-.72-.2a.396.396 0 0 1 .585-.536ZM20.428 26.823c.096.268.496.698.764.6.268-.097.301-.682.205-.95a.515.515 0 0 0-.97.35ZM22.91 27.246c-.147.162-.296.588-.135.736.162.148.573-.039.72-.2a.396.396 0 0 0-.584-.536ZM22.77 26.823c-.096.268-.496.698-.763.6-.268-.097-.302-.682-.205-.95a.515.515 0 0 1 .969.35ZM19.227 16.267v.533c.794 0 1.44.646 1.44 1.44v.96c0 2.206-1.794 4-4 4s-4-1.794-4-4v-.96c0-.794.646-1.44 1.44-1.44v-.533a1.976 1.976 0 0 0-1.974 1.973v.96c0 2.41 1.892 4.38 4.267 4.52v.813c0 1.03-.837 1.867-1.867 1.867h-1.066c-.735 0-1.334.598-1.334 1.333v.534h.534v-.534a.8.8 0 0 1 .8-.8h1.066c1.324 0 2.4-1.076 2.4-2.4v-.813A4.535 4.535 0 0 0 21.2 19.2v-.96a1.976 1.976 0 0 0-1.973-1.973Z"/><path fill="#46BEE8" d="M9.733 28.267h5.333v1.066H9.733v-1.066Z"/><path fill="#EDEFF1" d="M19.335 15.701v1.664a.422.422 0 0 0 .32-.406v-.853a.421.421 0 0 0-.32-.405ZM14 15.701a.421.421 0 0 0-.32.406v.853c0 .198.138.357.32.405v-1.664Z"/><path fill="#FCB98B" d="M19.332 14.933V17.6l-2.667 2.666L14 17.6v-2.667h5.333Z"/><path fill="#FFD3B3" d="M22.533 6.933v3.2a5.867 5.867 0 1 1-11.734 0v-3.2c0-1.178.956-2.133 2.134-2.133h7.466c1.179 0 2.134.955 2.134 2.133ZM22.534 6.933h.34c.66 0 1.161.592 1.053 1.242l-.178 1.067a1.067 1.067 0 0 1-1.052.891h-.163v-3.2Z"/><path fill="#FFD3B3" d="M10.801 6.933h-.34c-.66 0-1.161.592-1.053 1.242l.178 1.067c.085.514.53.891 1.052.891h.163v-3.2Z"/><path fill="#6E83B7" d="m22.533 10.133-1.067-3.2a1.6 1.6 0 0 1-1.6-1.6V1.6h.533c1.178 0 2.134.955 2.134 2.133v6.4Z"/><path fill="#6E83B7" d="m11.866 6.933-1.066 3.2v-4.8A5.333 5.333 0 0 1 16.133 0h2.133C19.444 0 20.4.955 20.4 2.133V4.8a2.133 2.133 0 0 1-2.134 2.133h-6.4Z"/></g><defs><clipPath id="a"><path fill="#fff" d="M.667 0h32v32h-32z"/></clipPath></defs></svg>