<svg width="36" height="36" viewBox="0 0 36 36" fill="none" xmlns="http://www.w3.org/2000/svg">
<g clip-path="url(#clip0_23_2572)">
<path d="M16.429 25.1373C16.6284 25.3364 16.8986 25.4485 17.1807 25.4485C17.4625 25.4485 17.7328 25.3367 17.9322 25.1373L21.7271 21.3423C22.1424 20.927 22.1424 20.2541 21.7271 19.8388C21.3121 19.4238 20.6389 19.4238 20.2239 19.8388L17.1807 22.8821L15.7931 21.4945C15.3778 21.0795 14.7049 21.0795 14.2896 21.4945C13.8746 21.9095 13.8746 22.5827 14.2896 22.998L16.429 25.1373Z" fill="#FF4B4B"/>
<path d="M18.0085 30.9265C22.6615 30.9265 26.4469 27.1409 26.4469 22.4879C26.4469 17.8349 22.6615 14.0496 18.0085 14.0496C13.3553 14.0496 9.56995 17.8349 9.56995 22.4879C9.56995 27.1409 13.3556 30.9265 18.0085 30.9265ZM18.0085 16.1754C21.4893 16.1754 24.321 19.0071 24.321 22.4879C24.321 25.9686 21.4893 28.8006 18.0085 28.8006C14.5278 28.8006 11.6958 25.9686 11.6958 22.4879C11.6958 19.0071 14.5278 16.1754 18.0085 16.1754Z" fill="#FF4B4B"/>
<path d="M32.157 2.26346H30.2182V1.06293C30.2182 0.475983 29.7422 0 29.1552 0C28.5683 0 28.0923 0.475983 28.0923 1.06293V2.26346H26.0035V1.06293C26.0035 0.475983 25.5276 0 24.9403 0C24.3534 0 23.8774 0.475983 23.8774 1.06293V2.26346H12.1396V1.06293C12.1396 0.475983 11.6636 0 11.0764 0C10.4895 0 10.0135 0.475983 10.0135 1.06293V2.26346H7.92471V1.06293C7.92471 0.475983 7.44873 0 6.86151 0C6.27457 0 5.79858 0.475983 5.79858 1.06293V2.26346H3.8595C1.96408 2.26346 0.421875 3.80566 0.421875 5.70135V32.5624C0.421875 34.4578 1.96408 36 3.8595 36H32.157C34.0527 36 35.5946 34.4578 35.5946 32.5624V5.70135C35.5946 3.80566 34.0524 2.26346 32.157 2.26346ZM33.4685 32.5624C33.4685 33.2856 32.8802 33.8741 32.157 33.8741H3.8595C3.13632 33.8741 2.54773 33.2856 2.54773 32.5624V11.1022H33.4685V32.5624ZM2.54773 5.70135C2.54773 4.97791 3.13632 4.38959 3.8595 4.38959H5.79858V5.59012C5.79858 6.17706 6.27457 6.65305 6.86179 6.65305C7.44873 6.65305 7.92471 6.17706 7.92471 5.59012V4.38959H10.0135V5.59012C10.0135 6.17706 10.4895 6.65305 11.0767 6.65305C11.6636 6.65305 12.1396 6.17706 12.1396 5.59012V4.38959H23.8774V5.59012C23.8774 6.17706 24.3534 6.65305 24.9406 6.65305C25.5276 6.65305 26.0035 6.17706 26.0035 5.59012V4.38959H28.0923V5.59012C28.0923 6.17706 28.5683 6.65305 29.1552 6.65305C29.7425 6.65305 30.2184 6.17706 30.2184 5.59012V4.38959H32.157C32.8802 4.38959 33.4688 4.97791 33.4688 5.70135V8.9761H2.54773V5.70135Z" fill="#FF4B4B"/>
</g>
<defs>
<clipPath id="clip0_23_2572">
<rect width="36" height="36" fill="white"/>
</clipPath>
</defs>
</svg>
