<svg xmlns="http://www.w3.org/2000/svg" width="162" height="32" viewBox="0 0 162 32" fill="none">
<path fill-rule="evenodd" clip-rule="evenodd" d="M15.1056 29.7774V23.0204C11.1099 19.7394 8.54033 15.7995 8.15446 10.7301L2.62248 7.61719V9.49968C2.67071 17.3795 6.59751 23.4306 12.8735 28.1167L15.0988 29.7774H15.1056Z" fill="#005DD8"/>
<path fill-rule="evenodd" clip-rule="evenodd" d="M9.32004 8.92864L16.1954 5.86276L23.0777 8.92864L28.8922 5.65436L16.1954 0L3.5056 5.65436L9.32004 8.92864Z" fill="#005DD8"/>
<path d="M22.0352 10.8095C21.8589 12.7254 21.3215 14.4402 20.4889 15.9997H16.7339V20.6507C16.557 20.8097 16.3772 20.9677 16.1933 21.1234C12.9279 18.3534 10.751 15.0721 10.3515 10.8095L16.1933 8.20801L22.0352 10.8095Z" fill="#1B86FA"/>
<path d="M17.6375 28.8887H18.4802L17.2891 29.778V23.0215C17.4076 22.9244 17.5216 22.8228 17.6375 22.7246V28.8887Z" fill="#005DD8"/>
<path d="M29.7585 9.5C29.747 12.1112 29.3043 14.5219 28.4918 16.75V15.5546H23.1097C23.7213 14.0667 24.108 12.465 24.2399 10.7305L29.7585 7.61719V9.5Z" fill="#005DD8"/>
<path d="M19.4112 14.7383C17.4708 14.8735 17.1955 14.9682 16.6313 15.7932C16.1221 16.5235 16.0257 17.3485 15.9432 21.5545C15.8331 27.6944 16.0532 29.2903 17.1267 30.1829C17.5533 30.5345 17.4983 30.521 20.925 30.7779C22.6865 30.9131 25.3563 30.9131 27.1179 30.7779C30.7235 30.5075 30.4759 30.548 31.0538 30.0476C31.7969 29.3985 31.9621 28.7223 32.1548 25.7063C32.3888 21.9061 32.1135 17.0915 31.6043 16.1043C31.1639 15.2523 30.7235 14.9547 29.7602 14.833C28.3152 14.6707 21.2966 14.6031 19.4112 14.7383ZM28.6042 16.5641C29.251 16.6723 29.8703 17.2538 30.0905 17.9435C30.2969 18.6197 30.407 24.4892 30.2419 26.0175C30.1042 27.3834 29.8153 28.1272 29.2923 28.4518C28.7418 28.8169 24.7783 29.0063 21.6819 28.8304C18.902 28.6817 18.668 28.6006 18.2001 27.6809C17.801 26.8965 17.5946 23.1503 17.801 20.3373C18.035 16.9833 18.269 16.6587 20.5259 16.4829C21.9847 16.3612 27.7372 16.4288 28.6042 16.5641Z" fill="url(#paint0_linear_1601_74)"/>
<path d="M20.1716 22.5697V26.8298L22.2084 24.8282C23.3231 23.7328 24.2865 22.8402 24.3415 22.8402C24.3965 22.8402 24.4378 23.7328 24.4378 24.8282V26.8298L26.5984 24.693L28.7728 22.5697L26.5984 20.4465L24.4378 18.3096V20.3112C24.4378 21.4066 24.3965 22.2993 24.3415 22.2993C24.2865 22.2993 23.3231 21.4066 22.2084 20.3112L20.1716 18.3096V22.5697Z" fill="url(#paint1_linear_1601_74)"/>
<path d="M150.926 14.5948C149.95 15.9478 148.572 16.6243 146.792 16.6243C145.01 16.6243 143.625 15.9478 142.635 14.5948C141.66 13.2283 141.172 11.4061 141.172 9.12853C141.172 6.85086 141.66 5.03581 142.635 3.68333C143.625 2.31674 145.01 1.63345 146.792 1.63345C148.572 1.63345 149.95 2.31674 150.926 3.68333C151.915 5.03581 152.41 6.85086 152.41 9.12853C152.41 11.4061 151.915 13.2283 150.926 14.5948ZM143.738 13.6221C144.473 14.6848 145.491 15.216 146.792 15.216C148.092 15.216 149.103 14.6848 149.823 13.6221C150.558 12.5591 150.926 11.0612 150.926 9.12853C150.926 7.19581 150.559 5.69816 149.823 4.63557C149.103 3.57251 148.092 3.04098 146.792 3.04098C145.491 3.04098 144.473 3.57251 143.738 4.63557C143.017 5.69909 142.656 7.19674 142.656 9.12853C142.656 11.0612 143.017 12.5591 143.738 13.6221ZM134.487 7.05816C135.943 7.05816 137.138 7.50662 138.07 8.40357C139.004 9.28733 139.471 10.4332 139.47 11.8412C139.47 13.2492 139.003 14.4016 138.07 15.2986C137.138 16.1824 135.943 16.6243 134.487 16.6243C133.031 16.6243 131.837 16.1824 130.903 15.2986C129.971 14.4012 129.505 13.2488 129.504 11.8412C129.504 10.7504 129.808 9.78405 130.417 8.94213L135.272 1.88121H136.947L133.3 7.18239C133.69 7.09861 134.088 7.05743 134.487 7.05816ZM131.943 14.2836C132.593 14.9048 133.441 15.2153 134.487 15.2153C135.533 15.2153 136.374 14.9048 137.01 14.2836C137.661 13.6624 137.986 12.8478 137.986 11.8398C137.986 10.8328 137.661 10.0186 137.01 9.39749C136.375 8.77629 135.534 8.46565 134.487 8.46565C133.442 8.46565 132.593 8.77629 131.943 9.39749C131.306 10.0186 130.989 10.8328 130.989 11.8398C130.989 12.8478 131.306 13.6624 131.943 14.2836ZM123.921 7.90662C125.109 8.05813 126.084 8.50685 126.848 9.25277C127.625 9.98405 128.013 10.9572 128.013 12.1723C128.013 13.5525 127.526 14.6428 126.55 15.4433C125.589 16.2301 124.416 16.6236 123.03 16.6236C121.929 16.6236 120.946 16.3751 120.084 15.8781C119.221 15.3812 118.613 14.6706 118.26 13.7464L119.489 13.0419C119.73 13.76 120.162 14.3052 120.783 14.6775C121.405 15.0365 122.155 15.216 123.03 15.216C124.049 15.216 124.882 14.9536 125.533 14.429C126.197 13.8911 126.529 13.1388 126.529 12.1723C126.529 11.2056 126.197 10.4603 125.533 9.93605C124.882 9.39765 124.049 9.12853 123.03 9.12853V9.10733L123.009 9.12853H122.607L121.971 8.17557L125.66 3.24851H118.684V1.88051H127.378V3.24709L123.921 7.90662ZM117.51 16.3758H114.329L110.47 11.6746V16.3758H107.734V1.88121H110.47V10.5776L114.117 6.02263H117.382L113.12 11.1368L117.51 16.3758ZM101.497 16.6659C99.8986 16.6659 98.5628 16.1412 97.4882 15.0918C96.4283 14.0433 95.8983 12.7459 95.8983 11.1996C95.8983 9.65325 96.4283 8.35581 97.4882 7.30733C98.5636 6.25792 99.8995 5.73321 101.497 5.73321C102.528 5.73321 103.468 5.97486 104.317 6.45816C105.164 6.94145 105.807 7.59016 106.246 8.40429L103.892 9.75037C103.681 9.32285 103.341 8.96893 102.916 8.73605C102.493 8.48757 102.013 8.36333 101.475 8.36333C100.655 8.36333 99.976 8.63229 99.4395 9.17013C98.9022 9.69533 98.6336 10.3718 98.6336 11.1996C98.6336 12.0136 98.9022 12.6901 99.4395 13.229C99.976 13.7532 100.655 14.0153 101.475 14.0153C102.026 14.0153 102.514 13.8981 102.938 13.6638C103.362 13.4308 103.702 13.0768 103.914 12.6495L106.288 13.9744C105.821 14.7885 105.164 15.444 104.317 15.941C103.468 16.4243 102.528 16.6659 101.497 16.6659ZM92.8919 15.0918C91.8035 16.1412 90.4741 16.6659 88.9054 16.6659C87.3359 16.6659 86.0073 16.1412 84.9189 15.0918C83.8452 14.0292 83.3079 12.7318 83.3079 11.1996C83.3079 9.66781 83.8452 8.37725 84.9189 7.32781C86.0073 6.26474 87.3359 5.73321 88.9054 5.73321C90.4741 5.73321 91.8035 6.26474 92.8919 7.32781C93.9804 8.37725 94.525 9.66781 94.525 11.1996C94.525 12.7313 93.9804 14.0283 92.8919 15.0918ZM86.8491 13.2501C87.4002 13.7885 88.0857 14.0576 88.9054 14.0576C89.7252 14.0576 90.4107 13.7885 90.9626 13.2501C91.5137 12.7118 91.7897 12.0285 91.7897 11.2003C91.7897 10.372 91.5137 9.68877 90.9626 9.15037C90.4107 8.61205 89.7252 8.34285 88.9054 8.34285C88.0857 8.34285 87.4002 8.61205 86.8491 9.15037C86.3118 9.68877 86.0432 10.372 86.0432 11.2003C86.0432 12.0285 86.3118 12.7118 86.8491 13.2501ZM78.6204 16.3765V1.26074H81.3558V16.3765H78.6204ZM74.8788 8.85885C76.1794 9.59061 76.8297 10.6951 76.8297 12.1723C76.8297 13.4005 76.3846 14.408 75.4944 15.1948C74.6034 15.9816 73.5075 16.3751 72.2069 16.3751H65.9096V1.88121H71.7623C73.0335 1.88121 74.1008 2.26781 74.964 3.04098C75.8402 3.80004 76.2783 4.77321 76.2783 5.96051C76.2783 7.16145 75.8118 8.12709 74.8788 8.85885ZM71.7623 4.55369H68.8356V7.74145H71.7623C72.2141 7.74145 72.5887 7.58969 72.886 7.28616C73.1969 6.98263 73.3523 6.60309 73.3523 6.14757C73.3523 5.69204 73.2038 5.31227 72.907 5.00827C72.6101 4.70427 72.2285 4.55321 71.7623 4.55369ZM72.2069 13.7048C72.702 13.7048 73.112 13.5459 73.4367 13.2283C73.7615 12.8965 73.9242 12.4824 73.9247 11.9859C73.9247 11.5026 73.762 11.1021 73.4367 10.7845C73.112 10.4536 72.702 10.2883 72.2069 10.2883H68.8362V13.7048H72.2069ZM60.5448 1.88121H63.2802V16.3765H60.5448V15.1546C59.7393 16.1616 58.5943 16.6655 57.11 16.6659C55.6823 16.6659 54.4594 16.1412 53.4413 15.0918C52.438 14.0292 51.9365 12.7318 51.9365 11.1996C51.9365 9.66781 52.438 8.37725 53.4413 7.32781C54.4589 6.26474 55.6818 5.73321 57.11 5.73321C58.5943 5.73321 59.7396 6.23721 60.5455 7.24521L60.5448 1.88121ZM55.4983 13.3108C56.0641 13.8492 56.771 14.1184 57.6188 14.1184C58.4666 14.1184 59.1665 13.8492 59.7184 13.3108C60.2693 12.7584 60.5448 12.0544 60.5448 11.1988C60.5448 10.3433 60.2693 9.64637 59.7184 9.10805C59.167 8.55557 58.4671 8.27933 57.6188 8.27933C56.7705 8.27933 56.0636 8.55557 55.4983 9.10805C54.9469 9.64589 54.6712 10.3428 54.6712 11.1988C54.6712 12.0548 54.9469 12.7588 55.4983 13.3108ZM48.3038 16.3758L47.4132 13.7661H41.4977L40.607 16.3758H37.4472L42.6424 1.88121H46.2685L51.4846 16.3758H48.3038ZM42.4302 11.0958H46.5016L44.4663 5.17345L42.4302 11.0958Z" fill="#0B1936"/>
<path d="M145.094 24.3031L144.04 21.7939H144.571L145.254 23.5121L145.941 21.7939H146.471L145.413 24.3031H145.094ZM143.876 24.3031V21.7939H144.456V24.3031H143.876ZM146.055 24.3031V21.7939H146.631V24.3031H146.055ZM142.08 24.3031V22.0121H142.655V24.3031H142.08ZM141.302 22.2678V21.7939H143.433V22.2678H141.302Z" fill="#0B1936"/>
<path d="M137.72 28.8775C137.186 28.8775 136.725 28.7684 136.336 28.5502C135.95 28.3297 135.653 28.0184 135.445 27.6161C135.237 27.2116 135.132 26.7354 135.132 26.1877C135.132 25.6491 135.237 25.1764 135.445 24.7695C135.655 24.3605 135.949 24.0423 136.326 23.815C136.703 23.5854 137.146 23.4707 137.654 23.4707C137.983 23.4707 138.293 23.5229 138.584 23.6275C138.878 23.7297 139.137 23.8889 139.361 24.1048C139.588 24.3207 139.766 24.5957 139.895 24.9297C140.025 25.2616 140.09 25.657 140.09 26.1161V26.4945H135.723V25.6627H138.886C138.884 25.4264 138.831 25.2161 138.73 25.0321C138.628 24.8457 138.486 24.6991 138.303 24.5923C138.123 24.4854 137.912 24.4321 137.672 24.4321C137.415 24.4321 137.189 24.4934 136.996 24.6161C136.801 24.7366 136.65 24.8957 136.541 25.0934C136.435 25.2889 136.38 25.5037 136.378 25.7377V26.4638C136.378 26.7684 136.435 27.0297 136.548 27.248C136.661 27.4638 136.82 27.6297 137.023 27.7457C137.227 27.8593 137.465 27.9161 137.738 27.9161C137.921 27.9161 138.086 27.8911 138.234 27.8411C138.382 27.7889 138.51 27.7127 138.619 27.6127C138.727 27.5127 138.809 27.3889 138.865 27.2411L140.038 27.3707C139.964 27.6752 139.823 27.9411 139.615 28.1684C139.409 28.3934 139.145 28.5684 138.823 28.6934C138.502 28.8161 138.135 28.8775 137.72 28.8775Z" fill="#0B1936"/>
<path d="M128.857 28.7758V21.7939H130.113V24.4053H130.165C130.229 24.278 130.32 24.1428 130.438 23.9996C130.556 23.8542 130.716 23.7303 130.917 23.628C131.118 23.5235 131.375 23.4712 131.687 23.4712C132.099 23.4712 132.47 23.5746 132.801 23.7815C133.134 23.9859 133.397 24.2894 133.592 24.6916C133.788 25.0916 133.887 25.5826 133.887 26.1644C133.887 26.7394 133.791 27.228 133.599 27.6303C133.407 28.0326 133.146 28.3394 132.815 28.5507C132.484 28.7621 132.11 28.8678 131.691 28.8678C131.386 28.8678 131.133 28.8178 130.931 28.7178C130.73 28.6178 130.568 28.4973 130.446 28.3564C130.325 28.2132 130.232 28.078 130.165 27.9507H130.092V28.7758H128.857ZM130.088 26.1575C130.088 26.4962 130.137 26.7928 130.234 27.0473C130.333 27.3019 130.476 27.5007 130.661 27.6439C130.848 27.7848 131.075 27.8553 131.34 27.8553C131.618 27.8553 131.851 27.7826 132.038 27.6371C132.225 27.4894 132.366 27.2883 132.461 27.0337C132.558 26.7769 132.607 26.4848 132.607 26.1575C132.607 25.8326 132.559 25.5439 132.465 25.2916C132.369 25.0394 132.228 24.8416 132.041 24.6985C131.854 24.5553 131.62 24.4837 131.34 24.4837C131.072 24.4837 130.845 24.5531 130.657 24.6916C130.47 24.8303 130.328 25.0246 130.231 25.2746C130.135 25.5246 130.088 25.8189 130.088 26.1575Z" fill="#0B1936"/>
<path d="M125.847 26.5731V23.5391H127.103V28.7755H125.885V27.8447H125.83C125.709 28.1379 125.512 28.3777 125.236 28.5641C124.964 28.7504 124.627 28.8436 124.227 28.8436C123.878 28.8436 123.569 28.7675 123.301 28.6152C123.034 28.4607 122.827 28.2368 122.676 27.9436C122.526 27.6482 122.451 27.2914 122.451 26.8731V23.5391H123.707V26.6823C123.707 27.0141 123.799 27.2777 123.984 27.4731C124.169 27.6687 124.412 27.7663 124.713 27.7663C124.898 27.7663 125.077 27.722 125.25 27.6334C125.424 27.5447 125.566 27.413 125.677 27.2379C125.79 27.0607 125.847 26.8391 125.847 26.5731Z" fill="#0B1936"/>
<path d="M120.994 23.5387V24.4932H117.93V23.5387H120.994ZM118.686 22.2842H119.943V27.2001C119.943 27.3659 119.968 27.4932 120.019 27.5819C120.072 27.6683 120.141 27.7273 120.227 27.7591C120.312 27.791 120.407 27.8069 120.512 27.8069C120.59 27.8069 120.661 27.8012 120.727 27.7899C120.793 27.7785 120.845 27.7683 120.879 27.7591L121.09 28.7239C121.024 28.7467 120.928 28.7716 120.803 28.7989C120.68 28.8262 120.529 28.8421 120.352 28.8467C120.037 28.8558 119.754 28.8091 119.502 28.7069C119.25 28.6023 119.05 28.441 118.901 28.2228C118.756 28.0046 118.684 27.7319 118.686 27.4046V22.2842Z" fill="#0B1936"/>
<path d="M115.379 26.5731V23.5391H116.634V28.7755H115.416V27.8447H115.361C115.241 28.1379 115.043 28.3777 114.768 28.5641C114.495 28.7504 114.159 28.8436 113.759 28.8436C113.41 28.8436 113.1 28.7675 112.832 28.6152C112.566 28.4607 112.358 28.2368 112.208 27.9436C112.057 27.6482 111.983 27.2914 111.983 26.8731V23.5391H113.238V26.6823C113.238 27.0141 113.331 27.2777 113.515 27.4731C113.701 27.6687 113.944 27.7663 114.244 27.7663C114.429 27.7663 114.609 27.722 114.782 27.6334C114.956 27.5447 115.097 27.413 115.209 27.2379C115.322 27.0607 115.379 26.8391 115.379 26.5731Z" fill="#0B1936"/>
<path d="M107.956 28.8775C107.436 28.8775 106.985 28.765 106.603 28.54C106.221 28.315 105.926 28.0002 105.715 27.5957C105.507 27.1911 105.403 26.7184 105.403 26.1775C105.403 25.6366 105.507 25.1627 105.715 24.7559C105.926 24.3491 106.221 24.0332 106.603 23.8081C106.985 23.5832 107.436 23.4707 107.956 23.4707C108.476 23.4707 108.927 23.5832 109.309 23.8081C109.691 24.0332 109.986 24.3491 110.194 24.7559C110.404 25.1627 110.509 25.6366 110.509 26.1775C110.509 26.7184 110.404 27.1911 110.194 27.5957C109.986 28.0002 109.691 28.315 109.309 28.54C108.927 28.765 108.476 28.8775 107.956 28.8775ZM107.963 27.8889C108.245 27.8889 108.481 27.8127 108.671 27.6605C108.861 27.5059 109.001 27.2991 109.094 27.04C109.189 26.7809 109.237 26.4923 109.237 26.1741C109.237 25.8537 109.189 25.5638 109.094 25.3048C109.001 25.0434 108.861 24.8354 108.671 24.6809C108.481 24.5264 108.245 24.4491 107.963 24.4491C107.674 24.4491 107.433 24.5264 107.241 24.6809C107.052 24.8354 106.91 25.0434 106.815 25.3048C106.722 25.5638 106.676 25.8537 106.676 26.1741C106.676 26.4923 106.722 26.7809 106.815 27.04C106.91 27.2991 107.052 27.5059 107.241 27.6605C107.433 27.8127 107.674 27.8889 107.963 27.8889Z" fill="#0B1936"/>
<path d="M98.9086 21.7939H100.363L102.101 24.8826H102.17L103.908 21.7939H105.361L102.777 26.1712V28.7758H101.493V26.1712L98.9086 21.7939Z" fill="#0B1936"/>
<path d="M92.2283 28.7752V23.5388H93.4461V24.4115H93.5015C93.5983 24.1093 93.7652 23.8763 94.0013 23.7127C94.239 23.5468 94.5109 23.4639 94.8162 23.4639C94.8854 23.4639 94.9627 23.4672 95.049 23.4741C95.1369 23.4786 95.2094 23.4866 95.2672 23.4979V24.6331C95.2143 24.615 95.1296 24.5991 95.014 24.5855C94.9009 24.5695 94.791 24.5615 94.6843 24.5615C94.4556 24.5615 94.2496 24.6104 94.0673 24.7082C93.8865 24.8036 93.7441 24.9366 93.6399 25.1071C93.5365 25.2775 93.4844 25.4741 93.4844 25.6968V28.7752H92.2283Z" fill="#0B1936"/>
<path d="M88.202 28.8775C87.6818 28.8775 87.2308 28.765 86.8498 28.54C86.468 28.315 86.1717 28.0002 85.9617 27.5957C85.7533 27.1911 85.649 26.7184 85.649 26.1775C85.649 25.6366 85.7533 25.1627 85.9617 24.7559C86.1717 24.3491 86.468 24.0332 86.8498 23.8081C87.2308 23.5832 87.6818 23.4707 88.202 23.4707C88.723 23.4707 89.174 23.5832 89.555 23.8081C89.9368 24.0332 90.2314 24.3491 90.4398 24.7559C90.6507 25.1627 90.7557 25.6366 90.7557 26.1775C90.7557 26.7184 90.6507 27.1911 90.4398 27.5957C90.2314 28.0002 89.9368 28.315 89.555 28.54C89.174 28.765 88.723 28.8775 88.202 28.8775ZM88.2093 27.8889C88.4918 27.8889 88.727 27.8127 88.9167 27.6605C89.1064 27.5059 89.2481 27.2991 89.34 27.04C89.4353 26.7809 89.4825 26.4923 89.4825 26.1741C89.4825 25.8537 89.4353 25.5638 89.34 25.3048C89.2481 25.0434 89.1064 24.8354 88.9167 24.6809C88.727 24.5264 88.4918 24.4491 88.2093 24.4491C87.9203 24.4491 87.6793 24.5264 87.488 24.6809C87.2984 24.8354 87.1559 25.0434 87.0606 25.3048C86.9687 25.5638 86.9223 25.8537 86.9223 26.1741C86.9223 26.4923 86.9687 26.7809 87.0606 27.04C87.1559 27.2991 87.2984 27.5059 87.488 27.6605C87.6793 27.8127 87.9203 27.8889 88.2093 27.8889Z" fill="#0B1936"/>
<path d="M84.6876 23.5395V24.4941H81.538V23.5395H84.6876ZM82.3252 28.7759V23.0452C82.3252 22.693 82.3992 22.3998 82.5474 22.1657C82.698 21.9316 82.8991 21.7566 83.1514 21.6406C83.403 21.5248 83.683 21.4668 83.9908 21.4668C84.2081 21.4668 84.401 21.4838 84.5696 21.5179C84.7389 21.552 84.8634 21.5827 84.9448 21.61L84.6949 22.5646C84.642 22.5486 84.5744 22.5327 84.4939 22.5168C84.4124 22.4986 84.3221 22.4895 84.2228 22.4895C83.9891 22.4895 83.8239 22.5452 83.727 22.6566C83.6317 22.7657 83.5845 22.9225 83.5845 23.127V28.7759H82.3252Z" fill="#0B1936"/>
<path d="M74.3351 27.1326L74.331 25.6428H74.5329L76.4476 23.5394H77.9146L75.5595 26.1167H75.299L74.3351 27.1326ZM73.1897 28.7758V21.7939H74.4458V28.7758H73.1897ZM76.5339 28.7758L74.7999 26.3928L75.6458 25.5235L78.0367 28.7758H76.5339Z" fill="#0B1936"/>
<path d="M69.4694 28.8775C68.937 28.8775 68.4803 28.7627 68.0985 28.5332C67.72 28.3037 67.4269 27.9866 67.2209 27.5821C67.0174 27.1752 66.9156 26.707 66.9156 26.1775C66.9156 25.6457 67.0199 25.1764 67.2283 24.7695C67.4367 24.3605 67.7297 24.0423 68.1091 23.815C68.4909 23.5854 68.9419 23.4707 69.4621 23.4707C69.8943 23.4707 70.2778 23.5491 70.6107 23.7059C70.9461 23.8605 71.2131 24.0797 71.4118 24.3638C71.6104 24.6457 71.7244 24.9752 71.752 25.3525H70.5513C70.5033 25.1002 70.3877 24.89 70.2045 24.7218C70.0246 24.5513 69.7828 24.4661 69.48 24.4661C69.2227 24.4661 68.9972 24.5343 68.8035 24.6707C68.6089 24.8048 68.4575 24.998 68.3484 25.2502C68.2426 25.5025 68.1889 25.8048 68.1889 26.157C68.1889 26.5138 68.2426 26.8207 68.3484 27.0775C68.4551 27.3321 68.604 27.5286 68.7962 27.6673C68.9907 27.8037 69.2178 27.8718 69.48 27.8718C69.6648 27.8718 69.83 27.8377 69.9757 27.7695C70.1239 27.6991 70.2476 27.598 70.347 27.4661C70.4463 27.3343 70.5147 27.1741 70.5513 26.9854H71.752C71.7219 27.3559 71.6104 27.6843 71.4191 27.9707C71.227 28.2548 70.9656 28.4775 70.6351 28.6389C70.3038 28.798 69.9155 28.8775 69.4694 28.8775Z" fill="#0B1936"/>
<path d="M63.1187 28.8775C62.5984 28.8775 62.1475 28.765 61.7658 28.54C61.3843 28.315 61.0882 28.0002 60.8777 27.5957C60.6696 27.1911 60.5656 26.7184 60.5656 26.1775C60.5656 25.6366 60.6696 25.1627 60.8777 24.7559C61.0882 24.3491 61.3843 24.0332 61.7658 23.8081C62.1475 23.5832 62.5984 23.4707 63.1187 23.4707C63.6392 23.4707 64.0901 23.5832 64.4717 23.8081C64.8533 24.0332 65.1481 24.3491 65.3563 24.7559C65.5667 25.1627 65.672 25.6366 65.672 26.1775C65.672 26.7184 65.5667 27.1911 65.3563 27.5957C65.1481 28.0002 64.8533 28.315 64.4717 28.54C64.0901 28.765 63.6392 28.8775 63.1187 28.8775ZM63.1257 27.8889C63.4079 27.8889 63.6437 27.8127 63.8334 27.6605C64.023 27.5059 64.1641 27.2991 64.2566 27.04C64.3515 26.7809 64.3988 26.4923 64.3988 26.1741C64.3988 25.8537 64.3515 25.5638 64.2566 25.3048C64.1641 25.0434 64.023 24.8354 63.8334 24.6809C63.6437 24.5264 63.4079 24.4491 63.1257 24.4491C62.8366 24.4491 62.5961 24.5264 62.4041 24.6809C62.2145 24.8354 62.0722 25.0434 61.9775 25.3048C61.8849 25.5638 61.8387 25.8537 61.8387 26.1741C61.8387 26.4923 61.8849 26.7809 61.9775 27.04C62.0722 27.2991 62.2145 27.5059 62.4041 27.6605C62.5961 27.8127 62.8366 27.8889 63.1257 27.8889Z" fill="#0B1936"/>
<path d="M59.0961 21.7939V28.7758H57.8403V21.7939H59.0961Z" fill="#0B1936"/>
<path d="M51.3356 28.7758V21.7939H52.5914V24.4053H52.6435C52.7082 24.278 52.7995 24.1428 52.9175 23.9996C53.0354 23.8542 53.195 23.7303 53.3962 23.628C53.5974 23.5235 53.8541 23.4712 54.1663 23.4712C54.578 23.4712 54.9491 23.5746 55.2799 23.7815C55.6129 23.9859 55.8765 24.2894 56.0709 24.6916C56.2675 25.0916 56.3657 25.5826 56.3657 26.1644C56.3657 26.7394 56.2697 27.228 56.0778 27.6303C55.8858 28.0326 55.6245 28.3394 55.2937 28.5507C54.9631 28.7621 54.5884 28.8678 54.1698 28.8678C53.8646 28.8678 53.6113 28.8178 53.4101 28.7178C53.2089 28.6178 53.047 28.4973 52.9244 28.3564C52.8042 28.2132 52.7105 28.078 52.6435 27.9507H52.5706V28.7758H51.3356ZM52.5671 26.1575C52.5671 26.4962 52.6157 26.7928 52.7128 27.0473C52.8122 27.3019 52.9545 27.5007 53.1395 27.6439C53.3268 27.7848 53.5535 27.8553 53.8195 27.8553C54.097 27.8553 54.3294 27.7826 54.5167 27.6371C54.704 27.4894 54.8451 27.2883 54.9399 27.0337C55.0371 26.7769 55.0857 26.4848 55.0857 26.1575C55.0857 25.8326 55.0382 25.5439 54.9434 25.2916C54.8486 25.0394 54.7075 24.8416 54.5201 24.6985C54.3328 24.5553 54.0993 24.4837 53.8195 24.4837C53.5511 24.4837 53.3234 24.5531 53.1361 24.6916C52.9487 24.8303 52.8064 25.0246 52.7093 25.2746C52.6145 25.5246 52.5671 25.8189 52.5671 26.1575Z" fill="#0B1936"/>
<path d="M46.6971 28.8678C46.2785 28.8678 45.9039 28.7621 45.5731 28.5507C45.2424 28.3394 44.9811 28.0326 44.7892 27.6303C44.5972 27.228 44.5012 26.7394 44.5012 26.1644C44.5012 25.5826 44.5983 25.0916 44.7926 24.6916C44.9892 24.2894 45.254 23.9859 45.587 23.7815C45.9201 23.5746 46.2912 23.4712 46.7006 23.4712C47.0128 23.4712 47.2695 23.5235 47.4707 23.628C47.6719 23.7303 47.8315 23.8542 47.9495 23.9996C48.0674 24.1428 48.1588 24.278 48.2235 24.4053H48.2755V21.7939H49.5348V28.7758H48.2998V27.9507H48.2235C48.1588 28.078 48.0651 28.2132 47.9425 28.3564C47.8199 28.4973 47.658 28.6178 47.4569 28.7178C47.2556 28.8178 47.0024 28.8678 46.6971 28.8678ZM47.0475 27.8553C47.3134 27.8553 47.5401 27.7848 47.7274 27.6439C47.9148 27.5007 48.057 27.3019 48.1541 27.0473C48.2512 26.7928 48.2998 26.4962 48.2998 26.1575C48.2998 25.8189 48.2512 25.5246 48.1541 25.2746C48.0593 25.0246 47.9182 24.8303 47.7309 24.6916C47.5458 24.5531 47.3181 24.4837 47.0475 24.4837C46.7677 24.4837 46.534 24.5553 46.3467 24.6985C46.1594 24.8416 46.0183 25.0394 45.9235 25.2916C45.8287 25.5439 45.7813 25.8326 45.7813 26.1575C45.7813 26.4848 45.8287 26.7769 45.9235 27.0337C46.0207 27.2883 46.1629 27.4894 46.3502 27.6371C46.5398 27.7826 46.7722 27.8553 47.0475 27.8553Z" fill="#0B1936"/>
<path d="M38.3737 28.7758H37L39.5012 21.7939H41.09L43.5946 28.7758H42.2209L40.3234 23.2258H40.2678L38.3737 28.7758ZM38.4188 26.0383H42.1654V27.0542H38.4188V26.0383Z" fill="#0B1936"/>
<defs>
<linearGradient id="paint0_linear_1601_74" x1="24.0784" y1="14.666" x2="24.0784" y2="30.8794" gradientUnits="userSpaceOnUse">
<stop stop-color="#BD4237"/>
<stop offset="1" stop-color="#872E26"/>
</linearGradient>
<linearGradient id="paint1_linear_1601_74" x1="24.4723" y1="18.3096" x2="24.4723" y2="26.8298" gradientUnits="userSpaceOnUse">
<stop stop-color="#BD4237"/>
<stop offset="1" stop-color="#872E26"/>
</linearGradient>
</defs>
</svg>
