<svg width="404" height="406" viewBox="0 0 404 406" fill="none" xmlns="http://www.w3.org/2000/svg">
<g opacity="0.04">
<path d="M227.136 56.5835C220.292 36.9393 212.909 21.1122 207.919 11.299C203.289 2.18881 192.876 -2.12531 183.16 1.04369C172.684 4.45846 156.254 10.4353 137.506 19.4975C148.823 33.1717 160.347 49.1045 170.378 66.8581C190.014 61.3796 209.413 58.2504 227.136 56.5835Z" fill="#798DA6"/>
<path d="M-32.5074 19.4961C-51.2564 10.434 -67.685 4.45709 -78.1613 1.04232C-87.877 -2.12668 -98.2902 2.18744 -102.92 11.2976C-107.91 21.1122 -115.293 36.9393 -122.137 56.5835C-104.414 58.2504 -85.0142 61.3796 -65.3782 66.8567C-55.3467 49.1032 -43.8227 33.1703 -32.5074 19.4961Z" fill="#798DA6"/>
<path d="M-279.504 266.493C-265.823 255.17 -249.882 243.642 -232.12 233.607C-237.585 213.949 -240.704 194.526 -242.373 176.846C-262.037 183.695 -277.881 191.086 -287.702 196.08C-296.813 200.71 -301.127 211.123 -297.958 220.839C-294.543 231.315 -288.565 247.745 -279.504 266.493Z" fill="#798DA6"/>
<path d="M-297.956 482.16C-301.125 491.876 -296.811 502.289 -287.701 506.919C-277.878 511.913 -262.035 519.304 -242.37 526.153C-240.702 508.473 -237.582 489.049 -232.119 469.392C-249.883 459.357 -265.823 447.827 -279.504 436.506C-288.566 455.255 -294.543 471.684 -297.956 482.16Z" fill="#798DA6"/>
<path d="M-122.136 646.417C-115.291 666.06 -107.908 681.887 -102.919 691.7C-98.2888 700.81 -87.8756 705.124 -78.1599 701.955C-67.6836 698.54 -51.2537 692.564 -32.506 683.501C-43.8227 669.827 -55.3454 653.896 -65.3768 636.142C-85.0142 641.621 -104.413 644.75 -122.136 646.417Z" fill="#798DA6"/>
<path d="M137.506 683.503C156.255 692.565 172.684 698.542 183.16 701.956C192.876 705.125 203.289 700.811 207.919 691.701C212.909 681.887 220.292 666.059 227.136 646.418C209.413 644.751 190.014 641.622 170.378 636.145C160.346 653.896 148.823 669.828 137.506 683.503Z" fill="#798DA6"/>
<path d="M384.504 436.506C370.823 447.828 354.882 459.357 337.119 469.392C342.584 489.049 345.703 508.472 347.371 526.151C367.036 519.302 382.88 511.911 392.701 506.918C401.811 502.288 406.125 491.874 402.957 482.159C399.542 471.684 393.565 455.254 384.504 436.506Z" fill="#798DA6"/>
<path d="M402.957 220.839C406.125 211.123 401.811 200.71 392.701 196.08C382.878 191.086 367.035 183.695 347.371 176.846C345.703 194.527 342.584 213.95 337.119 233.607C354.882 243.642 370.822 255.17 384.503 266.493C393.565 247.745 399.542 231.315 402.957 220.839Z" fill="#798DA6"/>
<path d="M52.5063 592.275C17.7695 614.28 -15.4583 623.66 -19.9825 624.876C-21.2127 625.207 -22.4553 625.493 -23.7048 625.748C-2.03397 660.402 25.5122 686.319 39.0834 697.988C42.9719 701.33 47.735 703 52.4995 703C57.2639 703 62.0298 701.329 65.9169 697.987C79.4854 686.317 107.033 660.402 128.704 625.748C127.452 625.493 126.205 625.206 124.969 624.873C120.416 623.645 87.1799 614.224 52.5063 592.275Z" fill="#798DA6"/>
<path d="M297.052 493.561C292.99 495.899 262.855 512.753 222.758 521.755C213.756 561.872 196.895 592 194.555 596.059C193.917 597.168 193.238 598.247 192.535 599.307C232.365 608.489 270.169 607.336 288.016 605.991C293.128 605.605 297.678 603.417 301.048 600.049C304.417 596.679 306.606 592.128 306.99 587.016C308.334 569.169 309.488 531.363 300.306 491.533C299.246 492.236 298.167 492.918 297.052 493.561Z" fill="#798DA6"/>
<path d="M-192.056 209.441C-187.992 207.1 -157.853 190.244 -117.756 181.243C-108.754 141.146 -91.9 111.01 -89.5617 106.95C-88.9205 105.838 -88.2409 104.756 -87.5379 103.693C-127.366 94.5113 -165.171 95.6646 -183.018 97.0075C-193.239 97.7791 -201.221 105.758 -201.993 115.984C-203.337 133.831 -204.489 171.637 -195.307 211.466C-194.247 210.765 -193.169 210.082 -192.056 209.441Z" fill="#798DA6"/>
<path d="M398.988 364.917C402.33 361.028 404 356.265 404 351.501C404 346.736 402.329 341.97 398.987 338.083C387.317 324.513 361.4 296.965 326.743 275.292C326.489 276.539 326.209 277.786 325.875 279.027C324.66 283.547 315.274 316.774 293.279 351.501C315.267 386.218 324.658 419.445 325.875 423.969C326.21 425.212 326.49 426.458 326.744 427.706C361.401 406.036 387.319 378.488 398.988 364.917Z" fill="#798DA6"/>
<path d="M-220.876 279.03C-221.21 277.787 -221.49 276.541 -221.744 275.294C-256.401 296.965 -282.319 324.514 -293.988 338.083C-300.669 345.856 -300.672 357.141 -293.987 364.918C-282.317 378.488 -256.4 406.037 -221.742 427.708C-221.488 426.46 -221.208 425.212 -220.873 423.968C-219.664 419.461 -210.29 386.238 -188.279 351.497C-210.269 316.779 -219.658 283.554 -220.876 279.03Z" fill="#798DA6"/>
<path d="M194.562 106.951C196.896 111.002 213.756 141.128 222.759 181.244C262.845 190.244 292.984 207.096 297.045 209.434C298.163 210.078 299.243 210.763 300.307 211.466C309.49 171.635 308.337 133.83 306.993 115.982C306.607 110.87 304.42 106.32 301.05 102.95C297.681 99.5806 293.129 97.3919 288.017 97.0075C270.172 95.6633 232.366 94.5099 192.538 103.691C193.24 104.754 193.921 105.838 194.562 106.951Z" fill="#798DA6"/>
<path d="M-89.5645 596.045C-91.9028 591.988 -108.756 561.852 -117.757 521.756C-157.843 512.756 -187.983 495.904 -192.045 493.566C-193.161 492.922 -194.243 492.238 -195.306 491.534C-204.489 531.365 -203.335 569.17 -201.991 587.019C-201.219 597.24 -193.241 605.221 -183.014 605.993C-165.167 607.337 -127.359 608.49 -87.5283 599.307C-88.2381 598.239 -88.9233 597.156 -89.5645 596.045Z" fill="#798DA6"/>
<path d="M52.4912 110.724C87.228 88.7197 120.457 79.3391 124.981 78.1226C126.212 77.7916 127.454 77.5047 128.702 77.2507C107.031 42.5963 79.4854 16.6813 65.9155 5.0118C58.1427 -1.66946 46.8576 -1.6722 39.0807 5.01317C25.5122 16.6813 -2.03397 42.5977 -23.7048 77.2507C-22.4526 77.5061 -21.2072 77.793 -19.9715 78.1253C-15.413 79.3542 17.8231 88.7802 52.4912 110.724Z" fill="#798DA6"/>
<path d="M52.4995 413.287C86.6236 413.287 114.287 385.624 114.287 351.499C114.287 317.375 86.6236 289.712 52.4995 289.712C18.3753 289.712 -9.28778 317.375 -9.28778 351.499C-9.28778 385.624 18.3753 413.287 52.4995 413.287Z" fill="#798DA6"/>
<path d="M158.867 575.489C159.99 573.541 183.028 533.008 186.711 485.711C234.008 482.027 274.541 458.99 276.489 457.868C284.579 453.208 288.524 443.687 286.098 434.671C285.514 432.5 273.143 387.547 242.303 351.499C273.143 315.451 285.514 270.5 286.098 268.328C288.523 259.313 284.581 249.792 276.489 245.131C274.541 244.009 234.007 220.968 186.711 217.289C183.028 169.992 159.99 129.458 158.868 127.51C154.208 119.42 144.687 115.475 135.671 117.903C133.5 118.486 88.5475 130.857 52.4995 161.697C16.45 130.859 -28.4995 118.487 -30.6703 117.903C-39.6871 115.476 -49.2078 119.421 -53.868 127.511C-54.9911 129.459 -78.0281 169.993 -81.7106 217.289C-129.008 220.972 -169.542 244.01 -171.489 245.132C-179.58 249.794 -183.524 259.314 -181.097 268.33C-180.514 270.5 -168.143 315.453 -137.303 351.501C-168.143 387.549 -180.514 432.5 -181.097 434.672C-183.522 443.687 -179.58 453.208 -171.489 457.87C-169.54 458.991 -129.008 482.031 -81.7106 485.712C-78.0281 533.008 -54.9897 573.542 -53.868 575.49C-51.5379 579.537 -47.9927 582.545 -43.9024 584.24C-39.812 585.934 -35.1794 586.313 -30.6703 585.099C-28.4995 584.515 16.4514 572.144 52.5009 541.304C88.5489 572.144 133.501 584.514 135.672 585.1C144.687 587.524 154.207 583.579 158.867 575.489ZM52.4995 454.478C-4.28302 454.478 -50.4793 408.282 -50.4793 351.499C-50.4793 294.717 -4.28302 248.521 52.4995 248.521C109.282 248.521 155.478 294.717 155.478 351.499C155.478 408.282 109.282 454.478 52.4995 454.478Z" fill="#798DA6"/>
</g>
</svg>
