<svg width="24" height="24" viewBox="0 0 24 24" fill="none" xmlns="http://www.w3.org/2000/svg">
<mask id="mask0_1_2151" style="mask-type:luminance" maskUnits="userSpaceOnUse" x="0" y="0" width="24" height="24">
<path d="M0 1.90735e-06H24V24H0V1.90735e-06Z" fill="white"/>
</mask>
<g mask="url(#mask0_1_2151)">
<path d="M15.0469 3.75C15.0469 5.43272 13.6827 6.79688 12 6.79688C10.3173 6.79688 8.95312 5.43272 8.95312 3.75C8.95312 2.06728 10.3173 0.703125 12 0.703125C13.6827 0.703125 15.0469 2.06728 15.0469 3.75Z" stroke="#007170" stroke-width="1.2" stroke-miterlimit="10" stroke-linecap="round" stroke-linejoin="round"/>
<path d="M15 11.4L14.395 11.3244C13.4877 11.211 12.6504 10.8878 12 10.4C11.3496 10.8878 10.5123 11.211 9.605 11.3244L9 11.4" stroke="#007170" stroke-width="1.2" stroke-miterlimit="10" stroke-linecap="round" stroke-linejoin="round"/>
<path d="M12 19.3338L17.1893 17.9186C17.7896 17.7548 18.4091 17.6719 19.0312 17.6719C20.5846 17.6719 21.8438 18.931 21.8438 20.4844C21.8438 22.0377 20.5846 23.2969 19.0312 23.2969H14.6242" stroke="#007170" stroke-width="1.2" stroke-miterlimit="10" stroke-linecap="round" stroke-linejoin="round"/>
<path d="M4.96875 17.6717C5.59097 17.6717 6.21042 17.7547 6.8107 17.9184L15.0437 20.1637C15.7374 20.3529 16.2188 20.9831 16.2188 21.7021C16.2188 22.5828 15.5048 23.2967 14.6242 23.2967H4.96875C3.41545 23.2967 2.15625 22.0375 2.15625 20.4842C2.15625 18.9309 3.41545 17.6717 4.96875 17.6717Z" stroke="#007170" stroke-width="1.2" stroke-miterlimit="10" stroke-linecap="round" stroke-linejoin="round"/>
<path d="M13.4062 6.79688H10.5938C7.48716 6.79688 4.96875 9.31528 4.96875 12.4219V13.3594C4.96875 14.3949 5.80819 15.2344 6.84375 15.2344H8.90363C10.0057 15.2344 11.083 14.9082 12 14.2969C12.917 14.9082 13.9943 15.2344 15.0964 15.2344H17.1562C18.1918 15.2344 19.0312 14.3949 19.0312 13.3594V12.4219C19.0312 9.31528 16.5128 6.79688 13.4062 6.79688Z" stroke="#007170" stroke-width="1.2" stroke-miterlimit="10" stroke-linecap="round" stroke-linejoin="round"/>
</g>
</svg>
