<svg width="158" height="28" viewBox="0 0 158 28" fill="none" xmlns="http://www.w3.org/2000/svg">
<g clip-path="url(#clip0_2_3374)">
<path d="M11.2738 3.40366C9.57201 3.66762 7.30759 4.72345 5.71563 5.99046C4.76869 6.74274 4.56283 6.94071 3.7394 7.93056C1.8318 10.1874 0.70645 13.9356 1.04954 16.8128C1.33774 19.3336 2.43565 22.0128 3.69823 23.3326C4.87848 24.5468 6.73119 24.8108 10.1347 24.2432C12.5226 23.8473 14.5949 23.8473 17.3671 24.2432C20.0158 24.626 21.2784 24.5864 22.3763 24.0717C23.0762 23.7417 24.2427 22.7651 24.2427 22.5011C24.2427 22.4351 24.3662 22.2108 24.5172 21.9996C24.9564 21.4189 25.6014 19.8219 25.917 18.5153C26.6307 15.6382 26.0543 11.7052 24.5858 9.46152C24.3937 9.18437 24.2427 8.92041 24.2427 8.88081C24.2427 8.73564 23.3781 7.70619 22.5959 6.92751C21.1274 5.43614 19.412 4.4199 17.1064 3.66762C16.3653 3.41685 15.8575 3.36406 14.0871 3.32447C12.9206 3.31127 11.658 3.33767 11.2738 3.40366ZM14.54 4.07675C15.5419 4.34071 16.9691 5.97726 16.9691 6.86152C16.9691 7.07269 17.0377 7.23107 17.1201 7.23107C17.3808 7.23107 18.9179 7.93056 19.6453 8.36609C22.5821 10.1742 24.4486 13.896 24.2016 17.4067C24.1055 18.5681 23.3919 21.0889 23.1448 21.0889C23.0899 21.0889 22.8566 20.9042 22.637 20.693C22.4312 20.4686 22.0469 20.2311 21.8136 20.1519C21.3196 19.9935 21.2647 19.8879 21.5666 19.6372C21.8273 19.426 21.8273 19.0564 21.5666 18.7925C21.4019 18.6341 21.1274 18.6077 20.1942 18.6737L19.0277 18.7529L18.5474 18.2646C17.9435 17.6443 17.6553 16.7204 17.6553 15.361C17.6416 13.2361 17.2024 11.5996 16.53 11.2037C16.3516 11.0981 15.8438 10.9133 15.3909 10.7945C14.3891 10.5438 14.2793 10.2666 14.8694 9.52751C15.2262 9.07878 15.2537 8.92041 15.2948 7.77218C15.336 6.3336 15.1439 5.85848 14.3342 5.38335C12.1795 4.12954 10.6013 7.83817 12.4677 9.76508C13.003 10.3194 12.8657 10.5306 11.7953 10.8077C10.6287 11.1113 10.4503 11.2432 10.0935 11.9427C9.86021 12.4179 9.75042 12.9986 9.61318 14.4768C9.27009 18.093 8.78975 18.7925 6.69002 18.7001C5.67446 18.6473 5.66073 18.6473 5.5235 19.0037C5.41371 19.2808 5.44115 19.426 5.61956 19.6108C5.93521 19.9539 5.92148 19.9935 5.35881 20.1651C5.02944 20.2707 4.80986 20.4554 4.6589 20.7722C4.53538 21.0229 4.35697 21.2209 4.26091 21.2209C4.0825 21.2209 3.64334 20.1387 3.30024 18.8453C2.94343 17.4727 3.08066 15.0311 3.61589 13.5001C4.604 10.6757 6.5665 8.61685 9.33871 7.48183C10.1347 7.15188 10.1621 7.12548 10.3131 6.47878C10.5601 5.44934 11.5894 4.34071 12.5501 4.06355C13.0853 3.90518 13.9362 3.90518 14.54 4.07675Z" fill="#007170"/>
<path d="M99.613 8.37923C99.5306 8.59039 99.3797 9.01273 99.2699 9.34268C99.1463 9.67263 98.8033 10.6229 98.4876 11.4544C98.172 12.2858 97.87 13.1437 97.8014 13.3681C97.7465 13.5792 97.4034 14.5295 97.0603 15.4665C96.7172 16.4036 96.429 17.1955 96.429 17.2219C96.429 17.2483 96.3741 17.2615 96.3193 17.2615C96.1957 17.2615 95.4272 14.6879 94.1646 10.0026C93.9588 9.23709 93.7529 8.5244 93.6843 8.41882C93.5745 8.18126 92.2158 8.06248 91.9963 8.27364C91.8453 8.41882 92.01 9.1975 92.5864 11.0584C92.806 11.7447 93.1628 12.9457 93.3961 13.7376C93.6294 14.5163 93.9999 15.7833 94.2332 16.5752C94.7136 18.1589 95.2213 19.9011 95.4958 20.8909C95.6331 21.3792 95.7566 21.564 95.9624 21.5904C96.3604 21.6432 96.4977 21.4452 96.9643 20.099C97.1838 19.4391 97.623 18.2249 97.9387 17.3934C98.2406 16.562 98.6523 15.4533 98.8307 14.9518C99.7639 12.3518 99.9423 11.9295 100.066 11.8899C100.203 11.8503 100.436 12.3914 101.438 15.0838C101.713 15.8097 102.124 16.9051 102.358 17.5254C102.797 18.7 103.277 19.9934 103.593 20.8777C103.812 21.4848 104.142 21.7356 104.43 21.5112C104.526 21.432 104.732 20.9833 104.855 20.5346C105.199 19.3731 106.077 16.4036 107.134 12.8401C107.381 12.0351 107.751 10.8209 107.971 10.1214C108.19 9.42187 108.369 8.69598 108.369 8.49801C108.369 8.16806 108.341 8.15486 107.545 8.15486C106.914 8.15486 106.708 8.20765 106.612 8.37923C106.489 8.61679 106.283 9.32948 105.473 12.3122C105.24 13.1833 104.883 14.4239 104.691 15.0838C104.499 15.7305 104.306 16.4696 104.265 16.7203C104.128 17.433 103.908 17.3406 103.593 16.4432C103.428 15.9813 103.044 14.9254 102.728 14.0939C102.413 13.2625 102.083 12.3122 101.987 11.9823C101.877 11.6523 101.644 11.0188 101.452 10.5701C101.26 10.1082 101.095 9.67263 101.095 9.58024C101.095 9.48786 100.958 9.10511 100.793 8.72237C100.532 8.12847 100.436 8.02288 100.121 8.02288C99.8463 8.02288 99.7227 8.11527 99.613 8.37923Z" fill="#007170"/>
<path d="M134.431 8.37913C134.363 8.5771 134.266 8.99944 134.225 9.32939C134.184 9.65934 134.006 10.6756 133.827 11.5862C133.649 12.4969 133.32 14.1862 133.086 15.3477C132.867 16.5091 132.524 18.2644 132.331 19.2411C132.126 20.2177 131.975 21.102 131.975 21.1812C131.975 21.4319 133.704 21.4187 133.8 21.1812C133.841 21.0756 133.951 20.5345 134.033 19.9538C134.129 19.3862 134.376 17.8949 134.596 16.6675C134.802 15.4269 135.021 14.1203 135.062 13.7639C135.255 12.2989 135.433 12.1802 135.817 13.2492C135.955 13.6055 136.202 14.2258 136.366 14.6218C136.545 15.0177 136.86 15.7964 137.094 16.3375C137.313 16.8786 137.684 17.7761 137.917 18.3172C138.878 20.64 139.097 21.168 139.166 21.3791C139.207 21.5243 139.372 21.6167 139.564 21.6167C139.907 21.6167 140.113 21.2736 140.772 19.637C140.923 19.2411 141.238 18.4888 141.444 17.9873C141.65 17.4725 142.075 16.4695 142.364 15.7436C143.557 12.84 143.708 12.5101 143.791 12.5101C143.832 12.5101 144.065 13.5923 144.312 14.9121C145.259 20.1781 145.451 21.1416 145.506 21.2472C145.547 21.2999 145.945 21.3527 146.398 21.3527H147.208V20.9436C147.208 20.7192 147.03 19.6634 146.81 18.6076C146.59 17.5385 146.234 15.6908 146 14.4898C145.273 10.7284 144.848 8.6299 144.779 8.31314C144.724 8.10198 144.614 8.02279 144.312 8.02279C144.093 8.02279 143.914 8.08878 143.914 8.18116C143.914 8.26035 143.736 8.72228 143.516 9.19741C143.31 9.67253 142.926 10.5436 142.679 11.1243C142.446 11.705 142.103 12.5101 141.924 12.906C141.76 13.302 141.417 14.1071 141.17 14.6878C140.923 15.2685 140.552 16.1263 140.346 16.6015C140.127 17.0766 139.921 17.5649 139.88 17.6837C139.756 18.0664 139.536 17.9609 139.303 17.4197C138.754 16.2055 138.411 15.4005 137.944 14.2918C137.67 13.6319 137.258 12.7081 137.039 12.2329C136.819 11.7578 136.641 11.3223 136.641 11.2695C136.641 11.2167 136.462 10.7812 136.229 10.306C136.009 9.84411 135.817 9.40858 135.817 9.34259C135.817 9.2766 135.68 8.94665 135.515 8.6167C135.159 7.90401 134.664 7.78522 134.431 8.37913Z" fill="#007170"/>
<path d="M34.1928 8.31325C34.1516 8.40563 34.1379 11.362 34.1516 14.8858L34.1928 21.2869L36.9376 21.3264C38.6668 21.3528 39.9568 21.3132 40.4371 21.2209C44.4856 20.3894 46.9696 16.2716 45.5835 12.6422C44.7189 10.3985 42.8662 8.84116 40.4508 8.35284C39.1608 8.08888 34.2889 8.06248 34.1928 8.31325ZM41.2743 10.3721C42.0428 10.7945 43.0035 11.6655 43.3191 12.2594C43.8681 13.2361 44.0328 15.229 43.6622 16.4036C43.3603 17.3407 42.578 18.3701 41.7546 18.8848C40.739 19.5447 39.4902 19.7955 37.5551 19.7427L35.9769 19.7031L35.9357 14.7671L35.9083 9.84421L38.2001 9.897C40.5057 9.9366 40.5057 9.94979 41.2743 10.3721Z" fill="#007170"/>
<path d="M54.9158 8.28679C54.806 8.45837 55.0118 8.81471 55.8627 9.93654C56.2607 10.4381 56.7959 11.1903 57.0841 11.5863C57.9487 12.8137 59.0466 14.3183 59.3486 14.6878C59.6368 15.0442 59.6505 15.1761 59.6505 18.1985V21.3528H60.5425H61.4346V18.1325C61.4346 14.965 61.4346 14.899 61.7502 14.5294C62.0521 14.1863 64.8243 10.4645 65.2772 9.83095C65.387 9.65938 65.6615 9.31623 65.8811 9.03908C66.43 8.35278 66.3065 8.15481 65.2772 8.15481C64.3166 8.15481 64.3715 8.11522 63.1089 9.83095C61.2973 12.299 60.6111 13.17 60.5014 13.17C60.4465 13.17 60.2132 12.9061 59.9936 12.5893C59.2937 11.5863 57.1528 8.76192 56.8646 8.44517C56.6313 8.2076 56.4391 8.15481 55.7941 8.15481C55.3549 8.15481 54.957 8.2076 54.9158 8.28679Z" fill="#007170"/>
<path d="M122.19 8.23423C122.135 8.28702 122.094 11.2566 122.094 14.8464V21.353H122.917H123.741V18.9114V16.4566L124.193 16.0078C125.003 15.216 125.923 14.9784 126.828 15.3347C127.693 15.6911 127.775 15.9682 127.858 18.7794L127.926 21.287L128.722 21.3266L129.505 21.3662V18.885C129.505 17.5256 129.45 16.1794 129.381 15.9023C129.093 14.7012 127.954 13.8434 126.527 13.7246C125.936 13.6718 125.648 13.7378 124.893 14.0809C124.399 14.3053 123.933 14.4901 123.864 14.4901C123.795 14.4901 123.727 13.0779 123.713 11.349L123.672 8.22103L122.986 8.18144C122.602 8.15504 122.245 8.18144 122.19 8.23423Z" fill="#007170"/>
<path d="M110.716 8.89408C110.18 9.55398 110.469 10.425 111.278 10.6098C111.58 10.6758 111.745 10.6098 112.088 10.2799C112.445 9.92352 112.5 9.79154 112.431 9.4352C112.253 8.56413 111.237 8.24738 110.716 8.89408Z" fill="#007170"/>
<path d="M115.616 12.6686L115.574 13.896L115.026 13.962L114.477 14.028V14.6219V15.2158L115.053 15.2554L115.629 15.295L115.671 17.895C115.712 20.2443 115.739 20.5346 115.986 20.8514C116.412 21.4057 117.084 21.6564 117.894 21.5773C118.635 21.4981 120.035 20.9965 120.035 20.8118C120.035 20.7326 119.664 19.8879 119.541 19.6635C119.527 19.6372 119.321 19.7163 119.088 19.8219C118.498 20.1255 117.606 20.0991 117.427 19.7823C117.345 19.6372 117.29 18.6077 117.29 17.4067V15.295L118.498 15.2554L119.692 15.2158V14.6219V14.028L118.525 13.962L117.359 13.896L117.317 12.6686L117.276 11.4544H116.467H115.657L115.616 12.6686Z" fill="#007170"/>
<path d="M50.8661 13.8169C49.6035 14.2129 48.7389 14.952 48.1762 16.1134C47.8743 16.7601 47.8194 17.024 47.8743 17.7631C48.0115 19.954 49.6858 21.5641 51.8267 21.5509C53.2952 21.5377 54.6401 20.6667 55.3538 19.2677C55.9164 18.1591 55.889 16.9581 55.2851 15.8758C54.8323 15.0443 54.3107 14.5692 53.3226 14.0677C52.6913 13.7641 51.4562 13.6322 50.8661 13.8169ZM53.0756 15.5987C54.0225 16.2058 54.4343 17.5784 53.9677 18.621C53.5422 19.624 52.362 20.2971 51.3601 20.1124C50.3857 19.9276 49.3702 18.7002 49.3565 17.6839C49.3565 16.7997 50.0701 15.7174 50.9347 15.3347C51.5111 15.0707 52.4169 15.1895 53.0756 15.5987Z" fill="#007170"/>
<path d="M68.1039 13.9093C67.2668 14.1996 66.2512 15.0179 65.8121 15.757C65.4552 16.3641 65.4141 16.5488 65.4141 17.5915C65.4141 18.9245 65.5787 19.3336 66.4571 20.2839C67.253 21.1417 68.4607 21.6697 69.4489 21.5905C70.8624 21.4717 72.2211 20.561 72.8386 19.294C73.319 18.3174 73.2915 16.9184 72.7837 15.9153C71.9054 14.1996 69.8194 13.3021 68.1039 13.9093ZM70.2174 15.4138C71.1643 15.8758 71.8642 17.1428 71.6447 18.0138C71.2604 19.5448 69.9429 20.4422 68.6803 20.0463C67.4726 19.6636 66.8139 18.5285 66.9923 17.1692C67.0609 16.5884 67.1707 16.3641 67.5687 15.9813C68.4607 15.1367 69.2842 14.9519 70.2174 15.4138Z" fill="#007170"/>
<path d="M77.7113 13.896C76.5174 14.3052 75.6665 15.361 75.4744 16.6676C75.4195 17.1031 75.4744 17.4727 75.7077 18.0798L76.0233 18.8981L75.6116 19.2412C75.0901 19.6768 74.7882 20.1519 74.6784 20.7326C74.5411 21.3925 75.0077 22.29 75.639 22.6199C75.8998 22.7519 76.1194 22.9103 76.1194 22.9499C76.1194 23.0026 75.8861 23.2402 75.6116 23.4778C75.1038 23.9001 75.0901 23.9397 75.0901 24.7976C75.0901 25.6026 75.1313 25.7346 75.4881 26.091C76.3294 26.927 77.5869 27.0881 79.0015 27.0001C80.5592 26.9032 82.0892 26.4869 82.6656 25.4047C83.3381 24.1245 82.8989 22.7519 81.6226 22.1316C81.0599 21.8676 80.758 21.8148 79.0014 21.7752C77.9035 21.762 76.8467 21.6696 76.6272 21.5905C75.9684 21.3397 75.9684 20.5082 76.6272 20.0859C76.9428 19.8879 77.08 19.8879 77.5878 20.0067C77.9172 20.0991 78.5073 20.1651 78.9053 20.1651C81.3481 20.1519 82.9538 17.5123 81.6638 15.6382C81.4716 15.361 81.3344 15.0971 81.3756 15.0707C81.403 15.0443 81.6638 14.9387 81.9657 14.8463C82.446 14.6747 82.5009 14.6219 82.5009 14.2128V13.7641L80.3737 13.7377C78.8367 13.7113 78.0956 13.7509 77.7113 13.896ZM79.5915 15.295C80.9501 15.9813 81.005 18.0402 79.6876 18.6737C78.8504 19.0828 77.629 18.7133 77.1898 17.9214C76.7232 17.0636 76.9291 16.1793 77.7662 15.493C78.2466 15.1103 79.0563 15.0311 79.5915 15.295ZM80.7992 23.5702C81.3481 24.1641 81.3344 24.6788 80.7443 25.2463C79.4268 26.5133 76.6683 25.9854 76.6683 24.4676C76.6683 23.4646 77.4369 23.0554 79.1798 23.095C80.36 23.1346 80.4149 23.1478 80.7992 23.5702Z" fill="#007170"/>
<path d="M85.8629 13.9356C84.9983 14.16 84.9708 14.1732 84.9297 14.6219C84.8748 15.3346 85.0532 15.493 85.6845 15.3082C86.7138 15.0179 87.8391 14.9783 88.292 15.2027C88.7861 15.4402 88.8821 15.6382 88.8821 16.4169C88.8821 16.9976 88.8821 16.9976 88.5116 16.9052C88.292 16.8392 87.6607 16.7996 87.098 16.7996C85.9315 16.8128 85.1767 17.1032 84.5866 17.7895C83.6534 18.8585 84.0925 20.627 85.4649 21.2869C86.3981 21.7488 87.0294 21.7093 88.1548 21.1549C89.0194 20.7194 89.088 20.693 89.2527 20.9042C89.3487 21.0362 89.4311 21.1945 89.4311 21.2605C89.4311 21.3133 89.6644 21.3529 89.9526 21.3265L90.4604 21.2869L90.5015 18.7793C90.5427 16.1001 90.4192 15.2291 89.9526 14.5955C89.3213 13.7245 87.7293 13.4737 85.8629 13.9356ZM88.7174 17.9742C88.8135 18.027 88.8821 18.3834 88.8821 18.7661C88.8821 19.3468 88.8272 19.5052 88.5116 19.7955C87.9626 20.2971 87.098 20.5082 86.5491 20.2971C85.8766 20.0331 85.7257 19.8087 85.7257 19.1225C85.7257 18.0666 86.1785 17.7631 87.5921 17.8291C88.1273 17.8554 88.6351 17.9214 88.7174 17.9742Z" fill="#007170"/>
<path d="M152.149 13.8167C150.804 14.2391 149.816 15.1497 149.472 16.2848C149.02 17.8025 149.322 19.3863 150.268 20.3365C151.709 21.8015 153.741 21.9995 155.607 20.8777C156.197 20.5213 156.211 20.3893 155.689 19.7822L155.387 19.4391L154.633 19.8086C154.001 20.1122 153.727 20.1782 153.15 20.1386C152.245 20.0594 151.408 19.5447 151.119 18.898C150.68 17.8817 150.57 17.9345 153.768 17.8949L156.609 17.8553L156.65 17.1558C156.719 15.902 155.978 14.7274 154.688 14.0675C154.097 13.7771 152.725 13.632 152.149 13.8167ZM154.207 15.3609C154.646 15.7304 155.031 16.3244 155.031 16.6675C155.031 16.8391 154.742 16.8655 152.972 16.8655C151.847 16.8655 150.913 16.8391 150.913 16.7995C150.913 16.7731 151.01 16.4959 151.133 16.2056C151.6 15.0969 153.301 14.635 154.207 15.3609Z" fill="#007170"/>
<path d="M110.703 17.6576V21.3662L111.499 21.3266L112.281 21.287V17.6576V14.0281L111.499 13.9885L110.703 13.949V17.6576Z" fill="#007170"/>
</g>
<defs>
<clipPath id="clip0_2_3374">
<rect width="157" height="27" fill="white" transform="translate(0.5 0.5)"/>
</clipPath>
</defs>
</svg>
