<svg width="24" height="24" viewBox="0 0 24 24" fill="none" xmlns="http://www.w3.org/2000/svg">
<path d="M9.55029 7.67365C10.1012 6.34174 10.9176 5.09384 11.9999 4.01196C13.0817 5.09384 13.8981 6.34137 14.4494 7.67365C13.3913 8.73293 12.5632 9.98534 11.9999 11.3474C11.4365 9.98534 10.6085 8.73293 9.55029 7.67365Z" stroke="#007170" stroke-width="1.2" stroke-miterlimit="10" stroke-linecap="round" stroke-linejoin="round"/>
<path d="M0.703125 8.69116C0.703125 14.9259 5.76525 19.988 12 19.988C12 13.7533 6.93787 8.69116 0.703125 8.69116Z" stroke="#007170" stroke-width="1.2" stroke-miterlimit="10" stroke-linecap="round" stroke-linejoin="round"/>
<path d="M23.2969 8.69116C23.2969 14.9259 18.2347 19.988 12 19.988C12 13.7533 17.0621 8.69116 23.2969 8.69116Z" stroke="#007170" stroke-width="1.2" stroke-miterlimit="10" stroke-linecap="round" stroke-linejoin="round"/>
<path d="M5.02442 9.54848C5.02367 8.10698 5.30046 6.64176 5.88598 5.22778C8.76781 6.4215 10.8936 8.67332 11.9999 11.3473C13.1062 8.67332 15.2319 6.4215 18.1137 5.22778C18.6993 6.64176 18.9761 8.10698 18.9753 9.54848C14.8821 11.246 11.9999 15.2832 11.9999 19.9879C11.9999 15.2832 9.11764 11.246 5.02442 9.54848Z" stroke="#007170" stroke-width="1.2" stroke-miterlimit="10" stroke-linecap="round" stroke-linejoin="round"/>
</svg>
