<svg data-sfc-id="svg__lotus" data-sfc-unique-id="svg__lotus69258c851f2f3" data-sfc-ids="svg__lotus" class="sfc-svgLotus" data-sfc-class="sfc-svgLotus" width="24" height="24" viewBox="0 0 24 18" fill="none" xmlns="http://www.w3.org/2000/svg" fill="#007170">
    <path d="M9.55042 4.67368C10.1013 3.34177 10.9177 2.09387 12 1.01199C13.0818 2.09387 13.8982 3.3414 14.4495 4.67368C13.3914 5.73296 12.5633 6.98537 12 8.34741C11.4366 6.98537 10.6086 5.73296 9.55042 4.67368Z" stroke="#007170" stroke-width="1.2" stroke-miterlimit="10" stroke-linecap="round" stroke-linejoin="round"></path>
    <path d="M0.703125 5.69116C0.703125 11.9259 5.76525 16.988 12 16.988C12 10.7533 6.93787 5.69116 0.703125 5.69116Z" stroke="#007170" stroke-width="1.2" stroke-miterlimit="10" stroke-linecap="round" stroke-linejoin="round"></path>
    <path d="M23.2969 5.69116C23.2969 11.9259 18.2347 16.988 12 16.988C12 10.7533 17.0621 5.69116 23.2969 5.69116Z" stroke="#007170" stroke-width="1.2" stroke-miterlimit="10" stroke-linecap="round" stroke-linejoin="round"></path>
    <path d="M5.02454 6.5486C5.02379 5.1071 5.30058 3.64188 5.8861 2.2279C8.76793 3.42162 10.8937 5.67344 12 8.34743C13.1063 5.67344 15.232 3.42162 18.1138 2.2279C18.6994 3.64188 18.9762 5.1071 18.9754 6.5486C14.8822 8.24613 12 12.2833 12 16.988C12 12.2833 9.11776 8.24613 5.02454 6.5486Z" stroke="#007170" stroke-width="1.2" stroke-miterlimit="10" stroke-linecap="round" stroke-linejoin="round"></path>
  </svg>