<svg width="24" height="24" viewBox="0 0 24 24" fill="none" xmlns="http://www.w3.org/2000/svg">
<path d="M12 12.126C12.9638 12.126 13.748 11.3419 13.748 10.3781C13.748 9.41426 12.9638 8.63013 12 8.63013C11.0362 8.63013 10.2521 9.41426 10.2521 10.3781C10.2521 11.3419 11.0362 12.126 12 12.126ZM12 9.79543C12.3213 9.79543 12.5827 10.0568 12.5827 10.3781C12.5827 10.6994 12.3213 10.9607 12 10.9607C11.6788 10.9607 11.4174 10.6994 11.4174 10.3781C11.4174 10.0568 11.6788 9.79543 12 9.79543Z" fill="#007170"/>
<path d="M21.822 19.6835C21.7821 19.4845 20.8079 14.7881 17.6842 12.9846C17.0212 12.6019 16.2883 12.4062 15.5513 12.4069C15.9204 11.7689 16.1174 11.0364 16.1174 10.2709C16.1174 6.66383 12.5374 3.47207 12.3849 3.33798L12 2.99927L11.6151 3.33798C11.4628 3.47207 7.88264 6.66383 7.88264 10.2709C7.88264 11.0364 8.07973 11.7689 8.44882 12.4069C7.71173 12.4062 6.9788 12.6019 6.31586 12.9846C3.19207 14.7882 2.21796 19.4845 2.17802 19.6835L2.07715 20.1862L2.56292 20.3502C2.68377 20.391 4.52603 21 6.65372 21C7.91282 21 9.27191 20.7867 10.4332 20.1162C11.0962 19.7334 11.632 19.1965 12 18.5579C12.368 19.1965 12.9039 19.7335 13.5668 20.1162C14.7283 20.7868 16.087 21 17.3463 21C19.4737 20.9999 21.3163 20.391 21.4371 20.3502L21.9229 20.1862L21.822 19.6835ZM12 4.58408C12.8782 5.47363 14.9521 7.83298 14.9521 10.2709C14.9521 11.9647 13.6554 13.2917 12 13.2917C10.3446 13.2917 9.0479 11.9648 9.0479 10.2709C9.0479 7.83298 11.122 5.47351 12 4.58408ZM11.2773 17.295C11.0624 18.0564 10.5557 18.6999 9.8506 19.107C7.73931 20.326 4.65891 19.7095 3.44964 19.3938C3.78094 18.1885 4.78717 15.2128 6.89851 13.9938C8.36547 13.1469 10.163 13.6064 10.9907 15.04C11.3905 15.7326 11.4923 16.5334 11.2773 17.295ZM18.5893 19.7605C16.2972 20.0155 14.9097 19.546 14.1494 19.107C12.6825 18.26 12.1817 16.4736 13.0094 15.04C13.5567 14.0919 14.528 13.5699 15.5476 13.5699C16.0697 13.5699 16.6047 13.7069 17.1015 13.9938C19.2135 15.2131 20.2197 18.1904 20.5507 19.3948C20.1053 19.5118 19.405 19.6697 18.5893 19.7605Z" fill="#007170"/>
<path d="M16.4062 14.983C14.3494 13.9066 12.6988 16.769 14.6582 18.0104C15.4689 18.497 16.5886 18.1953 17.046 17.3707C17.5325 16.5668 17.2295 15.4359 16.4062 14.983ZM16.0368 16.788C15.8858 17.0625 15.5088 17.1635 15.2409 17.0013C14.7257 16.6963 14.943 15.9168 15.5332 15.9142C15.9744 15.9096 16.2629 16.4062 16.0368 16.788Z" fill="#007170"/>
<path d="M8.92015 14.8078C7.42961 14.4019 6.17796 16.0334 6.95402 17.3702C7.7416 18.7183 9.75548 18.4394 10.1561 16.9486C10.418 16.0461 9.83274 15.0322 8.92015 14.8078ZM9.03058 16.647C8.90178 17.1439 8.21712 17.2341 7.96317 16.7875C7.801 16.5196 7.90195 16.1426 8.17642 15.9916C8.62133 15.7317 9.16634 16.1509 9.03058 16.647Z" fill="#007170"/>
</svg>
