<svg width="74" height="15" viewBox="0 0 74 15" fill="none" xmlns="http://www.w3.org/2000/svg">
<path d="M7 0.5L8.5716 5.33688H13.6574L9.5429 8.32624L11.1145 13.1631L7 10.1738L2.8855 13.1631L4.4571 8.32624L0.342604 5.33688H5.4284L7 0.5Z" fill="#FAA900"/>
<path d="M22 0.5L23.5716 5.33688H28.6574L24.5429 8.32624L26.1145 13.1631L22 10.1738L17.8855 13.1631L19.4571 8.32624L15.3426 5.33688H20.4284L22 0.5Z" fill="#FAA900"/>
<path d="M37 0.5L38.5716 5.33688H43.6574L39.5429 8.32624L41.1145 13.1631L37 10.1738L32.8855 13.1631L34.4571 8.32624L30.3426 5.33688H35.4284L37 0.5Z" fill="#FAA900"/>
<path d="M52 0.5L53.5716 5.33688H58.6574L54.5429 8.32624L56.1145 13.1631L52 10.1738L47.8855 13.1631L49.4571 8.32624L45.3426 5.33688H50.4284L52 0.5Z" fill="#FAA900"/>
<path d="M67 0.5L68.5716 5.33688H73.6574L69.5429 8.32624L71.1145 13.1631L67 10.1738L62.8855 13.1631L64.4571 8.32624L60.3426 5.33688H65.4284L67 0.5Z" fill="#FAA900"/>
</svg>
