<svg width="40" height="40" viewBox="0 0 40 40" fill="none" xmlns="http://www.w3.org/2000/svg">
<path d="M25.3386 7H13.859C12.2822 7 11 8.28224 11 9.86771V30.1323C11 31.7091 12.2822 33 13.859 33H25.3386C26.9154 33 28.1976 31.7091 28.1976 30.1323V9.86771C28.1976 8.27358 26.9154 7 25.3386 7ZM22.3409 30.141H16.8654C16.3889 30.141 15.999 29.7511 15.999 29.2746C15.999 28.7981 16.3889 28.4082 16.8654 28.4082H22.3409C22.8174 28.4082 23.2073 28.7981 23.2073 29.2746C23.2073 29.7511 22.8174 30.141 22.3409 30.141Z" fill="#027DB8"/>
</svg>
