<svg width="40" height="40" viewBox="0 0 40 40" fill="none" xmlns="http://www.w3.org/2000/svg">
<path d="M32.0748 34.0026C32.0748 34.3693 31.7748 34.6693 31.4081 34.6693H3.99479C3.62813 34.6693 3.32812 34.3693 3.32812 34.0026C3.32812 33.6359 3.62813 33.3359 3.99479 33.3359H31.4081C31.7748 33.3359 32.0748 33.6359 32.0748 34.0026Z" fill="#027DB8"/>
<path d="M30.7075 26.6574V28.7974C30.7075 30.3307 29.4608 31.5774 27.9275 31.5774H7.4675C5.93417 31.5774 4.6875 30.3307 4.6875 28.7974V14.9441C4.6875 13.4107 5.93417 12.1641 7.4675 12.1641H22.0875V23.1174C22.0875 25.0707 23.6742 26.6574 25.6208 26.6574H30.7075Z" fill="#027DB8"/>
<path d="M34.4513 5.32031H25.618C24.4046 5.32031 23.418 6.30698 23.418 7.52698V23.1203C23.418 24.3336 24.4046 25.327 25.618 25.327H34.4513C35.6646 25.327 36.6513 24.3336 36.6513 23.1203V7.52698C36.6513 6.30031 35.6646 5.32031 34.4513 5.32031ZM32.1446 23.127H27.9313C27.5646 23.127 27.2646 22.827 27.2646 22.4603C27.2646 22.0936 27.5646 21.7936 27.9313 21.7936H32.1446C32.5113 21.7936 32.8113 22.0936 32.8113 22.4603C32.8113 22.827 32.5113 23.127 32.1446 23.127Z" fill="#027DB8"/>
</svg>
