<svg width="40" height="40" viewBox="0 0 40 40" fill="none" xmlns="http://www.w3.org/2000/svg">
<path d="M16.1484 22.6484L11.25 23.6118C11.6866 25.3517 12.4206 27.003 13.4197 28.4929L17.5359 25.491L16.814 24.5286C16.4046 23.9849 16.1723 23.3286 16.1484 22.6484Z" fill="#027DB8"/>
<path d="M23.7109 10.5516L21.6673 8.50781L20.2932 10.798V11.4963C20.2948 13.0517 19.8451 14.5742 18.9988 15.8791L18.4375 18.125H19.5723C20.0938 18.1262 20.6088 18.0095 21.0788 17.7835C21.5488 17.5576 21.9616 17.2283 22.2864 16.8203C22.6147 16.4075 22.8454 15.9258 22.9611 15.4113C23.0769 14.8967 23.0747 14.3627 22.9548 13.8491C22.7286 13.2881 22.6798 12.6712 22.815 12.0816C22.9502 11.492 23.2629 10.958 23.7109 10.5516Z" fill="#027DB8"/>
<path d="M29.043 16.0221C29.0419 17.0926 28.7866 18.1476 28.2982 19.1002L27.8617 19.9496C27.7758 20.1803 27.7703 20.4333 27.8461 20.6675C27.9219 20.9017 28.0747 21.1034 28.2795 21.2399L29.1596 21.8267L30.8237 21.4108L29.831 15.9511C29.8133 15.8536 29.7597 15.7662 29.6808 15.7062C29.6019 15.6461 29.5035 15.6178 29.4047 15.6267C29.306 15.6356 29.2142 15.6811 29.1473 15.7543C29.0804 15.8274 29.0434 15.923 29.0434 16.0221H29.043Z" fill="#027DB8"/>
<path d="M15.4825 18.7501H16.993L17.8121 15.4735C17.8294 15.404 17.8584 15.3379 17.898 15.2782C18.6458 14.1588 19.0443 12.8426 19.043 11.4964V10.6251C19.043 10.5118 19.0738 10.4007 19.1321 10.3035L21.0071 7.17853C21.056 7.09705 21.1228 7.02779 21.2024 6.976C21.2821 6.92421 21.3725 6.89126 21.4668 6.87965C21.561 6.86805 21.6567 6.87809 21.7466 6.90902C21.8364 6.93994 21.918 6.99094 21.9852 7.05814L25.1065 10.1794L25.1092 10.1822L25.1102 10.1831L25.1117 10.1849C25.1294 10.203 25.146 10.2222 25.1615 10.2423C25.1635 10.245 25.1662 10.2474 25.1682 10.2501L26.9897 12.6787L28.7658 14.0108L29.5407 12.0733L26.7778 9.8629C26.7342 9.82806 26.6955 9.78754 26.6627 9.74243L22.3162 3.76571C22.1568 3.54674 21.9431 3.37312 21.6962 3.26202C21.4492 3.15092 21.1775 3.10617 20.908 3.13221C20.6384 3.15825 20.3804 3.25416 20.1592 3.41048C19.9381 3.5668 19.7616 3.7781 19.6471 4.02353L16.2578 11.286C15.9535 11.9362 15.4998 12.5052 14.9336 12.9466L13.418 14.1252V16.6859C13.418 16.957 13.4714 17.2254 13.5751 17.4759C13.6789 17.7263 13.831 17.9539 14.0227 18.1456C14.2144 18.3373 14.442 18.4893 14.6925 18.593C14.9429 18.6967 15.2114 18.7501 15.4825 18.7501Z" fill="#027DB8"/>
<path d="M15.1475 9.205C15.2423 9.31769 15.2943 9.46027 15.2943 9.60758V10.3953L17.8814 4.85156L15.2889 5.78125C15.2543 5.7936 15.2251 5.81779 15.2065 5.84956C15.1879 5.88134 15.1811 5.91865 15.1874 5.95492L15.2436 6.28039C15.2716 6.4424 15.2346 6.6089 15.1407 6.74383L14.2741 7.98867C14.2545 8.01688 14.2447 8.05078 14.2463 8.08512C14.2478 8.11945 14.2607 8.15231 14.2828 8.17859L15.1475 9.205Z" fill="#027DB8"/>
<path d="M35.7278 32.9146L31.1831 22.6094L29.7181 22.9756L29.9837 25.6328C30.1769 27.5773 30.7246 29.4699 31.5996 31.2171L32.1014 32.2209C32.1567 32.3314 32.1779 32.4559 32.1625 32.5786C32.147 32.7012 32.0955 32.8165 32.0145 32.9099C31.9335 33.0033 31.8267 33.0705 31.7074 33.1032C31.5882 33.1358 31.462 33.1324 31.3447 33.0933L23.8447 30.5933C23.7668 30.5673 23.6948 30.5263 23.6328 30.4725C23.5708 30.4187 23.52 30.3532 23.4833 30.2798L22.9688 29.2506C22.5904 28.4967 22.0395 27.8426 21.361 27.3415C20.6824 26.8403 19.8953 26.5062 19.0634 26.3663L18.5734 26.2846L14.1602 29.5034C14.351 29.7425 14.5491 29.9763 14.7527 30.2025C16.196 31.8074 17.9017 33.1552 19.7969 34.1883L19.8003 34.1902C22.299 35.5484 25.0673 36.3367 27.9066 36.4985L33.0491 36.7841C33.4688 36.8087 33.8887 36.7365 34.2761 36.573C34.6635 36.4096 35.0082 36.1592 35.2834 35.8413C35.6266 35.4454 35.8505 34.9603 35.9292 34.4423C36.0078 33.9243 35.938 33.3946 35.7278 32.9146Z" fill="#027DB8"/>
<path d="M17.2093 35.1139C17.2085 35.1231 17.2072 35.1323 17.2063 35.1415C17.586 35.0632 17.9541 34.9366 18.3015 34.7647C17.8006 34.4574 17.3147 34.1296 16.8438 33.7812C17.1208 34.1676 17.2504 34.6403 17.2093 35.1139Z" fill="#027DB8"/>
<path d="M15.1228 34.1926L13.1775 34.4191C13.1534 34.4219 13.1293 34.4233 13.1051 34.4233H11.3018C11.0522 34.4234 10.8071 34.4905 10.5922 34.6176C10.3773 34.7447 10.2005 34.9271 10.0801 35.1459L9.85941 35.5467C9.82768 35.6044 9.81153 35.6693 9.81255 35.7351C9.81356 35.8009 9.83171 35.8654 9.8652 35.922C9.89869 35.9787 9.94637 36.0256 10.0035 36.0582C10.0607 36.0909 10.1254 36.108 10.1912 36.108H14.0946C14.6803 36.1077 15.2473 35.9019 15.6969 35.5266C15.822 35.4219 15.91 35.2797 15.9478 35.121C15.9856 34.9624 15.9713 34.7957 15.9068 34.6459C15.8424 34.4961 15.7313 34.371 15.5901 34.2893C15.4489 34.2077 15.2852 34.1737 15.1232 34.1926H15.1228Z" fill="#027DB8"/>
<path d="M10.7933 21.4964C10.8586 21.5834 10.9 21.686 10.9135 21.7939C10.9381 21.991 10.9668 22.1889 10.9994 22.3862L16.3458 21.3348L16.6806 19.9964H15.4826C14.6036 19.9964 13.7606 19.6472 13.1391 19.0257C12.5175 18.4042 12.1683 17.5612 12.1683 16.6822V15.0938L10.9163 16.0675C10.2095 16.6173 9.74676 17.4227 9.62789 18.3103C9.50902 19.1979 9.74349 20.0966 10.2808 20.813L10.7933 21.4964Z" fill="#027DB8"/>
<path d="M13.0671 33.1746L14.9765 32.952C15.3057 32.9137 15.6393 32.9574 15.9476 33.0792C15.1914 32.4512 14.4818 31.7692 13.8243 31.0386C13.5247 30.7058 13.2369 30.3572 12.9643 30.0001H6.69497C6.41725 30.0006 6.14448 30.0736 5.90357 30.2118C5.66266 30.3499 5.46194 30.5485 5.32122 30.788L5.21849 30.9636C5.01998 31.302 4.95364 31.7018 5.03221 32.0862C5.11079 32.4705 5.32873 32.8122 5.64412 33.0456C6.62746 33.7759 7.72508 34.3382 8.89232 34.7096L8.98318 34.5445C9.21148 34.1298 9.54694 33.7839 9.95453 33.543C10.3621 33.302 10.8269 33.1749 11.3004 33.1749L13.0671 33.1746Z" fill="#027DB8"/>
</svg>
