<svg width="40" height="40" viewBox="0 0 40 40" fill="none" xmlns="http://www.w3.org/2000/svg">
<path d="M5.21484 16.145C5.21484 16.7878 9.58632 19.3593 13.3149 19.3593C14.7522 19.4449 16.1835 19.1122 17.4357 18.4014C17.097 17.7691 16.8955 17.0726 16.8443 16.3571C16.825 16.2221 16.8121 16.0807 16.8057 15.9328C16.7928 15.7528 16.7864 15.5664 16.7864 15.3735C16.7864 15.2321 16.7928 15.0907 16.8057 14.9428C16.8404 14.5044 16.9135 14.0698 17.0243 13.6442C17.0178 13.6378 17.005 13.6378 16.9985 13.6314C16.6031 13.437 16.1868 13.2882 15.7578 13.1878C14.9565 13.0058 14.1365 12.9195 13.3149 12.9306C12.6777 12.934 12.0425 13.0007 11.4185 13.1299C8.24916 13.7342 5.21484 15.6114 5.21484 16.145Z" fill="#027DB8"/>
<path d="M9.16091 5.30936C8.78163 5.68865 9.60449 9.17297 11.4174 11.8473C12.0411 11.7179 12.6762 11.651 13.3132 11.6474C14.1348 11.6362 14.9548 11.7225 15.7561 11.9045C15.5741 11.1032 15.4878 10.2832 15.4989 9.46162C15.5023 8.82442 15.569 8.18914 15.6982 7.56517C13.0245 5.75293 9.5402 4.93007 9.16091 5.30936Z" fill="#027DB8"/>
<path d="M22.9576 11.9023C23.1396 11.1011 23.2259 10.2811 23.2148 9.45947C23.2114 8.82227 23.1447 8.18699 23.0155 7.56301C22.4112 4.39369 20.534 1.35938 20.0004 1.35938C19.4669 1.35938 17.5897 4.39369 16.9854 7.56301C16.8562 8.18699 16.7895 8.82227 16.7861 9.45947C16.775 10.2811 16.8613 11.1011 17.0433 11.9023C17.1975 11.9409 17.339 11.9795 17.4804 12.0245C17.9626 10.7773 18.824 9.07375 20.0004 9.07375C21.1769 9.07375 22.0383 10.7773 22.5205 12.0245C22.6619 11.9795 22.8033 11.9409 22.9576 11.9023Z" fill="#027DB8"/>
<path d="M24.2994 7.5664C24.4288 8.19014 24.4957 8.82521 24.4993 9.46221C24.5105 10.2838 24.4242 11.1038 24.2422 11.9051C25.0435 11.7231 25.8635 11.6368 26.6851 11.6479C27.3223 11.6513 27.9575 11.718 28.5815 11.8472C30.3944 9.17292 31.2173 5.6886 30.838 5.30931C30.4587 4.93002 26.9737 5.75353 24.2994 7.5664Z" fill="#027DB8"/>
<path d="M19.9989 10.3594C19.7096 10.3594 18.7582 11.8958 18.3082 13.6444C18.1598 14.2092 18.0799 14.7898 18.0703 15.3737C18.0703 16.8073 18.4046 17.7523 18.9125 18.2602C19.1986 18.5522 19.5901 18.7167 19.9989 18.7167C20.4077 18.7167 20.7993 18.5522 21.0853 18.2602C21.5932 17.7523 21.9275 16.8073 21.9275 15.3737C21.9183 14.7898 21.8385 14.2091 21.6896 13.6444C21.2396 11.8958 20.2882 10.3594 19.9989 10.3594Z" fill="#027DB8"/>
<path d="M28.5836 13.1299C27.9596 13.0007 27.3244 12.934 26.6872 12.9306C25.8656 12.9195 25.0455 13.0058 24.2443 13.1878C23.8182 13.2911 23.4044 13.4398 23.01 13.6314C22.9971 13.6314 22.9907 13.6378 22.9778 13.6442C23.0891 14.0697 23.1623 14.5043 23.1964 14.9428C23.2093 15.0842 23.2157 15.2321 23.2157 15.3735C23.2157 15.5728 23.2093 15.7592 23.1964 15.9328C23.19 16.0807 23.1707 16.2221 23.1578 16.3571C23.1066 17.0726 22.9051 17.7691 22.5664 18.4014C23.8186 19.1122 25.2499 19.4449 26.6872 19.3593C30.4158 19.3593 34.7873 16.7878 34.7873 16.145C34.7873 15.6114 31.7529 13.7342 28.5836 13.1299Z" fill="#027DB8"/>
<path d="M33.814 23.8363C33.041 22.0037 31.0835 20.97 29.1342 21.3649C27.1849 21.7597 25.7841 23.4738 25.7853 25.4627C25.7836 25.681 25.8017 25.8989 25.8393 26.1139L26.0276 26.8436V26.8539L26.0373 26.8828L27.4676 31.6638C28.0767 30.0368 29.3521 28.7477 30.9726 28.1213C32.593 27.4948 34.4039 27.5909 35.9489 28.3852L33.8275 23.862C33.8275 23.8555 33.8211 23.8465 33.814 23.8363Z" fill="#027DB8"/>
<path d="M2 36.7155C2 37.7806 2.86346 38.6441 3.92859 38.6441H29.4445C28.4309 37.8608 27.6888 36.779 27.3231 35.5513C27.2797 35.4885 27.2482 35.4184 27.2298 35.3443L27.1656 35.0814L24.9503 27.7154H7.78578C6.93475 27.7155 6.11834 27.3785 5.51518 26.7781C5.40698 26.6691 5.30645 26.5526 5.21432 26.4297L2 35.5397L2 36.7155ZM9.07151 36.0727H25.786C26.141 36.0727 26.4288 36.3605 26.4288 36.7155C26.4288 37.0706 26.141 37.3584 25.786 37.3584H9.07151C8.71646 37.3584 8.42864 37.0706 8.42864 36.7155C8.42864 36.3605 8.71646 36.0727 9.07151 36.0727ZM5.21432 36.0727H6.50005C6.85509 36.0727 7.14291 36.3605 7.14291 36.7155C7.14291 37.0706 6.85509 37.3584 6.50005 37.3584H5.21432C4.85928 37.3584 4.57146 37.0706 4.57146 36.7155C4.57146 36.3605 4.85928 36.0727 5.21432 36.0727Z" fill="#027DB8"/>
<path d="M38.0018 33.8211C38.0014 33.2142 37.8854 32.6129 37.6598 32.0494L37.602 31.9041C36.6167 29.6393 34.0782 28.4867 31.7247 29.2353C29.3711 29.984 27.9651 32.3915 28.4694 34.8092C28.9737 37.227 31.2249 38.8716 33.6815 38.617C36.1381 38.3623 38.0042 36.2909 38.0018 33.8211ZM29.6446 33.8211C29.6446 31.8684 31.2276 30.2854 33.1804 30.2854C35.1331 30.2854 36.7161 31.8684 36.7161 33.8211C36.7161 35.7739 35.1331 37.3569 33.1804 37.3569C31.2285 37.3548 29.6467 35.773 29.6446 33.8211Z" fill="#027DB8"/>
<path d="M33.1797 36.0782C34.4224 36.0782 35.4297 35.0708 35.4297 33.8281C35.4297 32.5855 34.4224 31.5781 33.1797 31.5781C31.9371 31.5781 30.9297 32.5855 30.9297 33.8281C30.9297 35.0708 31.9371 36.0782 33.1797 36.0782Z" fill="#027DB8"/>
</svg>
