<svg width="24" height="24" viewBox="0 0 24 24" fill="none" xmlns="http://www.w3.org/2000/svg">
<path d="M20.6795 9.4267C20.7557 9.04449 20.794 8.666 20.794 8.29269C20.794 5.28241 18.4299 2.83337 15.5242 2.83337C14.2165 2.83337 12.9628 3.33788 12 4.23552C11.0372 3.33788 9.78357 2.83337 8.47588 2.83337C5.5701 2.83337 3.20608 5.28241 3.20608 8.29269C3.20608 8.52606 3.22147 8.76312 3.25128 9.00095C2.46815 9.75162 1.99573 10.8541 2.00003 11.9602C2.00003 13.6966 2.91319 15.2936 4.38311 16.128L8.9017 18.6929C9.28088 19.3515 9.81631 19.899 10.4592 20.2835L11.5926 20.9615C12.2058 21.3395 13.1043 21.1934 13.5645 20.5387L14.6207 19.0662C15.024 18.5187 15.0182 17.6745 14.5618 17.1197C15.5885 16.3543 16.4956 15.5924 17.2685 14.8451L17.8691 15.2207C18.7115 15.7496 19.7922 15.8698 20.6828 15.3581C21.5199 14.8702 22 13.9132 22 12.7324C22 11.4854 21.5228 10.3006 20.6795 9.4267ZM15.5242 4.04739C17.7838 4.04739 19.6221 5.95182 19.6221 8.29269C19.6221 8.96509 19.4601 9.67052 19.1396 10.3961L13.5534 7.37793C13.5252 7.02319 13.4501 6.46956 13.2511 5.91795C13.1435 5.61991 12.9562 5.37338 12.7178 5.20091C13.4749 4.46344 14.4774 4.04739 15.5242 4.04739ZM13.6801 18.3422L12.6239 19.8146C12.5204 19.959 12.3289 20 12.1786 19.9101L11.0451 19.2322C10.5086 18.9198 10.0419 18.385 9.7615 17.7966L4.94624 15.0633C3.85178 14.4421 3.1719 13.253 3.1719 11.9577C3.16975 11.4071 3.33643 10.8584 3.62995 10.3995C4.08647 11.4923 4.87377 12.4456 5.85221 13.0569L10.8546 16.2054C11.2973 15.955 11.4302 15.7794 12.4545 15.5372C12.7281 15.5387 12.8492 15.6818 12.7611 15.9899L12.1983 16.9998L13.5766 17.8243C13.7478 17.9659 13.8038 18.0865 13.6801 18.3422ZM13.9554 16.0762C14.1321 15.0926 13.2188 14.1502 12.2611 14.3398C11.696 14.4377 11.1921 14.6498 10.882 14.8021L6.45994 12.0189L6.45819 12.0178C5.45393 11.3907 4.7053 10.3061 4.4553 9.11616C4.40405 8.83888 4.37796 8.56188 4.37796 8.29265C4.37796 5.95178 6.21631 4.04735 8.47588 4.04735C9.47709 4.04735 10.4378 4.42799 11.182 5.10642C10.9603 5.22972 10.7695 5.4134 10.6305 5.64621L10.2664 5.42846C9.53646 4.9645 8.45889 5.31296 8.12018 6.16407L7.41733 7.84779C7.11217 8.57871 7.38408 9.43018 8.04983 9.82834L9.1833 10.5062C9.8265 10.891 10.5522 11.0976 11.2928 11.1083L16.2229 14.1912C15.5615 14.8101 14.8029 15.4406 13.9554 16.0762ZM20.1082 14.3C19.6454 14.5697 19.0206 14.525 18.4761 14.1823L11.6102 9.88884C11.0083 9.934 10.3141 9.78613 9.7692 9.45499L8.63572 8.77704C8.48533 8.68712 8.42393 8.49482 8.49287 8.32976L9.19572 6.646C9.32295 6.44965 9.39756 6.38802 9.68045 6.47988L11.0588 7.30432L11.6216 6.29446C11.7903 6.07776 11.9949 6.07691 12.1534 6.3431C12.4654 7.3672 12.3811 7.61316 12.3946 8.12111L19.6269 12.0287C19.8337 11.6455 20.072 11.2207 20.2533 10.79C20.6245 11.3573 20.828 12.0317 20.828 12.7324C20.8281 13.4727 20.5725 14.0294 20.1082 14.3Z" fill="#007170"/>
</svg>
