<svg xmlns="http://www.w3.org/2000/svg" width="41" height="104" fill="none"><g clip-path="url(#a)"><mask id="b" fill="#fff"><path fill-rule="evenodd" d="m41.61 98.081-.23.37a14.118 14.118 0 0 0 1.093 5.866c.722 1.819 1.938 3.832 3.956 5.818 1.754 1.862 3.908 3.793 6.439 5.003.843.404 1.938.788 3.069 1.058 2.214.784 3.792.882 3.967.378.352-1.346-.709-5.161-1.185-6.326-1.886-4.58-5.322-8.362-10.09-10.538-3.431-1.58-6.364-1.473-7.03-1.668l.01.04ZM28.755 24.677c-.677-2.333-1.31-6.232.511-10.014.561-1.187 1.318-2.358 2.125-3.5 1.327-2.15 3.819-4.584 5.84-6.42 1.424-1.313 2.398-2.117 2.398-2.117.865 1.532 1.488 5.39 1.258 7.756-.728 7.212-4.496 13.484-11.334 16.431-.33-.57-.605-1.343-.798-2.136Zm-7.122 16.245s-.473-.284-1.102-1.201c-1.13-1.489-2.096-3.521-2.367-4.63a27.608 27.608 0 0 1-.75-4.984c-.42-3.026.105-5.757.997-8.032l.108-.342c.843-2.473 1.73-3.634 2.975-4.987.957-1.22 1.695-1.862 1.695-1.862 1.47 1.049 3.157 4.732 3.528 5.901.61 2.057 1.046 3.84 1.009 6.39-.015 2.292-.456 4.667-1.399 7.08-.789 1.999-2.895 5.578-4.653 6.657l-.04.01ZM18.796 56.92s-6.184-2.483-8.894-9.822c-1.372-3.698-.893-7.573-.05-10.487l.056-.203c.22-1.019 1.112-2.853 1.208-3.507l.701-1.137c6.608 3.955 9.731 11.068 9.222 17.87-.127 1.92-.854 5.477-2.228 7.261l-.015.025Zm-12.31-5.505s-2.174 6.956 3.532 13.922c1.263 1.771 2.728 3.325 4.212 4.517 1.583 1.252 5.491 3.218 7.243 2.98.577-2.429.166-4.806-.128-6.708-1.064-6.355-7.292-13.195-14.808-14.68l-.05-.03ZM8 72.15c-.016.025-.827 6.375 7.678 11.295 2.088 1.486 4.347 2.804 6.733 3.42l.065.005c.69.21 1.27.32 1.872.341 1.753.203 3.058-.031 4.747-.002.097-1.43-1.149-4.612-2.153-6.194-1.29-2.058-2.63-3.706-4.84-5.435-4.572-3.547-9.787-4.502-14.129-3.885 0 0 .018.247.027.455Zm27.062 27.8c-1.972.207-4.347.072-7.066-.777-2.486-.675-5.22-1.668-7.476-3.323-.752-.551-1.603-1.331-2.367-2.195-1.726-1.574-2.542-2.908-2.168-3.293 1.05-.928 4.977-1.759 6.247-1.88 4.996-.46 9.988.8 14.147 3.966 3.003 2.27 4.26 4.883 4.741 5.374l-.228.371a14.429 14.429 0 0 1-5.815 1.732l-.015.025ZM113.2 75.24c2.415-.484 6.22-1.726 8.79-5.061.811-1.038 1.518-2.239 2.175-3.47 1.327-2.15 2.372-5.45 3.096-8.062.527-1.85.804-3.072.804-3.072-1.78-.05-5.545 1.183-7.571 2.475-6.164 3.959-10.081 10.142-9.587 17.475.666.027 1.489-.09 2.293-.285Zm-11.361 13.708s.474.283 1.591.41c1.862.302 4.139.21 5.264-.065a28.733 28.733 0 0 0 4.836-1.64c2.921-1.027 5.141-2.744 6.781-4.572l.258-.251c1.841-1.877 2.478-3.187 3.124-4.898.659-1.4.898-2.34.898-2.34-1.623-.801-5.72-.58-6.945-.365-2.134.415-3.942.856-6.223 2.062-2.059 1.07-3.997 2.55-5.738 4.485-1.437 1.61-3.692 5.1-3.855 7.134l.009.04Zm-13.111 9.85s5.086 4.263 12.95 3.249c3.964-.504 7.236-2.708 9.474-4.786l.157-.143c.818-.661 2.06-2.287 2.604-2.672l.702-1.136c-6.608-3.954-14.458-3.407-20.353.172-1.673.995-4.544 3.27-5.52 5.292l-.014.025Zm10.632 8.224s-5.267 5.105-14.175 3.328c-2.178-.288-4.253-.853-6.011-1.601-1.858-.807-5.43-3.317-6.023-4.957 1.923-1.624 4.255-2.36 6.105-2.979 6.218-1.998 15.252.294 20.054 6.179l.05.03Zm-42.676-3.27 23.307 11.475c.191-.088.422-.187.422-.187-1.444-4.078-4.732-8.211-10.01-10.558-2.577-1.136-4.679-1.547-7.129-1.727-1.888-.149-5.345.252-6.575.972l-.015.025Zm23.307 11.475c-.016.025-5.365 3.659-13.717-1.508-2.301-1.14-4.53-2.507-6.184-4.309l-.035-.055c-.507-.506-.874-.962-1.17-1.478-.99-1.439-1.38-2.687-2.185-4.15" clip-rule="evenodd"/></mask><path fill="#3E3E46" fill-rule="evenodd" d="m41.61 98.081-.23.37a14.118 14.118 0 0 0 1.093 5.866c.722 1.819 1.938 3.832 3.956 5.818 1.754 1.862 3.908 3.793 6.439 5.003.843.404 1.938.788 3.069 1.058 2.214.784 3.792.882 3.967.378.352-1.346-.709-5.161-1.185-6.326-1.886-4.58-5.322-8.362-10.09-10.538-3.431-1.58-6.364-1.473-7.03-1.668l.01.04ZM28.755 24.677c-.677-2.333-1.31-6.232.511-10.014.561-1.187 1.318-2.358 2.125-3.5 1.327-2.15 3.819-4.584 5.84-6.42 1.424-1.313 2.398-2.117 2.398-2.117.865 1.532 1.488 5.39 1.258 7.756-.728 7.212-4.496 13.484-11.334 16.431-.33-.57-.605-1.343-.798-2.136Zm-7.122 16.245s-.473-.284-1.102-1.201c-1.13-1.489-2.096-3.521-2.367-4.63a27.608 27.608 0 0 1-.75-4.984c-.42-3.026.105-5.757.997-8.032l.108-.342c.843-2.473 1.73-3.634 2.975-4.987.957-1.22 1.695-1.862 1.695-1.862 1.47 1.049 3.157 4.732 3.528 5.901.61 2.057 1.046 3.84 1.009 6.39-.015 2.292-.456 4.667-1.399 7.08-.789 1.999-2.895 5.578-4.653 6.657l-.04.01ZM18.796 56.92s-6.184-2.483-8.894-9.822c-1.372-3.698-.893-7.573-.05-10.487l.056-.203c.22-1.019 1.112-2.853 1.208-3.507l.701-1.137c6.608 3.955 9.731 11.068 9.222 17.87-.127 1.92-.854 5.477-2.228 7.261l-.015.025Zm-12.31-5.505s-2.174 6.956 3.532 13.922c1.263 1.771 2.728 3.325 4.212 4.517 1.583 1.252 5.491 3.218 7.243 2.98.577-2.429.166-4.806-.128-6.708-1.064-6.355-7.292-13.195-14.808-14.68l-.05-.03ZM8 72.15c-.016.025-.827 6.375 7.678 11.295 2.088 1.486 4.347 2.804 6.733 3.42l.065.005c.69.21 1.27.32 1.872.341 1.753.203 3.058-.031 4.747-.002.097-1.43-1.149-4.612-2.153-6.194-1.29-2.058-2.63-3.706-4.84-5.435-4.572-3.547-9.787-4.502-14.129-3.885 0 0 .018.247.027.455Zm27.062 27.8c-1.972.207-4.347.072-7.066-.777-2.486-.675-5.22-1.668-7.476-3.323-.752-.551-1.603-1.331-2.367-2.195-1.726-1.574-2.542-2.908-2.168-3.293 1.05-.928 4.977-1.759 6.247-1.88 4.996-.46 9.988.8 14.147 3.966 3.003 2.27 4.26 4.883 4.741 5.374l-.228.371a14.429 14.429 0 0 1-5.815 1.732l-.015.025ZM113.2 75.24c2.415-.484 6.22-1.726 8.79-5.061.811-1.038 1.518-2.239 2.175-3.47 1.327-2.15 2.372-5.45 3.096-8.062.527-1.85.804-3.072.804-3.072-1.78-.05-5.545 1.183-7.571 2.475-6.164 3.959-10.081 10.142-9.587 17.475.666.027 1.489-.09 2.293-.285Zm-11.361 13.708s.474.283 1.591.41c1.862.302 4.139.21 5.264-.065a28.733 28.733 0 0 0 4.836-1.64c2.921-1.027 5.141-2.744 6.781-4.572l.258-.251c1.841-1.877 2.478-3.187 3.124-4.898.659-1.4.898-2.34.898-2.34-1.623-.801-5.72-.58-6.945-.365-2.134.415-3.942.856-6.223 2.062-2.059 1.07-3.997 2.55-5.738 4.485-1.437 1.61-3.692 5.1-3.855 7.134l.009.04Zm-13.111 9.85s5.086 4.263 12.95 3.249c3.964-.504 7.236-2.708 9.474-4.786l.157-.143c.818-.661 2.06-2.287 2.604-2.672l.702-1.136c-6.608-3.954-14.458-3.407-20.353.172-1.673.995-4.544 3.27-5.52 5.292l-.014.025Zm10.632 8.224s-5.267 5.105-14.175 3.328c-2.178-.288-4.253-.853-6.011-1.601-1.858-.807-5.43-3.317-6.023-4.957 1.923-1.624 4.255-2.36 6.105-2.979 6.218-1.998 15.252.294 20.054 6.179l.05.03Zm-42.676-3.27 23.307 11.475c.191-.088.422-.187.422-.187-1.444-4.078-4.732-8.211-10.01-10.558-2.577-1.136-4.679-1.547-7.129-1.727-1.888-.149-5.345.252-6.575.972l-.015.025Zm23.307 11.475c-.016.025-5.365 3.659-13.717-1.508-2.301-1.14-4.53-2.507-6.184-4.309l-.035-.055c-.507-.506-.874-.962-1.17-1.478-.99-1.439-1.38-2.687-2.185-4.15" clip-rule="evenodd"/><path fill="#1A1A1D" d="m41.61 98.081.488-.12.05.2-.11.177-.429-.257Zm-.23.37-.502-.01.004-.132.07-.114.429.257Zm1.093 5.866.466-.191.003.007-.468.184Zm3.956 5.818.356-.353.007.007.006.006-.369.34Zm6.439 5.003.221-.447-.221.447Zm3.069 1.058.12-.483.027.007.025.008-.172.468Zm3.967.378.486.121-.004.019-.007.018-.475-.158Zm-1.185-6.326.466-.19v.001l-.466.189ZM48.63 99.71l-.214.451-.002-.001.215-.45Zm-7.03-1.668-.488.12-.206-.843.84.246-.145.477ZM28.757 24.677l.483-.14.003.01.003.01-.49.12Zm.511-10.014.455.208-.001.003-.454-.211Zm2.125-3.5.43.257-.01.013-.008.013-.412-.283Zm5.84-6.42.341.362-.002.003-.34-.365Zm2.398-2.117-.32-.381.466-.385.294.522-.44.244Zm1.258 7.756.5.045v.002l-.5-.047ZM29.554 26.813l.2.456-.414.178-.222-.384.436-.25Zm-7.92 14.109.118.482-.203.05-.177-.107.262-.425Zm-1.102-1.201.403-.3.007.01.007.01-.417.28Zm-3.116-9.614.498-.07.003.02v.019l-.501.031Zm.995-8.032.48.145-.005.016-.006.015-.468-.176Zm.109-.342-.48-.146.003-.01.477.156Zm2.975-4.987.396.303-.012.015-.013.015-.371-.333Zm1.695-1.862-.332-.372.303-.263.325.231-.296.404Zm3.528 5.901.48-.151.003.009-.483.142Zm1.009 6.39h-.503v-.004l.503.004Zm-1.399 7.08.47.177-.001.002-.469-.178Zm-4.653 6.657.263.422-.068.042-.078.019-.117-.483Zm-2.879 16.009.43.257-.225.363-.396-.16.191-.46Zm-8.894-9.822.473-.174-.473.174Zm-.05-10.487.484.13-.001.004-.484-.134Zm.056-.203.492.1-.003.016-.004.014-.485-.13Zm1.208-3.507-.498-.068.015-.101.054-.087.429.256Zm.701-1.137-.429-.256.263-.426.429.257-.263.425Zm9.222 17.87-.502-.03V49.6l.502.034Zm-2.228 7.261-.428-.257.013-.022.016-.02.4.299Zm-12.324-5.48-.48-.144.19-.611.552.33-.262.425Zm3.53 13.922.392-.314.01.013.01.013-.412.288Zm4.213 4.517-.316.389-.003-.002.319-.387Zm7.243 2.98.49.111-.08.335-.345.047-.065-.492Zm-.128-6.708.496-.084v.005l-.497.079ZM6.537 51.447l-.102.486-.086-.017-.075-.044.263-.426ZM8 72.15l.502-.022.006.15-.08.129L8 72.15Zm7.678 11.295.256-.43.02.012.02.014-.296.404Zm6.733 3.42-.043.495-.044-.004-.043-.01.13-.482Zm.065.005.043-.496.055.004.053.016-.15.475Zm1.872.341.021-.496h.02l.02.003-.061.493Zm4.747-.002.502.03-.033.476-.481-.009.012-.497Zm-2.153-6.194-.427.266v-.003l.427-.263Zm-4.84-5.435.311-.391h.002l-.314.391ZM7.972 71.695l-.501.038-.034-.464.467-.066.068.492ZM35.062 99.95l.429.256-.13.212-.249.026-.05-.494Zm-7.066-.777.136-.48.009.003.009.003-.154.474ZM20.52 95.85l.301-.4-.301.4Zm-2.367-2.195.342-.366.02.018.017.02-.38.328Zm-2.168-3.293-.362-.343.014-.014.014-.012.334.369Zm6.247-1.88-.045-.494h.001l.044.495Zm14.147 3.966-.307.395-.002-.001.309-.394Zm4.741 5.374.363-.347.27.275-.204.33-.429-.258Zm-.228.371.429.257-.07.113-.118.065-.242-.435Zm-5.815 1.732-.429-.257.134-.217.256-.021.04.495ZM113.2 75.24l-.118-.483.01-.002.011-.002.097.487Zm8.79-5.061-.399-.3.002-.002.397.302Zm2.175-3.47-.445-.23.008-.013.008-.014.429.257Zm3.096-8.062-.485-.128.001-.003.484.132Zm.804-3.072.017-.497.606.017-.133.586-.49-.106Zm-7.571 2.475-.272-.416.001-.001.271.417Zm-9.587 17.475-.024.497-.449-.018-.029-.443.502-.036Zm-9.068 13.423-.262.425-.178-.106-.049-.2.489-.12Zm1.591.41.061-.494.012.001.012.003-.085.49Zm10.1-1.705-.203-.454.019-.008.018-.007.166.469Zm6.781-4.572-.375-.328.011-.012.012-.012.352.353Zm.258-.251.36.344-.008.008-.352-.352Zm3.124-4.898-.471-.171.007-.019.009-.017.455.207Zm.898-2.34.227-.444.358.177-.098.385-.487-.118Zm-6.945-.365-.094-.488.009-.001.085.489Zm-6.223 2.062.235.438-.003.002-.232-.44Zm-5.738 4.485-.376-.327.001-.002.375.33Zm-3.855 7.134-.489.12-.019-.077.006-.08.502.037Zm-13.102 9.89-.327.38-.327-.273.225-.363.429.257Zm12.95 3.249-.062-.492h.001l.061.492Zm9.474-4.786-.343-.361.003-.003.34.364Zm.157-.143-.34-.364.011-.01.012-.01.317.384Zm2.604-2.672.429.257-.054.087-.084.06-.291-.404Zm.702-1.136.262-.426.429.257-.262.425-.429-.256Zm-20.353.172.261.423-.004.002-.257-.425Zm-5.52 5.292.455.212-.011.023-.014.022-.43-.257Zm10.618 8.248.262-.426.552.331-.463.449-.351-.354Zm-14.175 3.328.07-.493.017.002.016.004-.103.487Zm-6.011-1.601-.202.457-.003-.002.205-.455Zm-6.023-4.957-.474.169-.117-.323.265-.223.326.377Zm6.105-2.979-.158-.471.006-.002.152.473Zm20.054 6.179-.263.426-.075-.045-.055-.068.393-.313Zm-42.626-3.24-.226.445-.488-.24.285-.462.43.257Zm23.73 11.288.474-.166.156.438-.434.185-.197-.457Zm-10.011-10.558.207-.454.002.001-.21.453Zm-7.129-1.727-.04.495h-.003l.043-.495Zm-6.575.972-.428-.257.065-.107.11-.063.254.427Zm9.575 9.992.228-.444.02.01.02.013-.268.421Zm-6.184-4.309-.374.335-.03-.032-.023-.037.427-.266Zm-.035-.055.359-.35.039.038.029.047-.427.265Zm-1.17-1.478.416-.281.012.016.01.017-.438.248Zm-17.276-9.796.43.257-.23.37-.428-.256-.43-.257.23-.37.428.256Zm-.228.37.502.012c-.055 1.958.3 3.837 1.056 5.663l-.465.191-.466.19a14.606 14.606 0 0 1-1.13-6.066l.503.01Zm1.093 5.866.468-.184c.697 1.757 1.875 3.712 3.843 5.649l-.356.353-.356.353c-2.068-2.035-3.322-4.106-4.068-5.987l.468-.184Zm3.955 5.818.37-.34c1.736 1.844 3.84 3.725 6.29 4.896l-.221.447-.221.448c-2.613-1.249-4.817-3.232-6.587-5.111l.369-.34Zm6.439 5.003.221-.447c.808.386 1.868.759 2.969 1.022l-.121.483-.122.483c-1.16-.277-2.289-.672-3.168-1.093l.22-.448Zm3.069 1.058.172-.468c1.083.384 1.987.59 2.622.645.322.027.543.013.675-.018.15-.036.063-.059.022.06l.476.159.475.158c-.128.372-.478.525-.742.589-.283.067-.627.074-.999.042-.75-.064-1.743-.299-2.874-.699l.173-.468Zm3.967.378-.488-.122c.065-.247.074-.664.018-1.218a15.998 15.998 0 0 0-.303-1.782c-.277-1.251-.654-2.467-.878-3.015l.466-.189.467-.189c.252.617.643 1.89.928 3.175.142.645.26 1.304.32 1.895.059.575.068 1.14-.044 1.566l-.486-.121Zm-1.185-6.326-.466.19c-1.841-4.472-5.191-8.156-9.838-10.277l.213-.451.214-.452c4.89 2.232 8.413 6.112 10.343 10.8l-.466.19ZM48.63 99.71l-.215.45a16.669 16.669 0 0 0-4.419-1.313 26.777 26.777 0 0 0-1.553-.19c-.39-.04-.764-.073-.988-.139l.146-.476.145-.477c.109.032.351.058.805.103.423.042.971.098 1.609.198 1.277.2 2.915.579 4.684 1.393l-.215.45Zm-7.03-1.668.49-.12.01.04-.49.12-.489.119-.01-.04.49-.12ZM28.757 24.677l-.484.14c-.69-2.38-1.359-6.421.541-10.365l.454.21.454.212c-1.744 3.621-1.145 7.376-.482 9.664l-.483.14Zm.511-10.014-.456-.208c.58-1.226 1.356-2.424 2.17-3.574l.411.282.412.283c-.8 1.133-1.538 2.277-2.082 3.425l-.455-.208Zm2.125-3.5-.429-.256c1.368-2.218 3.911-4.695 5.93-6.529l.338.365.34.365c-2.024 1.839-4.465 4.23-5.75 6.312l-.429-.257Zm5.84-6.42-.342-.362a76.663 76.663 0 0 1 2.24-1.986 24.533 24.533 0 0 1 .167-.14l.009-.007a.04.04 0 0 0 .002-.002h.001v-.001l.322.38.32.381-.002.002-.008.007a75.791 75.791 0 0 0-2.368 2.09l-.342-.362Zm2.398-2.117.44-.244c.477.844.86 2.262 1.096 3.728.24 1.477.343 3.078.223 4.317l-.501-.045-.5-.044c.109-1.127.016-2.638-.215-4.065-.233-1.439-.594-2.716-.982-3.403l.44-.244Zm1.258 7.756.5.046c-.742 7.353-4.596 13.807-11.635 16.84l-.199-.455-.198-.455c6.636-2.86 10.317-8.951 11.031-16.022l.5.046ZM29.554 26.813l-.436.25c-.364-.626-.652-1.449-.851-2.266l.489-.12.489-.12c.187.769.447 1.493.746 2.007l-.437.25Zm-7.92 14.109-.262.425h-.002l-.001-.002c-.001 0-.003 0-.004-.002a.384.384 0 0 1-.037-.024 3.304 3.304 0 0 1-.357-.293 6.268 6.268 0 0 1-.856-1.025l.417-.28.417-.28c.295.43.548.703.718.864a2.35 2.35 0 0 0 .234.194l-.002-.001-.001-.001-.264.425Zm-1.102-1.201-.403.3c-1.163-1.532-2.163-3.625-2.453-4.811l.49-.12.488-.12c.253 1.033 1.183 3.006 2.28 4.451l-.402.3Zm-2.367-4.63-.489.119a28.1 28.1 0 0 1-.762-5.07l.502-.033.502-.031c.099 1.688.346 3.298.736 4.895l-.489.12Zm-.75-4.984-.498.07c-.434-3.123.109-5.94 1.025-8.28l.47.178.468.177c-.866 2.21-1.373 4.856-.966 7.785l-.498.07Zm.997-8.032-.48-.146.108-.341.48.145.48.146-.109.341-.48-.145Zm.108-.342-.477-.156c.87-2.553 1.8-3.773 3.08-5.164l.372.333.37.333c-1.208 1.315-2.053 2.417-2.869 4.81l-.476-.156Zm2.975-4.987-.397-.303c.49-.626.927-1.105 1.242-1.429a11.962 11.962 0 0 1 .515-.499l.002-.002h.001v-.001l.332.372.33.372h.001l-.005.004a2.298 2.298 0 0 0-.11.102c-.08.074-.196.187-.343.338-.293.302-.705.754-1.172 1.349l-.396-.303Zm1.695-1.862.296-.404c.432.309.85.786 1.232 1.313.387.533.759 1.148 1.091 1.759.663 1.216 1.192 2.459 1.39 3.082l-.48.151-.48.152c-.174-.547-.674-1.73-1.316-2.91a15.454 15.454 0 0 0-1.023-1.652c-.36-.495-.704-.871-1.006-1.088l.296-.403Zm3.528 5.901.483-.142c.615 2.076 1.066 3.915 1.029 6.536l-.503-.004-.503-.004c.035-2.478-.385-4.207-.988-6.243l.482-.143Zm1.009 6.39h.503c-.015 2.354-.469 4.789-1.433 7.257l-.469-.176-.47-.177c.922-2.358 1.352-4.674 1.366-6.904h.503Zm-1.399 7.08.469.179c-.41 1.036-1.15 2.46-2.011 3.764-.85 1.287-1.867 2.534-2.848 3.136l-.263-.422-.264-.422c.778-.477 1.693-1.56 2.533-2.831.829-1.255 1.536-2.619 1.916-3.581l.468.178Zm-4.653 6.657.117.483-.04.01-.117-.483-.118-.482.04-.01.118.482Zm-2.879 16.009-.192.46h-.002l-.005-.003-.017-.007-.059-.025a12.682 12.682 0 0 1-.983-.495 17.41 17.41 0 0 1-2.495-1.705 18.274 18.274 0 0 1-5.613-7.875l.472-.172.473-.173a17.289 17.289 0 0 0 5.312 7.452c.917.748 1.75 1.272 2.35 1.607a11.681 11.681 0 0 0 .894.451l.046.02.01.004h.002l-.193.46Zm-8.894-9.822-.472.173c-1.423-3.834-.92-7.827-.062-10.794l.483.134.484.134c-.827 2.86-1.282 6.619.04 10.179l-.473.174Zm-.05-10.487-.485-.13.056-.203.485.13.485.13-.057.203-.485-.13Zm.056-.203-.492-.1c.12-.558.417-1.315.674-1.968.132-.337.256-.651.354-.922.1-.281.158-.476.174-.585l.498.068.498.069a4.434 4.434 0 0 1-.223.775c-.103.289-.234.619-.364.95-.268.682-.528 1.352-.627 1.814l-.492-.1Zm1.208-3.507-.43-.256.702-1.137.43.256.428.257-.701 1.137-.429-.257Zm.701-1.137.263-.425c6.783 4.058 9.982 11.357 9.46 18.328l-.501-.034-.502-.034c.497-6.632-2.549-13.56-8.982-17.409l.262-.426Zm9.222 17.87.502.028c-.066.995-.285 2.397-.663 3.78-.374 1.373-.92 2.783-1.667 3.752l-.4-.299-.4-.3c.628-.813 1.132-2.074 1.496-3.406.361-1.322.569-2.66.63-3.585l.502.03Zm-2.228 7.261.43.257-.016.025-.429-.257-.429-.257.015-.025.43.257Zm-12.324-5.48.48.144v.002l-.003.01-.015.052a10.411 10.411 0 0 0-.215 1.058 14.35 14.35 0 0 0-.12 3.048c.165 2.525 1.018 5.903 3.795 9.294l-.392.314-.391.314c-2.928-3.575-3.84-7.158-4.015-9.852a15.333 15.333 0 0 1 .128-3.258 11.393 11.393 0 0 1 .24-1.174l.019-.068.006-.019.001-.005.001-.002v-.001l.48.143Zm3.53 13.922.412-.288c1.24 1.737 2.674 3.257 4.12 4.419l-.32.386-.318.386c-1.522-1.222-3.018-2.81-4.305-4.615l.412-.288Zm4.213 4.517.316-.389c.75.593 2.083 1.378 3.45 1.985.682.302 1.359.554 1.963.716.616.164 1.11.222 1.448.176l.066.493.065.492c-.538.073-1.188-.026-1.847-.202-.67-.18-1.398-.452-2.111-.768-1.42-.63-2.832-1.455-3.666-2.114l.316-.389Zm7.243 2.98-.49-.11c.551-2.32.162-4.6-.136-6.52l.497-.078.498-.078c.291 1.882.724 4.358.12 6.897l-.49-.11Zm-.128-6.708-.497.084c-.512-3.06-2.277-6.27-4.85-8.904-2.572-2.631-5.921-4.654-9.563-5.373l.102-.488.101-.487c3.875.766 7.398 2.906 10.085 5.655 2.685 2.747 4.566 6.133 5.118 9.429l-.497.084ZM6.537 51.447l-.263.425-.05-.03.263-.426.262-.425.05.03-.262.425ZM8 72.15l.429.257a.901.901 0 0 0 .054-.123.474.474 0 0 0 .011-.048v-.003l-.003.038c-.004.04-.009.102-.012.185-.006.168-.006.418.02.735a9.24 9.24 0 0 0 .614 2.59c.817 2.097 2.663 4.829 6.821 7.234l-.256.43-.256.429c-4.347-2.514-6.347-5.418-7.248-7.731a10.22 10.22 0 0 1-.679-2.867 7.242 7.242 0 0 1-.021-.85 4.273 4.273 0 0 1 .028-.35.603.603 0 0 1 .025-.094.899.899 0 0 1 .043-.088l.43.256Zm7.678 11.295.296-.404c2.069 1.472 4.27 2.75 6.567 3.343l-.13.48-.13.481c-2.474-.638-4.792-1.997-6.899-3.496l.296-.404Zm6.733 3.42.043-.496.065.005-.043.496-.043.495-.065-.005.043-.496Zm.065.005.15-.476c.66.201 1.197.301 1.743.32l-.021.497-.021.497c-.657-.023-1.282-.144-2.002-.364l.151-.474Zm1.872.341.062-.493c.838.097 1.573.09 2.319.06.739-.028 1.514-.08 2.378-.066l-.012.497-.012.497c-.825-.014-1.547.036-2.321.066-.767.03-1.561.039-2.476-.067l.062-.494Zm4.747-.002-.502-.03c.041-.603-.21-1.67-.635-2.84-.416-1.149-.965-2.305-1.442-3.058l.426-.266.427-.266c.526.829 1.103 2.054 1.536 3.25.426 1.174.748 2.413.692 3.24l-.502-.03Zm-2.153-6.194-.428.263c-1.266-2.019-2.57-3.62-4.727-5.307l.314-.39.314-.391c2.264 1.77 3.64 3.464 4.955 5.561l-.428.264Zm-4.84-5.435-.313.392c-4.457-3.459-9.533-4.384-13.747-3.785l-.069-.492-.068-.492c4.468-.635 9.822.35 14.508 3.986l-.312.391ZM7.972 71.695l.502-.039V71.67a13.651 13.651 0 0 1 .027.459L8 72.15l-.503.023a13.539 13.539 0 0 0-.023-.4l-.002-.03V71.734l.501-.04ZM35.062 99.95l.05.494c-2.04.214-4.484.073-7.27-.797l.154-.474.154-.474c2.652.828 4.957.957 6.862.757l.05.494Zm-7.066-.777-.137.48c-2.509-.682-5.311-1.695-7.64-3.403l.3-.4.302-.4c2.184 1.602 4.849 2.575 7.31 3.244l-.136.479ZM20.52 95.85l-.302.4c-.784-.575-1.66-1.38-2.445-2.266l.38-.329.379-.328c.744.84 1.57 1.595 2.29 2.124l-.302.4Zm-2.367-2.195-.343.367c-.881-.804-1.55-1.564-1.954-2.19-.2-.31-.352-.614-.421-.892-.065-.26-.088-.637.188-.92l.362.342.362.343c.088-.091.028-.156.064-.009.033.13.122.33.295.598.342.53.944 1.225 1.789 1.995l-.343.366Zm-2.168-3.293-.334-.37c.333-.294.846-.546 1.392-.76.56-.22 1.208-.42 1.855-.592 1.289-.344 2.617-.588 3.289-.652l.045.495.045.495c-.598.056-1.868.287-3.123.621-.624.167-1.233.356-1.745.557-.526.206-.898.406-1.09.576l-.334-.37Zm6.247-1.88-.044-.494c5.115-.472 10.234.82 14.5 4.065l-.31.395-.308.394c-4.052-3.084-8.916-4.315-13.794-3.864l-.044-.495Zm14.147 3.966.307-.396a17.324 17.324 0 0 1 3.414 3.453c.384.51.686.965.92 1.315.249.375.384.576.462.655l-.362.347-.362.347c-.163-.165-.365-.476-.58-.8a26.06 26.06 0 0 0-.888-1.269 16.338 16.338 0 0 0-3.218-3.257l.307-.395Zm4.741 5.374.43.257-.23.37-.428-.256-.43-.257.23-.37.428.256Zm-.228.371.24.435a14.933 14.933 0 0 1-6.016 1.792l-.039-.495-.039-.495a13.917 13.917 0 0 0 5.612-1.671l.242.434Zm-5.815 1.732.43.257-.016.024-.43-.256-.428-.257.015-.025.43.257ZM113.2 75.24l-.097-.487c2.367-.475 6.027-1.681 8.488-4.874l.399.3.4.3c-2.68 3.477-6.63 4.754-9.093 5.248l-.097-.487Zm8.79-5.061-.397-.302c.784-1.004 1.475-2.176 2.127-3.397l.445.23.445.229c-.662 1.24-1.385 2.47-2.223 3.542l-.397-.302Zm2.175-3.47-.429-.257c1.285-2.082 2.315-5.317 3.04-7.933l.485.129.486.128c-.724 2.608-1.784 5.972-3.153 8.19l-.429-.257Zm3.096-8.062-.484-.131a71.142 71.142 0 0 0 .747-2.832l.037-.16.01-.041.002-.01.001-.003.491.105.49.105v.005a.074.074 0 0 0-.003.01l-.01.044-.039.167c-.035.145-.086.358-.154.628a75.254 75.254 0 0 1-.603 2.245l-.485-.132Zm.804-3.072-.018.497c-.798-.022-2.116.25-3.52.71-1.392.455-2.797 1.07-3.762 1.685l-.271-.417-.271-.417c1.062-.677 2.552-1.324 3.994-1.795 1.43-.468 2.884-.787 3.865-.76l-.017.497Zm-7.571 2.475.273.416c-6.044 3.881-9.838 9.906-9.359 17.023l-.501.036-.502.036c-.509-7.55 3.532-13.891 9.817-17.927l.272.416Zm-9.587 17.475.023-.496c.601.024 1.373-.082 2.152-.272l.118.483.117.482c-.828.202-1.702.33-2.434.3l.024-.497Zm-9.068 13.423.263-.426h-.001l-.001-.001-.002-.002h-.002l.005.002.045.022c.046.021.123.054.235.092.223.075.586.17 1.11.23l-.061.493-.06.494a6.44 6.44 0 0 1-1.319-.276 3.322 3.322 0 0 1-.428-.177l-.029-.016-.01-.006-.004-.002-.002-.001h-.001l.262-.426Zm1.591.41.085-.49c1.808.293 4.014.198 5.061-.057l.118.482.117.482c-1.203.294-3.549.384-5.466.073l.085-.49Zm5.264-.065-.118-.482a28.238 28.238 0 0 0 4.751-1.612l.203.454.203.453a29.23 29.23 0 0 1-4.922 1.67l-.117-.483Zm4.836-1.64-.166-.469c2.827-.993 4.978-2.655 6.572-4.43l.375.328.376.328c-1.686 1.879-3.976 3.65-6.991 4.71l-.166-.467Zm6.781-4.572-.352-.352a151.339 151.339 0 0 1 .257-.252l.353.353.352.352-.128.126-.129.126-.353-.352Zm.258-.251-.36-.345c1.781-1.816 2.385-3.062 3.013-4.724l.471.17.472.172c-.665 1.76-1.336 3.134-3.236 5.071l-.36-.344Zm3.124-4.898-.455-.207c.321-.682.538-1.25.675-1.646a9.11 9.11 0 0 0 .181-.57l.007-.028.002-.006v-.001l.488.118.487.119v.001l-.001.004a17.767 17.767 0 0 1-.928 2.423l-.456-.207Zm.898-2.34-.228.445c-.334-.165-.832-.292-1.443-.378a15.963 15.963 0 0 0-1.96-.133c-1.359-.018-2.657.09-3.229.19l-.085-.49-.085-.488c.653-.115 2.017-.225 3.418-.206.704.009 1.429.05 2.088.143.651.091 1.274.237 1.751.473l-.227.444Zm-6.945-.365.094.487c-2.113.411-3.865.84-6.082 2.013l-.235-.438-.235-.437c2.345-1.241 4.209-1.694 6.364-2.113l.094.488Zm-6.223 2.062.232.44c-2.004 1.04-3.893 2.482-5.595 4.374l-.375-.329-.375-.329c1.78-1.98 3.766-3.498 5.881-4.595l.232.44Zm-5.738 4.485.377.328c-.693.775-1.596 2.021-2.346 3.323-.759 1.32-1.313 2.62-1.385 3.519l-.501-.036-.502-.036c.091-1.135.746-2.598 1.515-3.934.778-1.353 1.721-2.657 2.466-3.491l.376.327Zm-3.855 7.134.489-.12.01.04-.49.12-.489.12-.009-.04.489-.12Zm-13.102 9.89.326-.38.001.002.009.007.038.03a11.654 11.654 0 0 0 .818.574c.58.37 1.435.858 2.532 1.314a17.787 17.787 0 0 0 9.164 1.21l.062.492.062.493a18.798 18.798 0 0 1-9.684-1.279 17.424 17.424 0 0 1-2.686-1.394 12.655 12.655 0 0 1-.9-.632 3.623 3.623 0 0 1-.049-.04l-.014-.01-.004-.004-.001-.001c-.001-.001-.001-.001.326-.381Zm12.95 3.249-.061-.492c3.817-.486 6.994-2.615 9.192-4.655l.343.36.344.362c-2.279 2.116-5.646 4.396-9.757 4.918l-.061-.493Zm9.474-4.786-.34-.364.157-.143.34.364.34.364-.156.143-.341-.364Zm.157-.143-.317-.384c.37-.3.855-.835 1.346-1.383.238-.267.476-.533.688-.757a4.46 4.46 0 0 1 .597-.551l.29.403.291.404a3.7 3.7 0 0 0-.446.422c-.2.21-.426.463-.669.734-.47.526-1.015 1.133-1.463 1.496l-.317-.384Zm2.604-2.672-.429-.256.702-1.137.429.257.429.256-.702 1.137-.429-.257Zm.702-1.136-.263.425c-6.433-3.85-14.08-3.32-19.829.17l-.261-.423-.262-.423c6.042-3.668 14.095-4.233 20.877-.175l-.262.426Zm-20.353.172.257.425c-.806.48-1.915 1.278-2.94 2.202-1.034.932-1.938 1.954-2.382 2.877l-.454-.212-.454-.211c.53-1.1 1.55-2.226 2.614-3.186 1.072-.967 2.235-1.805 3.101-2.32l.258.425Zm-5.52 5.292.43.257-.015.025-.43-.257-.428-.257.015-.025.429.257Zm10.618 8.248.35.354-.002.002-.004.004-.015.014-.052.048a11.812 11.812 0 0 1-.947.75 15.842 15.842 0 0 1-2.877 1.613c-2.51 1.088-6.159 1.942-10.73 1.03l.102-.487.103-.487c4.336.865 7.774.054 10.125-.966a14.796 14.796 0 0 0 2.692-1.508 10.804 10.804 0 0 0 .854-.675l.04-.037.009-.008.001-.001.35.354Zm-14.175 3.328-.07.492c-2.22-.293-4.34-.87-6.142-1.636l.2-.457.202-.457c1.713.729 3.744 1.283 5.88 1.565l-.07.493Zm-6.011-1.601-.205.455c-.978-.425-2.372-1.279-3.594-2.23a14.519 14.519 0 0 1-1.665-1.491c-.462-.495-.851-1.018-1.033-1.522l.474-.169.474-.17c.114.316.394.722.826 1.184.424.454.963.93 1.55 1.386 1.176.916 2.498 1.72 3.378 2.102l-.205.455Zm-6.023-4.957-.326-.377c2.011-1.698 4.441-2.46 6.273-3.073l.158.471.16.471c-1.87.625-4.103 1.335-5.94 2.885l-.325-.377Zm6.105-2.979-.152-.473c3.224-1.036 7.142-.952 10.855.13 3.715 1.082 7.268 3.175 9.743 6.209l-.392.313-.393.313c-2.326-2.851-5.692-4.846-9.248-5.882-3.56-1.036-7.266-1.1-10.26-.138l-.153-.472Zm20.054 6.179.262-.426.05.03-.262.426-.263.425-.05-.029.263-.426Zm-42.626-3.24.227-.445 23.306 11.475-.226.445-.227.445-23.306-11.475.226-.445Zm23.307 11.475-.211-.449c.1-.047.21-.096.293-.132l.103-.044.03-.013.008-.004.002-.001h.001l.197.456.196.457-.002.001-.008.003a.205.205 0 0 0-.027.012l-.098.042c-.08.035-.182.08-.273.122l-.211-.45Zm.422-.187-.474.167c-1.402-3.959-4.6-7.984-9.745-10.271l.209-.454.209-.453c5.411 2.405 8.79 6.647 10.276 10.845l-.475.166Zm-10.01-10.558-.208.454c-2.514-1.108-4.557-1.509-6.961-1.686l.04-.495.04-.496c2.497.183 4.657.606 7.296 1.769l-.207.454Zm-7.129-1.727-.043.495c-.897-.071-2.195-.011-3.425.157-1.253.172-2.333.443-2.852.747l-.255-.427-.254-.427c.71-.416 1.973-.705 3.229-.877 1.278-.175 2.652-.242 3.644-.164l-.044.496Zm-6.575.972.43.257-.016.024-.429-.256-.429-.257.015-.025.43.257Zm23.292 11.5.429.257a1.003 1.003 0 0 1-.06.079.611.611 0 0 1-.027.026c-.01.011-.02.018-.025.022a.352.352 0 0 1-.049.036 5.132 5.132 0 0 1-.274.167c-.18.1-.44.233-.777.373-.673.279-1.65.588-2.896.727-2.5.279-6.038-.132-10.307-2.773l.269-.422.269-.421c4.083 2.526 7.396 2.881 9.662 2.628a9.648 9.648 0 0 0 2.618-.655 6.469 6.469 0 0 0 .833-.417.415.415 0 0 0 .032-.022c.003-.001.002-.001-.002.002l-.016.012-.023.02a.867.867 0 0 0-.086.105l.43.256Zm-13.717-1.508-.228.445c-2.322-1.15-4.615-2.551-6.33-4.419l.374-.335.373-.335c1.593 1.735 3.758 3.07 6.039 4.2l-.228.444Zm-6.184-4.309-.427.266-.034-.055.426-.266.427-.265.035.054-.427.266Zm-.035-.055-.358.351c-.53-.528-.927-1.019-1.25-1.582l.438-.247.438-.248c.269.469.606.892 1.09 1.376l-.358.35Zm-1.17-1.478-.417.281c-.516-.75-.874-1.449-1.2-2.133-.33-.69-.618-1.344-1.01-2.059l.441-.239.443-.239c.411.747.721 1.45 1.036 2.109.317.665.65 1.31 1.123 1.999l-.416.281Z" mask="url(#b)"/></g><defs><clipPath id="a"><path fill="#fff" d="M41 .25H0v103h41z"/></clipPath></defs></svg>