<svg xmlns="http://www.w3.org/2000/svg" width="41" height="104" fill="none"><g clip-path="url(#a)"><mask id="b" fill="#fff"><path fill-rule="evenodd" d="m-.61 98.081.23.37a14.118 14.118 0 0 1-1.093 5.866c-.722 1.819-1.938 3.832-3.956 5.818-1.754 1.862-3.908 3.793-6.439 5.003-.843.404-1.938.788-3.069 1.058-2.214.784-3.792.882-3.967.378-.352-1.346.709-5.161 1.185-6.326 1.886-4.58 5.322-8.362 10.09-10.538 3.431-1.58 6.364-1.473 7.03-1.668l-.01.04Zm12.854-73.404c.677-2.333 1.31-6.232-.511-10.014-.562-1.187-1.318-2.358-2.125-3.5-1.327-2.15-3.819-4.584-5.84-6.42C2.345 3.43 1.37 2.626 1.37 2.626.504 4.158-.119 8.016.111 10.382c.728 7.212 4.496 13.484 11.334 16.431.33-.57.605-1.343.799-2.136Zm7.122 16.245s.473-.284 1.102-1.201c1.13-1.489 2.096-3.521 2.367-4.63.397-1.626.649-3.265.75-4.984.42-3.026-.105-5.757-.997-8.032l-.108-.342c-.843-2.473-1.73-3.634-2.975-4.987-.957-1.22-1.695-1.862-1.695-1.862-1.47 1.049-3.157 4.732-3.528 5.901-.61 2.057-1.046 3.84-1.009 6.39.015 2.292.456 4.667 1.399 7.08.789 1.999 2.895 5.578 4.653 6.657l.04.01Zm2.838 15.999s6.184-2.483 8.894-9.822c1.372-3.698.893-7.573.05-10.487l-.056-.203c-.22-1.019-1.112-2.853-1.208-3.507l-.701-1.137c-6.608 3.955-9.731 11.068-9.222 17.87.127 1.92.854 5.477 2.228 7.261l.015.025Zm12.31-5.505s2.174 6.956-3.532 13.922c-1.263 1.771-2.728 3.325-4.212 4.517-1.583 1.252-5.491 3.218-7.243 2.98-.577-2.429-.166-4.806.128-6.708 1.064-6.355 7.292-13.195 14.808-14.68l.05-.03ZM33 72.15c.016.025.827 6.375-7.678 11.295-2.088 1.486-4.347 2.804-6.733 3.42l-.065.005c-.69.21-1.27.32-1.872.341-1.753.203-3.058-.031-4.747-.002-.097-1.43 1.149-4.612 2.153-6.194 1.29-2.058 2.63-3.706 4.84-5.435 4.572-3.547 9.787-4.502 14.129-3.885 0 0-.018.247-.026.455ZM5.939 99.95c1.972.207 4.347.072 7.067-.777 2.485-.675 5.219-1.668 7.475-3.323.752-.551 1.603-1.331 2.367-2.195 1.726-1.574 2.542-2.908 2.168-3.293-1.05-.928-4.977-1.759-6.247-1.88-4.996-.46-9.988.8-14.147 3.966-3.003 2.27-4.26 4.883-4.741 5.374l.228.371a14.429 14.429 0 0 0 5.815 1.732l.015.025ZM-72.2 75.24c-2.415-.484-6.22-1.726-8.79-5.061-.81-1.038-1.518-2.239-2.175-3.47-1.327-2.15-2.372-5.45-3.096-8.062-.528-1.85-.804-3.072-.804-3.072 1.78-.05 5.544 1.183 7.57 2.475 6.165 3.959 10.082 10.142 9.589 17.475-.667.027-1.49-.09-2.294-.285Zm11.36 13.708s-.473.283-1.59.41c-1.862.302-4.139.21-5.264-.065a28.747 28.747 0 0 1-4.836-1.64c-2.921-1.027-5.141-2.744-6.781-4.572l-.258-.251c-1.84-1.877-2.478-3.187-3.124-4.898-.659-1.4-.898-2.34-.898-2.34 1.623-.801 5.72-.58 6.945-.365 2.134.415 3.942.856 6.223 2.062 2.06 1.07 3.997 2.55 5.738 4.485 1.437 1.61 3.693 5.1 3.855 7.134l-.01.04Zm13.112 9.85s-5.086 4.263-12.95 3.249c-3.964-.504-7.236-2.708-9.474-4.786l-.157-.143c-.818-.661-2.06-2.287-2.604-2.672l-.702-1.136c6.608-3.954 14.458-3.407 20.353.172 1.673.995 4.544 3.27 5.52 5.292l.014.025Zm-10.632 8.224s5.267 5.105 14.175 3.328c2.178-.288 4.253-.853 6.011-1.601 1.858-.807 5.43-3.317 6.023-4.957-1.923-1.624-4.255-2.36-6.105-2.979-6.218-1.998-15.252.294-20.054 6.179l-.05.03Zm42.676-3.27-23.307 11.475c-.191-.088-.422-.187-.422-.187 1.444-4.078 4.732-8.211 10.01-10.558 2.577-1.136 4.679-1.547 7.129-1.727 1.888-.149 5.345.252 6.575.972l.015.025Zm-23.307 11.475c.016.025 5.365 3.659 13.717-1.508 2.301-1.14 4.53-2.507 6.184-4.309l.035-.055c.507-.506.874-.962 1.17-1.478.99-1.439 1.38-2.687 2.186-4.15" clip-rule="evenodd"/></mask><path fill="#3E3E46" fill-rule="evenodd" d="m-.61 98.081.23.37a14.118 14.118 0 0 1-1.093 5.866c-.722 1.819-1.938 3.832-3.956 5.818-1.754 1.862-3.908 3.793-6.439 5.003-.843.404-1.938.788-3.069 1.058-2.214.784-3.792.882-3.967.378-.352-1.346.709-5.161 1.185-6.326 1.886-4.58 5.322-8.362 10.09-10.538 3.431-1.58 6.364-1.473 7.03-1.668l-.01.04Zm12.854-73.404c.677-2.333 1.31-6.232-.511-10.014-.562-1.187-1.318-2.358-2.125-3.5-1.327-2.15-3.819-4.584-5.84-6.42C2.345 3.43 1.37 2.626 1.37 2.626.504 4.158-.119 8.016.111 10.382c.728 7.212 4.496 13.484 11.334 16.431.33-.57.605-1.343.799-2.136Zm7.122 16.245s.473-.284 1.102-1.201c1.13-1.489 2.096-3.521 2.367-4.63.397-1.626.649-3.265.75-4.984.42-3.026-.105-5.757-.997-8.032l-.108-.342c-.843-2.473-1.73-3.634-2.975-4.987-.957-1.22-1.695-1.862-1.695-1.862-1.47 1.049-3.157 4.732-3.528 5.901-.61 2.057-1.046 3.84-1.009 6.39.015 2.292.456 4.667 1.399 7.08.789 1.999 2.895 5.578 4.653 6.657l.04.01Zm2.838 15.999s6.184-2.483 8.894-9.822c1.372-3.698.893-7.573.05-10.487l-.056-.203c-.22-1.019-1.112-2.853-1.208-3.507l-.701-1.137c-6.608 3.955-9.731 11.068-9.222 17.87.127 1.92.854 5.477 2.228 7.261l.015.025Zm12.31-5.505s2.174 6.956-3.532 13.922c-1.263 1.771-2.728 3.325-4.212 4.517-1.583 1.252-5.491 3.218-7.243 2.98-.577-2.429-.166-4.806.128-6.708 1.064-6.355 7.292-13.195 14.808-14.68l.05-.03ZM33 72.15c.016.025.827 6.375-7.678 11.295-2.088 1.486-4.347 2.804-6.733 3.42l-.065.005c-.69.21-1.27.32-1.872.341-1.753.203-3.058-.031-4.747-.002-.097-1.43 1.149-4.612 2.153-6.194 1.29-2.058 2.63-3.706 4.84-5.435 4.572-3.547 9.787-4.502 14.129-3.885 0 0-.018.247-.026.455ZM5.939 99.95c1.972.207 4.347.072 7.067-.777 2.485-.675 5.219-1.668 7.475-3.323.752-.551 1.603-1.331 2.367-2.195 1.726-1.574 2.542-2.908 2.168-3.293-1.05-.928-4.977-1.759-6.247-1.88-4.996-.46-9.988.8-14.147 3.966-3.003 2.27-4.26 4.883-4.741 5.374l.228.371a14.429 14.429 0 0 0 5.815 1.732l.015.025ZM-72.2 75.24c-2.415-.484-6.22-1.726-8.79-5.061-.81-1.038-1.518-2.239-2.175-3.47-1.327-2.15-2.372-5.45-3.096-8.062-.528-1.85-.804-3.072-.804-3.072 1.78-.05 5.544 1.183 7.57 2.475 6.165 3.959 10.082 10.142 9.589 17.475-.667.027-1.49-.09-2.294-.285Zm11.36 13.708s-.473.283-1.59.41c-1.862.302-4.139.21-5.264-.065a28.747 28.747 0 0 1-4.836-1.64c-2.921-1.027-5.141-2.744-6.781-4.572l-.258-.251c-1.84-1.877-2.478-3.187-3.124-4.898-.659-1.4-.898-2.34-.898-2.34 1.623-.801 5.72-.58 6.945-.365 2.134.415 3.942.856 6.223 2.062 2.06 1.07 3.997 2.55 5.738 4.485 1.437 1.61 3.693 5.1 3.855 7.134l-.01.04Zm13.112 9.85s-5.086 4.263-12.95 3.249c-3.964-.504-7.236-2.708-9.474-4.786l-.157-.143c-.818-.661-2.06-2.287-2.604-2.672l-.702-1.136c6.608-3.954 14.458-3.407 20.353.172 1.673.995 4.544 3.27 5.52 5.292l.014.025Zm-10.632 8.224s5.267 5.105 14.175 3.328c2.178-.288 4.253-.853 6.011-1.601 1.858-.807 5.43-3.317 6.023-4.957-1.923-1.624-4.255-2.36-6.105-2.979-6.218-1.998-15.252.294-20.054 6.179l-.05.03Zm42.676-3.27-23.307 11.475c-.191-.088-.422-.187-.422-.187 1.444-4.078 4.732-8.211 10.01-10.558 2.577-1.136 4.679-1.547 7.129-1.727 1.888-.149 5.345.252 6.575.972l.015.025Zm-23.307 11.475c.016.025 5.365 3.659 13.717-1.508 2.301-1.14 4.53-2.507 6.184-4.309l.035-.055c.507-.506.874-.962 1.17-1.478.99-1.439 1.38-2.687 2.186-4.15" clip-rule="evenodd"/><path fill="#1A1A1D" d="m-.61 98.081-.488-.12-.05.2.11.177.429-.257Zm.23.37.502-.01-.003-.132-.07-.114-.43.257Zm-1.093 5.866-.466-.191-.003.007.469.184Zm-3.956 5.818-.356-.353-.007.007-.006.006.369.34Zm-6.439 5.003-.221-.447.221.447Zm-3.069 1.058-.12-.483-.027.007-.025.008.172.468Zm-3.967.378-.486.121.004.019.007.018.476-.158Zm1.185-6.326-.466-.19v.001l.466.189ZM-7.63 99.71l.214.451.002-.001-.215-.45Zm7.03-1.668.488.12.206-.843-.84.246.145.477Zm12.844-73.365-.484-.14-.003.01-.003.01.49.12Zm-.512-10.014-.455.208.001.003.454-.211Zm-2.125-3.5-.43.257.01.013.008.013.412-.283Zm-5.84-6.42-.341.362.002.003.34-.365ZM1.37 2.626l.32-.381-.466-.385-.294.522.44.244ZM.111 10.382l-.5.045v.002l.5-.047Zm11.334 16.431-.2.456.413.178.223-.384-.436-.25Zm7.92 14.109-.118.482.203.05.177-.107-.262-.425Zm1.102-1.201-.403-.3-.007.01-.007.01.417.28Zm3.116-9.614-.498-.07-.003.02v.019l.501.031Zm-.995-8.032-.48.145.005.016.006.015.468-.176Zm-.109-.342.48-.146-.003-.01-.477.156Zm-2.975-4.987-.396.303.012.015.013.015.371-.333Zm-1.695-1.862.332-.372-.303-.263-.325.231.296.404Zm-3.528 5.901-.48-.151-.003.009.482.142Zm-1.009 6.39h.503v-.004l-.503.004Zm1.399 7.08-.47.177.002.002.468-.178Zm4.653 6.657-.263.422.068.042.078.019.117-.483Zm2.879 16.009-.43.257.225.363.396-.16-.191-.46Zm8.894-9.822-.473-.174.473.174Zm.05-10.487-.484.13.001.004.484-.134Zm-.056-.203-.492.1.003.016.004.014.485-.13Zm-1.208-3.507.498-.068-.015-.101-.054-.087-.429.256Zm-.701-1.137.429-.256-.263-.426-.429.257.263.425Zm-9.222 17.87.502-.03V49.6l-.502.034Zm2.228 7.261.428-.257-.013-.022-.016-.02-.4.299Zm12.324-5.48.48-.144-.19-.611-.552.33.262.425Zm-3.53 13.922-.392-.314-.01.013-.01.013.412.288Zm-4.213 4.517.316.389.003-.002-.319-.387Zm-7.243 2.98-.49.111.08.335.345.047.065-.492Zm.128-6.708-.496-.084v.005l.497.079Zm14.808-14.68.102.486.086-.017.075-.044-.263-.426ZM33.001 72.15l-.503-.022-.006.15.08.129.428-.257Zm-7.679 11.295-.256-.43-.02.012-.02.014.296.404Zm-6.733 3.42.043.495.044-.004.043-.01-.13-.482Zm-.065.005-.043-.496-.055.004-.053.016.15.475Zm-1.872.341-.021-.496h-.02l-.02.003.061.493Zm-4.747-.002-.502.03.032.476.482-.009-.012-.497Zm2.153-6.194.427.266v-.003l-.427-.263Zm4.84-5.435-.311-.391h-.002l.314.391Zm14.129-3.885.501.038.034-.464-.467-.066-.068.492ZM5.938 99.95l-.429.256.13.212.249.026.05-.494Zm7.067-.777-.137-.48-.009.003-.009.003.155.474Zm7.475-3.323-.301-.4.301.4Zm2.367-2.195-.342-.366-.02.018-.017.02.38.328Zm2.168-3.293.362-.343-.014-.014-.014-.012-.334.369Zm-6.247-1.88.045-.494h-.001l-.044.495ZM4.621 92.449l.307.395.002-.001-.309-.394ZM-.12 97.822l-.363-.347-.27.275.204.33.429-.258Zm.228.371-.429.257.07.113.118.065.241-.435Zm5.815 1.732.429-.257-.134-.217-.256-.021-.04.495ZM-72.2 75.24l.118-.483-.01-.002-.01-.002-.098.487Zm-8.79-5.061.4-.3-.003-.002-.397.302Zm-2.175-3.47.445-.23-.008-.013-.008-.014-.429.257Zm-3.096-8.062.485-.128-.001-.003-.484.132Zm-.804-3.072-.017-.497-.606.017.133.586.49-.106Zm7.57 2.475.273-.416-.002-.001-.27.417Zm9.589 17.475.023.497.449-.018.03-.443-.502-.036Zm9.067 13.423.262.425.178-.106.049-.2-.49-.12Zm-1.591.41-.06-.494-.013.001-.012.003.085.49Zm-10.1-1.705.203-.454-.019-.008-.018-.007-.166.469Zm-6.781-4.572.375-.328-.01-.012-.013-.012-.352.353Zm-.258-.251-.36.344.008.008.352-.352Zm-3.124-4.898.47-.171-.006-.019-.009-.017-.456.207Zm-.898-2.34-.227-.444-.358.177.097.385.488-.118Zm6.945-.365.094-.488-.01-.001-.084.489Zm6.223 2.062-.235.438.003.002.232-.44Zm5.738 4.485.376-.327-.001-.002-.375.33Zm3.855 7.134.49.12.018-.077-.006-.08-.502.037Zm13.102 9.89.327.38.327-.273-.224-.363-.43.257Zm-12.95 3.249.062-.492-.062.492Zm-9.474-4.786.343-.361-.003-.003-.34.364Zm-.157-.143.34-.364-.011-.01-.012-.01-.317.384Zm-2.604-2.672-.43.257.055.087.084.06.29-.404Zm-.702-1.136-.262-.426-.43.257.263.425.43-.256Zm20.353.172-.261.423.004.002.257-.425Zm5.52 5.292-.455.212.012.023.013.022.43-.257Zm-10.618 8.248-.262-.426-.552.331.463.449.351-.354Zm14.175 3.328-.07-.493-.017.002-.016.004.103.487Zm6.011-1.601.202.457.003-.002-.205-.455Zm6.023-4.957.474.169.117-.323-.265-.223-.326.377Zm-6.105-2.979.158-.471-.006-.002-.152.473Zm-20.054 6.179.263.426.075-.045.055-.068-.393-.313Zm42.626-3.24.226.445.488-.24-.285-.462-.43.257Zm-23.73 11.288-.474-.166-.156.438.434.185.197-.457Zm10.011-10.558-.207-.454-.002.001.21.453Zm7.129-1.727.04.495h.003l-.043-.495Zm6.575.972.428-.257-.065-.107-.11-.063-.254.427Zm-9.575 9.992-.228-.444-.02.01-.02.013.268.421Zm6.184-4.309.374.335.03-.032.023-.037-.427-.266Zm.035-.055-.359-.35-.039.038-.029.047.427.265Zm1.17-1.478-.416-.281-.012.016-.01.017.438.248Zm17.276-9.796-.43.257.23.37.428-.256.43-.257-.23-.37-.428.256Zm.228.37-.502.012c.055 1.958-.3 3.837-1.056 5.663l.466.191.465.19a14.605 14.605 0 0 0 1.13-6.066l-.503.01Zm-1.092 5.866-.469-.184c-.697 1.757-1.875 3.712-3.843 5.649l.356.353.356.353c2.068-2.035 3.322-4.106 4.068-5.987l-.468-.184Zm-3.956 5.818-.37-.34c-1.736 1.844-3.84 3.725-6.29 4.896l.221.447.222.448c2.612-1.249 4.816-3.232 6.586-5.111l-.37-.34Zm-6.439 5.003-.221-.447c-.808.386-1.868.759-2.969 1.022l.121.483.122.483c1.16-.277 2.289-.672 3.168-1.093l-.22-.448Zm-3.069 1.058-.172-.468c-1.083.384-1.987.59-2.622.645-.322.027-.543.013-.675-.018-.15-.036-.063-.059-.022.06l-.476.159-.475.158c.128.372.478.525.742.589.283.067.627.074.999.042.75-.064 1.743-.299 2.874-.699l-.173-.468Zm-3.967.378.488-.122c-.065-.247-.074-.664-.017-1.218.054-.54.165-1.159.302-1.782.277-1.251.654-2.467.878-3.015l-.466-.189-.467-.189c-.252.617-.643 1.89-.927 3.175a16.96 16.96 0 0 0-.322 1.895c-.058.575-.067 1.14.045 1.566l.486-.121Zm1.185-6.326.466.19c1.841-4.472 5.191-8.156 9.838-10.277l-.213-.451-.214-.452c-4.89 2.232-8.413 6.112-10.343 10.8l.466.19ZM-7.63 99.71l.216.45a16.668 16.668 0 0 1 4.418-1.313 26.77 26.77 0 0 1 1.553-.19c.39-.04.764-.073.988-.139l-.146-.476-.145-.477c-.109.032-.351.058-.805.103-.423.042-.971.098-1.609.198-1.277.2-2.915.579-4.684 1.393l.215.45Zm7.03-1.668-.49-.12-.01.04.49.12.489.119.01-.04-.49-.12Zm12.844-73.365.483.14c.69-2.38 1.359-6.421-.541-10.365l-.454.21-.454.212c1.744 3.621 1.145 7.376.482 9.664l.484.14Zm-.512-10.014.455-.208c-.58-1.226-1.355-2.424-2.168-3.574l-.412.282-.412.283c.8 1.133 1.538 2.277 2.082 3.425l.455-.208Zm-2.125-3.5.429-.256c-1.368-2.218-3.911-4.695-5.93-6.529l-.338.365-.34.365c2.024 1.839 4.465 4.23 5.75 6.312l.429-.257Zm-5.84-6.42.342-.362a76.624 76.624 0 0 0-2.24-1.986 31.011 31.011 0 0 0-.176-.147l-.002-.002H1.69v-.001a462.923 462.923 0 0 0-.643.761.057.057 0 0 0 .003.002 3.368 3.368 0 0 1 .04.033 30.387 30.387 0 0 1 .613.524c.419.362 1.015.888 1.723 1.54l.342-.362ZM1.37 2.626l-.44-.244C.454 3.226.07 4.644-.166 6.11c-.24 1.477-.343 3.078-.222 4.317l.5-.045.5-.044C.504 9.21.597 7.7.828 6.273c.233-1.439.594-2.716.982-3.403l-.44-.244ZM.111 10.382l-.5.046c.742 7.353 4.596 13.807 11.635 16.84l.199-.455.198-.455C5.008 23.498 1.327 17.407.613 10.336l-.5.046Zm11.334 16.431.436.25c.364-.626.652-1.449.851-2.266l-.489-.12-.489-.12c-.187.769-.448 1.493-.746 2.007l.437.25Zm7.92 14.109.262.425h.002l.001-.002c.001 0 .003 0 .004-.002a.384.384 0 0 0 .037-.024 3.304 3.304 0 0 0 .357-.293c.224-.21.523-.538.856-1.025l-.417-.28-.417-.28a5.29 5.29 0 0 1-.718.864 2.35 2.35 0 0 1-.234.194l.002-.001.001-.001.264.425Zm1.102-1.201.403.3c1.163-1.532 2.163-3.625 2.453-4.811l-.49-.12-.488-.12c-.253 1.033-1.183 3.006-2.28 4.451l.402.3Zm2.367-4.63.489.119a28.1 28.1 0 0 0 .762-5.07l-.502-.033-.502-.031a27.118 27.118 0 0 1-.736 4.895l.489.12Zm.75-4.984.498.07c.434-3.123-.109-5.94-1.025-8.28l-.47.178-.468.177c.866 2.21 1.373 4.856.966 7.785l.498.07Zm-.997-8.032.48-.146-.108-.341-.48.145-.48.146.109.341.48-.145Zm-.108-.342.477-.156c-.87-2.553-1.8-3.773-3.08-5.164l-.372.333-.37.333c1.208 1.315 2.053 2.417 2.869 4.81l.476-.156Zm-2.975-4.987.397-.303a18.076 18.076 0 0 0-1.242-1.429 11.962 11.962 0 0 0-.515-.499l-.002-.002h-.001v-.001l-.332.372-.33.372h-.001l.005.004a2.298 2.298 0 0 1 .11.102c.08.074.196.187.343.338.293.302.705.754 1.172 1.349l.396-.303Zm-1.695-1.862-.296-.404c-.432.309-.85.786-1.232 1.313a16.408 16.408 0 0 0-1.091 1.759c-.663 1.216-1.192 2.459-1.39 3.082l.48.151.48.152c.174-.547.674-1.73 1.316-2.91.32-.587.67-1.163 1.023-1.652.36-.495.704-.871 1.006-1.088l-.296-.403Zm-3.528 5.901-.483-.142c-.615 2.076-1.066 3.915-1.029 6.536l.503-.004.503-.004c-.035-2.478.385-4.207.988-6.243l-.482-.143Zm-1.009 6.39h-.503c.015 2.354.469 4.789 1.433 7.257l.469-.176.47-.177c-.922-2.358-1.352-4.674-1.366-6.904h-.503Zm1.399 7.08-.469.179c.41 1.036 1.15 2.46 2.011 3.764.85 1.287 1.867 2.534 2.848 3.136l.263-.422.264-.422c-.778-.477-1.693-1.56-2.533-2.831-.829-1.255-1.536-2.619-1.916-3.581l-.468.178Zm4.653 6.657-.117.483.04.01.117-.483.118-.482-.04-.01-.118.482Zm2.879 16.009.192.46h.002l.005-.003.017-.007.059-.025a12.682 12.682 0 0 0 .983-.495 17.41 17.41 0 0 0 2.494-1.705 18.274 18.274 0 0 0 5.614-7.875l-.472-.172-.473-.173a17.289 17.289 0 0 1-5.312 7.452 16.415 16.415 0 0 1-2.35 1.607 11.681 11.681 0 0 1-.894.451 3.91 3.91 0 0 1-.046.02l-.01.004h-.002l.193.46Zm8.894-9.822.472.173c1.423-3.834.92-7.827.062-10.794l-.483.134-.484.134c.827 2.86 1.282 6.619-.04 10.179l.473.174Zm.05-10.487.486-.13-.057-.203-.485.13-.485.13.057.203.485-.13Zm-.056-.203.492-.1c-.12-.558-.417-1.315-.674-1.968-.132-.337-.256-.651-.354-.922a3.629 3.629 0 0 1-.174-.585l-.498.068-.498.069c.032.217.122.497.223.775.103.289.234.619.364.95.268.682.528 1.352.627 1.814l.492-.1Zm-1.208-3.507.43-.256-.702-1.137-.43.256-.428.257.701 1.137.429-.257Zm-.701-1.137-.263-.425c-6.783 4.058-9.982 11.357-9.46 18.328l.501-.034.502-.034c-.497-6.632 2.549-13.56 8.982-17.409l-.262-.426Zm-9.222 17.87-.502.028c.066.995.285 2.397.663 3.78.374 1.373.92 2.783 1.667 3.752l.4-.299.4-.3c-.628-.813-1.132-2.074-1.496-3.406-.361-1.322-.569-2.66-.63-3.585l-.502.03Zm2.228 7.261-.43.257.016.025.429-.257.429-.257-.015-.025-.43.257Zm12.324-5.48-.48.144v.002l.003.01.015.052a10.401 10.401 0 0 1 .215 1.058c.11.732.201 1.784.12 3.048-.165 2.525-1.018 5.903-3.795 9.294l.392.314.391.314c2.928-3.575 3.84-7.158 4.015-9.852a15.332 15.332 0 0 0-.128-3.258 11.406 11.406 0 0 0-.24-1.174 5.732 5.732 0 0 0-.019-.068l-.006-.019a.235.235 0 0 0-.002-.008l-.48.143Zm-3.53 13.922-.412-.288c-1.24 1.737-2.674 3.257-4.12 4.419l.32.386.318.386c1.522-1.222 3.018-2.81 4.305-4.615l-.411-.288Zm-4.213 4.517-.316-.389c-.75.593-2.083 1.378-3.45 1.985-.682.302-1.359.554-1.963.716-.616.164-1.11.222-1.448.176l-.066.493-.065.492c.538.073 1.188-.026 1.847-.202.67-.18 1.398-.452 2.111-.768 1.42-.63 2.832-1.455 3.666-2.114l-.316-.389Zm-7.243 2.98.49-.11c-.551-2.32-.162-4.6.136-6.52l-.497-.078-.498-.078c-.291 1.882-.724 4.358-.12 6.897l.49-.11Zm.128-6.708.497.084c.512-3.06 2.277-6.27 4.85-8.904 2.572-2.631 5.921-4.654 9.563-5.373l-.102-.488-.101-.487c-3.875.766-7.398 2.906-10.085 5.655-2.685 2.747-4.566 6.133-5.118 9.429l.497.084Zm14.808-14.68.263.425.05-.03-.263-.426-.262-.425-.05.03.262.425ZM33.001 72.15l-.43.257a.907.907 0 0 1-.054-.123l-.008-.03a.285.285 0 0 1-.003-.018v-.003l.003.038c.004.04.009.102.012.185.006.168.006.418-.02.735a9.242 9.242 0 0 1-.614 2.59c-.817 2.097-2.663 4.829-6.821 7.234l.256.43.256.429c4.347-2.514 6.347-5.418 7.248-7.731.449-1.153.62-2.15.679-2.867.029-.358.03-.647.021-.85a4.26 4.26 0 0 0-.028-.35.679.679 0 0 0-.005-.027l-.009-.031a.905.905 0 0 0-.055-.124l-.428.256Zm-7.679 11.295-.296-.404c-2.069 1.472-4.27 2.75-6.567 3.343l.13.48.13.481c2.474-.638 4.792-1.997 6.899-3.496l-.296-.404Zm-6.733 3.42-.043-.496-.065.005.043.496.043.495.065-.005-.043-.496Zm-.065.005-.15-.476c-.66.201-1.197.301-1.743.32l.021.497.021.497c.657-.023 1.282-.144 2.002-.364l-.151-.474Zm-1.872.341-.062-.493c-.838.097-1.573.09-2.319.06-.739-.028-1.514-.08-2.378-.066l.012.497.012.497c.825-.014 1.547.036 2.321.066.767.03 1.562.039 2.476-.067l-.062-.494Zm-4.747-.002.502-.03c-.041-.603.21-1.67.635-2.84.417-1.149.965-2.305 1.443-3.058l-.427-.266-.427-.266c-.526.829-1.103 2.054-1.536 3.25-.426 1.174-.748 2.413-.692 3.24l.502-.03Zm2.153-6.194.428.263c1.266-2.019 2.57-3.62 4.727-5.307l-.314-.39-.314-.391c-2.264 1.77-3.64 3.464-4.955 5.561l.428.264Zm4.84-5.435.313.392c4.457-3.459 9.533-4.384 13.747-3.785l.069-.492.068-.492c-4.468-.635-9.822.35-14.508 3.986l.312.391Zm14.129-3.885-.502-.039V71.67l-.003.031a22.457 22.457 0 0 0-.024.428l.503.022.502.023c.004-.099.01-.208.016-.295l.007-.105.002-.03V71.734l-.501-.04ZM5.938 99.95l-.05.494c2.04.214 4.484.073 7.27-.797l-.153-.474-.155-.474c-2.652.828-4.957.957-6.862.757l-.05.494Zm7.067-.777.136.48c2.509-.682 5.311-1.695 7.64-3.403l-.3-.4-.302-.4c-2.184 1.602-4.849 2.575-7.31 3.244l.136.479Zm7.475-3.323.302.4c.784-.575 1.66-1.38 2.445-2.266l-.38-.329-.379-.328c-.744.84-1.57 1.595-2.29 2.124l.302.4Zm2.367-2.195.343.367c.881-.804 1.55-1.564 1.954-2.19.2-.31.352-.614.421-.892.065-.26.088-.637-.188-.92l-.362.342-.362.343c-.088-.091-.028-.156-.064-.009-.033.13-.122.33-.295.598-.342.53-.944 1.225-1.789 1.995l.343.366Zm2.168-3.293.334-.37c-.333-.294-.846-.546-1.392-.76-.56-.22-1.208-.42-1.855-.592-1.289-.344-2.617-.588-3.289-.652l-.045.495-.045.495c.598.056 1.868.287 3.123.621.624.167 1.233.356 1.745.557.526.206.898.406 1.09.576l.334-.37Zm-6.247-1.88.044-.494c-5.115-.472-10.234.82-14.5 4.065l.31.395.308.394c4.052-3.084 8.916-4.315 13.794-3.864l.044-.495ZM4.621 92.449l-.307-.396A17.324 17.324 0 0 0 .9 95.505c-.384.51-.686.965-.92 1.315-.249.375-.384.576-.463.655l.363.347.362.347c.163-.165.365-.476.58-.8.233-.349.522-.782.888-1.269a16.336 16.336 0 0 1 3.218-3.257l-.307-.395ZM-.12 97.822l-.43.257.23.37.428-.256.43-.257-.23-.37-.428.256Zm.228.371-.24.435a14.933 14.933 0 0 0 6.016 1.792l.039-.495.039-.495A13.917 13.917 0 0 1 .35 97.759l-.242.434Zm5.815 1.732-.43.257.016.024.43-.256.428-.257-.015-.025-.43.257ZM-72.2 75.24l.097-.487c-2.367-.475-6.027-1.681-8.488-4.874l-.4.3-.399.3c2.68 3.477 6.63 4.754 9.093 5.248l.097-.487Zm-8.79-5.061.397-.302c-.784-1.004-1.475-2.176-2.127-3.397l-.445.23-.445.229c.662 1.24 1.385 2.47 2.222 3.542l.398-.302Zm-2.175-3.47.429-.257c-1.285-2.082-2.315-5.317-3.04-7.933l-.485.129-.486.128c.724 2.608 1.784 5.972 3.153 8.19l.429-.257Zm-3.096-8.062.484-.131a74.212 74.212 0 0 1-.746-2.832l-.038-.16-.01-.041a.998.998 0 0 0-.002-.01v-.003l-.492.105-.49.105v.005l.003.01.01.044.04.167a75.057 75.057 0 0 0 .757 2.873l.484-.131Zm-.804-3.072.018.497c.798-.022 2.116.25 3.52.71 1.392.455 2.797 1.07 3.762 1.685l.27-.417.272-.417c-1.061-.677-2.552-1.324-3.994-1.795-1.43-.468-2.884-.787-3.865-.76l.017.497Zm7.57 2.475-.272.416c6.044 3.881 9.838 9.906 9.359 17.023l.502.036.501.036c.509-7.55-3.532-13.891-9.817-17.927l-.272.416Zm9.589 17.475-.024-.496c-.601.024-1.373-.082-2.152-.272l-.118.483-.117.482c.828.202 1.702.33 2.434.3l-.023-.497Zm9.067 13.423a62.542 62.542 0 0 1-.263-.426h.001l.001-.001.002-.002h.002l-.006.002a2.377 2.377 0 0 1-.28.113c-.222.076-.585.17-1.109.23l.061.494.06.494a6.43 6.43 0 0 0 1.319-.276 3.343 3.343 0 0 0 .428-.177 1.22 1.22 0 0 0 .039-.022l.004-.002.002-.001-.261-.426Zm-1.591.41-.085-.49c-1.808.293-4.014.198-5.061-.057l-.118.482-.117.482c1.203.294 3.55.384 5.466.073l-.085-.49Zm-5.264-.065.118-.482a28.235 28.235 0 0 1-4.751-1.612l-.203.454-.203.453a29.253 29.253 0 0 0 4.922 1.67l.117-.483Zm-4.836-1.64.166-.469c-2.827-.993-4.978-2.655-6.572-4.43l-.375.328-.376.328c1.686 1.879 3.975 3.65 6.99 4.71l.167-.467Zm-6.781-4.572.352-.352a6499.814 6499.814 0 0 0-.257-.252l-.353.353-.352.352a151.213 151.213 0 0 0 .257.252l.353-.352Zm-.258-.251.36-.345c-1.78-1.816-2.385-3.062-3.013-4.724l-.472.17-.47.172c.664 1.76 1.335 3.134 3.235 5.071l.36-.344Zm-3.124-4.898.455-.207c-.32-.682-.538-1.25-.675-1.646a10.839 10.839 0 0 1-.18-.57l-.008-.028a.087.087 0 0 1-.002-.006v-.001l-.488.118-.488.119.001.001v.004c.002.002.002.006.004.01l.01.037.038.135c.035.117.088.285.161.498.147.424.378 1.026.716 1.743l.456-.207Zm-.898-2.34.228.445c.334-.165.832-.292 1.443-.378a15.952 15.952 0 0 1 1.96-.133c1.36-.018 2.657.09 3.23.19l.084-.49.085-.488c-.653-.115-2.017-.225-3.418-.206-.704.009-1.43.05-2.088.143-.651.091-1.274.237-1.75.473l.226.444Zm6.945-.365-.094.487c2.113.411 3.865.84 6.082 2.013l.235-.438.235-.437c-2.345-1.241-4.209-1.694-6.364-2.113l-.094.488Zm6.223 2.062-.232.44c2.004 1.04 3.893 2.482 5.595 4.374l.375-.329.375-.329c-1.78-1.98-3.766-3.498-5.881-4.595l-.232.44Zm5.738 4.485-.376.328c.692.775 1.595 2.021 2.345 3.323.759 1.32 1.313 2.62 1.385 3.519l.501-.036.502-.036c-.091-1.135-.746-2.598-1.515-3.934-.778-1.353-1.72-2.657-2.466-3.491l-.376.327Zm3.855 7.134-.489-.12-.01.04.49.12.489.12.01-.04-.49-.12Zm13.102 9.89-.326-.38-.001.002-.009.007-.038.03a11.654 11.654 0 0 1-.818.574c-.58.37-1.435.858-2.532 1.314a17.786 17.786 0 0 1-9.164 1.21l-.062.492-.062.493a18.797 18.797 0 0 0 9.684-1.279 17.424 17.424 0 0 0 2.686-1.394 12.655 12.655 0 0 0 .9-.632l.049-.04.014-.01.004-.004.001-.001c.001-.001.001-.001-.326-.381Zm-12.95 3.249.061-.492c-3.817-.486-6.995-2.615-9.192-4.655l-.343.36-.344.362c2.28 2.116 5.646 4.396 9.757 4.918l.061-.493Zm-9.474-4.786.34-.364-.157-.143-.34.364-.34.364.156.143.34-.364Zm-.157-.143.317-.384c-.37-.3-.855-.835-1.346-1.383-.238-.267-.476-.533-.688-.757a4.533 4.533 0 0 0-.597-.551l-.29.403-.291.404c.09.064.24.204.447.422.199.21.425.463.668.734.47.526 1.015 1.133 1.463 1.496l.317-.384Zm-2.604-2.672.429-.256-.702-1.137-.429.257-.429.256.702 1.137.429-.257Zm-.702-1.136.263.425c6.433-3.85 14.08-3.32 19.829.17l.261-.423.262-.423c-6.042-3.668-14.095-4.233-20.877-.175l.262.426Zm20.353.172-.257.425c.806.48 1.915 1.278 2.94 2.202 1.034.932 1.938 1.954 2.382 2.877l.454-.212.454-.211c-.53-1.1-1.55-2.226-2.614-3.186-1.072-.967-2.235-1.805-3.101-2.32l-.258.425Zm5.52 5.292-.43.257.015.025.43-.257.428-.257-.015-.025-.429.257Zm-10.618 8.248-.35.354.002.002.004.004.015.014.052.048a11.812 11.812 0 0 0 .947.75c.657.468 1.625 1.07 2.877 1.613 2.51 1.088 6.159 1.942 10.73 1.03l-.102-.487-.103-.487c-4.336.865-7.774.054-10.125-.966a14.796 14.796 0 0 1-2.692-1.508 10.804 10.804 0 0 1-.854-.675l-.04-.037-.009-.008-.001-.001-.35.354Zm14.175 3.328.07.492c2.22-.293 4.34-.87 6.143-1.636l-.202-.457-.201-.457c-1.713.729-3.744 1.283-5.88 1.565l.07.493Zm6.011-1.601.205.455c.978-.425 2.372-1.279 3.594-2.23a14.519 14.519 0 0 0 1.665-1.491c.462-.495.851-1.018 1.033-1.522l-.474-.169-.473-.17c-.115.316-.395.722-.827 1.184-.424.454-.963.93-1.55 1.386-1.176.916-2.498 1.72-3.378 2.102l.205.455Zm6.023-4.957.326-.377c-2.011-1.698-4.441-2.46-6.273-3.073l-.158.471-.16.471c1.87.625 4.103 1.335 5.94 2.885l.325-.377Zm-6.105-2.979.152-.473c-3.224-1.036-7.142-.952-10.855.13-3.715 1.082-7.268 3.175-9.743 6.209l.392.313.393.313c2.326-2.851 5.692-4.846 9.248-5.882 3.56-1.036 7.266-1.1 10.26-.138l.153-.472Zm-20.054 6.179-.262-.426-.05.03.262.426.263.425.05-.029-.263-.426Zm42.626-3.24-.227-.445-23.306 11.475.226.445.227.445 23.306-11.475-.226-.445Zm-23.307 11.475.211-.449c-.1-.047-.21-.096-.293-.132l-.103-.044-.03-.013-.008-.004-.002-.001h-.001l-.197.456-.196.457.002.001.008.003a.205.205 0 0 1 .028.012l.097.042c.08.035.182.08.273.122l.211-.45Zm-.422-.187.474.167c1.402-3.959 4.6-7.984 9.745-10.271l-.209-.454-.209-.453c-5.411 2.405-8.79 6.647-10.276 10.845l.474.166Zm10.01-10.558.207.454c2.515-1.108 4.558-1.509 6.962-1.686l-.04-.495-.04-.496c-2.497.183-4.657.606-7.296 1.769l.207.454Zm7.129-1.727.043.495c.897-.071 2.195-.011 3.425.157 1.253.172 2.333.443 2.852.747l.255-.427.254-.427c-.71-.416-1.973-.705-3.229-.877-1.277-.175-2.652-.242-3.643-.164l.043.496Zm6.575.972-.43.257.016.024.429-.256.429-.257-.015-.025-.43.257Zm-23.292 11.5-.429.257c.018.027.048.065.06.079a.611.611 0 0 0 .027.026c.01.011.02.018.025.022a.352.352 0 0 0 .049.036l.063.042c.05.032.12.074.21.125.181.1.442.233.778.373.673.279 1.65.588 2.896.727 2.5.279 6.038-.132 10.307-2.773l-.269-.422-.269-.421c-4.084 2.526-7.396 2.881-9.662 2.628a9.648 9.648 0 0 1-2.618-.655 6.469 6.469 0 0 1-.833-.417.415.415 0 0 1-.032-.022c-.003-.001-.002-.001.002.002l.016.012.023.02a.867.867 0 0 1 .086.105l-.43.256Zm13.717-1.508.228.445c2.322-1.15 4.615-2.551 6.33-4.419l-.374-.335-.373-.335c-1.593 1.735-3.758 3.07-6.039 4.2l.228.444Zm6.184-4.309.427.266.034-.055-.426-.266-.427-.265-.035.054.427.266Zm.035-.055.358.351c.53-.528.927-1.019 1.25-1.582l-.438-.247-.438-.248c-.269.469-.606.892-1.09 1.376l.358.35Zm1.17-1.478.417.281c.516-.75.874-1.449 1.2-2.133.33-.69.618-1.344 1.01-2.059l-.442-.239-.442-.239c-.411.747-.721 1.45-1.036 2.109-.317.665-.65 1.31-1.123 1.999l.416.281Z" mask="url(#b)"/></g><defs><clipPath id="a"><path fill="#fff" d="M0 .25h41v103H0z"/></clipPath></defs></svg>