<svg width="24" height="24" viewBox="0 0 24 24" fill="none" xmlns="http://www.w3.org/2000/svg">
<path fill-rule="evenodd" clip-rule="evenodd" d="M12 15.5C15.0376 15.5 17.5 13.0376 17.5 10C17.5 6.96243 15.0376 4.5 12 4.5C8.96243 4.5 6.5 6.96243 6.5 10C6.5 13.0376 8.96243 15.5 12 15.5ZM12 17C15.866 17 19 13.866 19 10C19 6.13401 15.866 3 12 3C8.13401 3 5 6.13401 5 10C5 13.866 8.13401 17 12 17Z" fill="#37766E"/>
<path fill-rule="evenodd" clip-rule="evenodd" d="M5 22C5 21.4873 5.0422 20.9859 5.12285 20.5C5.30311 19.414 5.67546 18.4056 6.19799 17.5229C6.29125 17.3654 6.38929 17.2118 6.49188 17.0625C6.67414 16.7973 6.87074 16.5456 7.08036 16.3089C8.4373 17.3686 10.1449 18 12 18C13.8551 18 15.5627 17.3686 16.9196 16.3089C17.1293 16.5456 17.3259 16.7973 17.5081 17.0625C17.6107 17.2118 17.7088 17.3654 17.802 17.5229C18.3245 18.4056 18.6969 19.414 18.8772 20.5C18.9578 20.9859 19 21.4873 19 22H5ZM17.3524 20.5C17.1945 19.7128 16.9157 18.9855 16.5446 18.3441C15.1942 19.0809 13.6449 19.5 12 19.5C10.3551 19.5 8.80579 19.0809 7.45539 18.3441C7.08426 18.9855 6.80547 19.7128 6.64756 20.5H17.3524Z" fill="#37766E"/>
<path fill-rule="evenodd" clip-rule="evenodd" d="M12 12.5C13.3807 12.5 14.5 11.3807 14.5 10C14.5 8.61929 13.3807 7.5 12 7.5C10.6193 7.5 9.5 8.61929 9.5 10C9.5 11.3807 10.6193 12.5 12 12.5ZM12 14C14.2091 14 16 12.2091 16 10C16 7.79086 14.2091 6 12 6C9.79086 6 8 7.79086 8 10C8 12.2091 9.79086 14 12 14Z" fill="#37766E"/>
</svg>
