<svg width="24" height="24" viewBox="0 0 24 24" fill="none" xmlns="http://www.w3.org/2000/svg">
<path d="M12.0006 24C9.86336 24 7.82528 23.1978 6.26172 21.741L7.22031 20.7122C8.52269 21.9255 10.2204 22.5938 12.0006 22.5938C13.7807 22.5938 15.4784 21.9256 16.7808 20.7123L17.7393 21.7413C16.1758 23.1978 14.1377 24 12.0006 24Z" fill="#37766E"/>
<path d="M12.0007 21.5312C10.49 21.5312 9.04936 20.9641 7.94409 19.9345L8.90264 18.9056C9.74672 19.692 10.847 20.125 12.0007 20.125C13.1543 20.125 14.2545 19.692 15.0985 18.9057L16.0571 19.9346C14.952 20.9642 13.5113 21.5312 12.0007 21.5312Z" fill="#37766E"/>
<path d="M12.0006 19.0883C11.1103 19.0883 10.261 18.7538 9.60913 18.1465L10.5677 17.1177C10.9584 17.4817 11.4673 17.6821 12.0006 17.6821C12.534 17.6821 13.0429 17.4817 13.4335 17.1177L14.3921 18.1467C13.7403 18.7539 12.8909 19.0883 12.0006 19.0883Z" fill="#37766E"/>
<path d="M12.0006 15.8422C12.0005 15.8422 12.0005 15.8422 12.0004 15.8422C10.0199 15.8422 8.01733 15.3416 6.04839 14.3544L5.6604 14.1599V0H18.3397V14.1598L17.9518 14.3543C15.9833 15.3416 13.9809 15.8422 12.0006 15.8422ZM7.06666 13.2847C8.71127 14.0489 10.3691 14.436 12.0004 14.436C13.6316 14.436 15.2891 14.049 16.9334 13.2847V1.40626H7.06666V13.2847Z" fill="#37766E"/>
<path d="M15.527 9.37551H8.47314V3.28143H15.527V9.37551ZM9.87939 7.96926H14.1207V4.68768H9.87939V7.96926Z" fill="#37766E"/>
<path d="M11.2969 11.113H12.7031V12.5193H11.2969V11.113Z" fill="#37766E"/>
</svg>
