<svg width="24" height="24" viewBox="0 0 24 24" fill="none" xmlns="http://www.w3.org/2000/svg">
<path d="M8.39619 4.77453C8.40369 4.75203 8.40744 4.72953 8.41494 4.70703H5.96619C5.66823 4.70791 5.37443 4.77697 5.10728 4.90892C4.84013 5.04086 4.60673 5.2322 4.42494 5.46828L1.89744 8.79078C1.7122 9.03288 1.58749 9.31573 1.53369 9.61578H7.02744L8.39619 4.77453Z" fill="#37766E"/>
<path d="M7.03117 10.365H1.54492C1.60646 10.6633 1.73895 10.9424 1.93117 11.1787L10.4099 21.6787L10.3687 21.54L7.03117 10.365Z" fill="#37766E"/>
<path d="M13.6313 21.5362C13.2628 22.2349 22.144 11.0105 22.0688 11.1788C22.2607 10.9418 22.3942 10.663 22.4588 10.365H16.9688L13.6313 21.5362Z" fill="#37766E"/>
<path d="M19.5748 5.46828C19.393 5.2322 19.1596 5.04086 18.8925 4.90892C18.6253 4.77697 18.3315 4.70791 18.0336 4.70703H15.5811C15.5914 4.73014 15.6002 4.75395 15.6073 4.77828L16.9723 9.61578H22.4661C22.4123 9.31573 22.2875 9.03288 22.1023 8.79078L19.5748 5.46828Z" fill="#37766E"/>
<path d="M7.81494 10.365L11.0887 21.3225L11.3549 22.2075C11.4384 22.4909 11.7549 22.4952 11.9999 22.5C12.2448 22.4952 12.5616 22.4911 12.6449 22.2075L12.9112 21.3225L16.1849 10.365H7.81494Z" fill="#37766E"/>
<path d="M16.1885 9.61415C16.1114 9.33544 14.9258 5.12702 14.8835 4.97915C14.8617 4.90044 14.8147 4.83104 14.7497 4.7816C14.6847 4.73216 14.6052 4.70539 14.5235 4.7054H9.47604C9.09754 4.69049 9.06968 5.19822 8.98104 5.4554L7.81104 9.61415H16.1885Z" fill="#37766E"/>
<path d="M6.45011 19.5075C5.96689 19.4112 5.52304 19.1739 5.17464 18.8255C4.82623 18.4771 4.5889 18.0332 4.49261 17.55C4.47531 17.4653 4.42929 17.3892 4.36232 17.3345C4.29535 17.2799 4.21156 17.25 4.12511 17.25C4.03866 17.25 3.95487 17.2799 3.8879 17.3345C3.82093 17.3892 3.77491 17.4653 3.75761 17.55C3.66132 18.0332 3.42399 18.4771 3.07558 18.8255C2.72717 19.1739 2.28333 19.4112 1.80011 19.5075C1.71651 19.5261 1.64174 19.5727 1.58816 19.6395C1.53457 19.7063 1.50537 19.7894 1.50537 19.875C1.50537 19.9607 1.53457 20.0438 1.58816 20.1106C1.64174 20.1774 1.71651 20.2239 1.80011 20.2425C2.28333 20.3388 2.72717 20.5762 3.07557 20.9246C3.42398 21.273 3.66131 21.7168 3.75761 22.2C3.77491 22.2847 3.82093 22.3609 3.8879 22.4155C3.95487 22.4702 4.03866 22.5001 4.12511 22.5001C4.21156 22.5001 4.29535 22.4702 4.36232 22.4155C4.42929 22.3609 4.47531 22.2847 4.49261 22.2C4.5889 21.7168 4.82624 21.273 5.17465 20.9246C5.52305 20.5762 5.96689 20.3388 6.45011 20.2425C6.5337 20.2239 6.60844 20.1774 6.66202 20.1106C6.71559 20.0437 6.74478 19.9607 6.74478 19.875C6.74478 19.7894 6.71559 19.7063 6.66202 19.6395C6.60844 19.5727 6.5337 19.5261 6.45011 19.5075Z" fill="#37766E"/>
<path d="M19.0499 3.74253C19.3479 3.80212 19.6216 3.94859 19.8364 4.16347C20.0513 4.37836 20.1978 4.65204 20.2574 4.95003C20.2747 5.03473 20.3207 5.11086 20.3877 5.16553C20.4546 5.2202 20.5384 5.25006 20.6249 5.25006C20.7113 5.25006 20.7951 5.2202 20.8621 5.16553C20.9291 5.11086 20.9751 5.03473 20.9924 4.95003C21.052 4.65204 21.1985 4.37836 21.4133 4.16347C21.6282 3.94859 21.9019 3.80212 22.1999 3.74253C22.2835 3.72394 22.3583 3.6774 22.4119 3.61059C22.4655 3.54377 22.4947 3.46068 22.4947 3.37503C22.4947 3.28938 22.4655 3.20629 22.4119 3.13947C22.3583 3.07266 22.2835 3.02612 22.1999 3.00753C21.9019 2.94794 21.6282 2.80148 21.4133 2.58659C21.1984 2.37171 21.052 2.09802 20.9924 1.80003C20.9751 1.71533 20.9291 1.6392 20.8621 1.58453C20.7951 1.52986 20.7113 1.5 20.6249 1.5C20.5384 1.5 20.4546 1.52986 20.3877 1.58453C20.3207 1.6392 20.2747 1.71533 20.2574 1.80003C20.1978 2.09802 20.0513 2.37171 19.8365 2.58659C19.6216 2.80148 19.3479 2.94794 19.0499 3.00753C18.9663 3.02612 18.8915 3.07266 18.8379 3.13948C18.7843 3.20629 18.7551 3.28938 18.7551 3.37503C18.7551 3.46068 18.7843 3.54377 18.8379 3.61058C18.8915 3.6774 18.9663 3.72394 19.0499 3.74253Z" fill="#37766E"/>
</svg>
