<svg width="21" height="20" viewBox="0 0 21 20" fill="none" xmlns="http://www.w3.org/2000/svg">
<path d="M19.8525 12.475C19.6536 12.475 19.4628 12.554 19.3222 12.6946C19.1815 12.8353 19.1025 13.0261 19.1025 13.225V15.7862C19.1025 16.3899 18.8627 16.9689 18.4358 17.3958C18.0089 17.8227 17.43 18.0625 16.8263 18.0625H3.77625C3.17255 18.0625 2.59358 17.8227 2.1667 17.3958C1.73982 16.9689 1.5 16.3899 1.5 15.7862V13.225C1.5 13.0261 1.42098 12.8353 1.28033 12.6946C1.13968 12.554 0.948912 12.475 0.75 12.475C0.551088 12.475 0.360322 12.554 0.21967 12.6946C0.0790176 12.8353 0 13.0261 0 13.225V15.7862C0.000992781 16.7874 0.399165 17.7474 1.10713 18.4553C1.8151 19.1633 2.77503 19.5615 3.77625 19.5625H16.8263C17.8275 19.5615 18.7874 19.1633 19.4954 18.4553C20.2033 17.7474 20.6015 16.7874 20.6025 15.7862V13.225C20.6025 13.0261 20.5235 12.8353 20.3828 12.6946C20.2422 12.554 20.0514 12.475 19.8525 12.475Z" fill="#37766E"/>
<path d="M9.76881 14.665C9.83853 14.7353 9.92148 14.7911 10.0129 14.8292C10.1043 14.8672 10.2023 14.8868 10.3013 14.8868C10.4003 14.8868 10.4983 14.8672 10.5897 14.8292C10.6811 14.7911 10.7641 14.7353 10.8338 14.665L15.1013 10.3975C15.2204 10.2542 15.2819 10.0718 15.2738 9.88564C15.2657 9.69952 15.1887 9.52307 15.0576 9.39064C14.9266 9.25821 14.751 9.17928 14.565 9.16923C14.3789 9.15918 14.1958 9.21871 14.0513 9.33625L11.0513 12.3363V1.1875C11.0513 0.988588 10.9723 0.797822 10.8316 0.65717C10.691 0.516518 10.5002 0.4375 10.3013 0.4375C10.1024 0.4375 9.91163 0.516518 9.77098 0.65717C9.63032 0.797822 9.55131 0.988588 9.55131 1.1875V12.325L6.55131 9.325C6.41058 9.18427 6.2197 9.10521 6.02068 9.10521C5.82166 9.10521 5.63079 9.18427 5.49006 9.325C5.34933 9.46573 5.27026 9.6566 5.27026 9.85563C5.27026 10.0546 5.34933 10.2455 5.49006 10.3862L9.76881 14.665Z" fill="#37766E"/>
</svg>
