<svg width="25" height="25" viewBox="0 0 25 25" fill="none" xmlns="http://www.w3.org/2000/svg">
<g clip-path="url(#clip0_691_8843)">
<path d="M22.3906 6.02283H19.5293C19.9717 5.43483 20.2344 4.70428 20.2344 3.91345C20.2344 1.97494 18.6573 0.397827 16.7188 0.397827C15.551 0.397827 14.69 0.816186 14.009 1.71441C13.4392 2.46591 13.0226 3.51516 12.5 4.84087C11.9774 3.51511 11.5608 2.46591 10.991 1.71441C10.31 0.816186 9.44895 0.397827 8.28125 0.397827C6.34273 0.397827 4.76562 1.97494 4.76562 3.91345C4.76562 4.70428 5.02827 5.43483 5.47067 6.02283H2.60938C1.44627 6.02283 0.5 6.96909 0.5 8.1322V9.53845C0.5 10.4551 1.08786 11.2366 1.90625 11.5269V22.2885C1.90625 23.4516 2.85252 24.3978 4.01562 24.3978H20.9844C22.1475 24.3978 23.0938 23.4516 23.0938 22.2885V11.5269C23.9121 11.2366 24.5 10.4551 24.5 9.53845V8.1322C24.5 6.96909 23.5537 6.02283 22.3906 6.02283ZM13.7907 5.40126C14.8678 2.66855 15.2773 1.80408 16.7188 1.80408C17.8819 1.80408 18.8281 2.75034 18.8281 3.91345C18.8281 5.07656 17.8819 6.02283 16.7188 6.02283H13.5447C13.6309 5.8065 13.713 5.59823 13.7907 5.40126ZM8.28125 1.80408C9.7227 1.80408 10.1322 2.66855 11.2093 5.40126C11.287 5.59823 11.3691 5.8065 11.4553 6.02283H8.28125C7.11814 6.02283 6.17188 5.07656 6.17188 3.91345C6.17188 2.75034 7.11814 1.80408 8.28125 1.80408ZM9.6875 22.9916H4.01562C3.62792 22.9916 3.3125 22.6762 3.3125 22.2885V11.6478H9.6875V22.9916ZM9.6875 10.2416H2.60938C2.22167 10.2416 1.90625 9.92616 1.90625 9.53845V8.1322C1.90625 7.7445 2.22167 7.42908 2.60938 7.42908H9.6875V10.2416ZM13.9062 22.9916H11.0938V7.42908C11.2411 7.42908 13.0981 7.42908 13.9062 7.42908V22.9916ZM21.6875 22.2885C21.6875 22.6762 21.3721 22.9916 20.9844 22.9916H15.3125V11.6478H21.6875V22.2885ZM23.0938 9.53845C23.0938 9.92616 22.7783 10.2416 22.3906 10.2416H15.3125V7.42908H22.3906C22.7783 7.42908 23.0938 7.7445 23.0938 8.1322V9.53845Z" fill="#37766E"/>
</g>
<defs>
<clipPath id="clip0_691_8843">
<rect width="24" height="24" fill="white" transform="translate(0.5 0.397827)"/>
</clipPath>
</defs>
</svg>
