<svg width="25" height="24" viewBox="0 0 25 24" fill="none" xmlns="http://www.w3.org/2000/svg">
<g clip-path="url(#clip0_609_5437)">
<path d="M17.6865 17.0923H19.0928V20.6922H17.6865V17.0923Z" fill="#37766E"/>
<path d="M18.3883 16.1584C18.7561 16.1584 19.1084 15.8351 19.0914 15.4553C19.0744 15.0744 18.7825 14.7522 18.3883 14.7522C18.0205 14.7522 17.6681 15.0756 17.6852 15.4553C17.7022 15.8363 17.9941 16.1584 18.3883 16.1584Z" fill="#37766E"/>
<path d="M19.6295 11.9606V0H3.59023C1.88628 0 0.5 1.3455 0.5 3.04945V21.0007H0.514859C0.671047 22.6805 2.08789 24 3.80773 24H18.3973C21.7624 24 24.5 21.3031 24.5 17.9382C24.5 14.9952 22.4059 12.5321 19.6295 11.9606ZM18.2211 11.8383C15.1227 11.9266 12.5957 14.3357 12.3201 17.3845H6.15528V1.36767H18.2211V11.8383ZM3.59023 1.36767H4.74678V17.3845H3.80773C3.10128 17.3845 2.44639 17.6078 1.90845 17.9866V3.04945C1.90845 2.12208 2.66291 1.36767 3.59023 1.36767ZM3.80773 22.5915C2.76045 22.5915 1.90845 21.7395 1.90845 20.6923C1.90845 19.645 2.76045 18.793 3.80773 18.793H12.3549C12.4135 19.209 12.514 19.6118 12.6524 19.9967H4.06916V21.4052H13.3782C13.6838 21.8462 14.0459 22.2452 14.454 22.5916H3.80773V22.5915ZM18.3974 22.6323C15.809 22.6323 13.7032 20.5265 13.7032 17.9382C13.7032 15.3498 15.809 13.244 18.3974 13.244C20.9858 13.244 23.0915 15.3498 23.0915 17.9382C23.0915 20.5265 20.9857 22.6323 18.3974 22.6323Z" fill="#37766E"/>
<path d="M9.91211 4.1062H14.6259V5.51465H9.91211V4.1062Z" fill="#37766E"/>
<path d="M8.32031 7.16406H16.2186V8.57252H8.32031V7.16406Z" fill="#37766E"/>
</g>
<defs>
<clipPath id="clip0_609_5437">
<rect width="24" height="24" fill="white" transform="translate(0.5)"/>
</clipPath>
</defs>
</svg>
