<svg width="26" height="53" viewBox="0 0 26 53" fill="none" xmlns="http://www.w3.org/2000/svg">
<g clip-path="url(#clip0_572_19255)">
<path d="M17.6813 48.877C19.1033 48.9694 20.7468 49.6715 21.7625 50.6323C22.1134 50.9465 22.0764 51.316 21.7256 51.5747C20.5622 52.4432 18.8632 52.8866 17.4044 52.7019C16.0378 52.6094 14.4127 51.8888 13.3417 50.9095C12.9354 50.54 12.9908 50.1149 13.4709 49.8563C14.6159 49.1542 16.3148 48.7661 17.6813 48.877ZM22.7228 40.8208C23.0182 40.3772 23.406 40.3403 23.7569 40.7468C24.6987 41.8555 25.382 43.4815 25.4743 44.8488C25.622 46.3271 25.1234 48.0455 24.2186 49.1356C23.9231 49.5051 23.5722 49.5051 23.2768 49.1542C22.3534 48.1194 21.6886 46.4749 21.6148 45.0521C21.5409 43.7033 21.9841 42.0033 22.7228 40.8208ZM10.9595 42.4283C12.2891 42.8717 13.6741 43.9434 14.4497 45.163C14.6713 45.551 14.5789 45.902 14.1542 46.0499C12.8061 46.6043 11.0149 46.6043 9.68523 46.0684C8.37409 45.6065 6.98907 44.4978 6.2135 43.2782C5.95497 42.8348 6.08424 42.4468 6.56441 42.2989C7.87555 41.9109 9.64835 41.9479 10.9595 42.4283ZM17.866 35.9241C18.2538 35.5361 18.6601 35.61 18.8632 36.1089C19.4911 37.3839 19.7496 39.1392 19.4726 40.5065C19.2325 41.9663 18.3092 43.5 17.1643 44.3314C16.8134 44.5901 16.4441 44.5162 16.2594 44.1098C15.6315 42.9087 15.4284 41.1349 15.7239 39.7121C15.9824 38.3817 16.8503 36.848 17.866 35.9241ZM1.00584 33.1341C0.913588 32.6167 1.20899 32.3395 1.70767 32.3949C3.09269 32.5797 4.66234 33.3373 5.65957 34.2981C6.67517 35.2035 7.50613 36.7557 7.74628 38.197C7.80166 38.6404 7.56164 38.936 7.11834 38.8991C5.65957 38.862 4.0344 38.1599 3.03717 37.1252C2.04008 36.1274 1.20899 34.5199 1.00584 33.1341ZM14.6159 31.1384C15.1329 30.9537 15.4653 31.1939 15.4653 31.7297C15.5392 33.097 15.0406 34.797 14.2465 36.0166C13.4894 37.2177 12.0121 38.2339 10.5901 38.5665C10.1469 38.6589 9.8515 38.4371 9.83299 37.9937C9.75911 36.5339 10.2762 34.8525 11.1073 33.7437C11.9382 32.6167 13.3417 31.5635 14.6159 31.1384ZM10.6639 25.5397C11.6982 24.6528 13.3232 24.0245 14.7451 23.9137C15.2253 23.8952 15.5023 24.2094 15.4284 24.6897C15.1145 26.0941 14.1727 27.6276 13.1201 28.5331C12.0675 29.4939 10.3871 30.1223 8.92815 30.0852C8.50336 30.0667 8.26333 29.7526 8.35559 29.3461C8.63262 27.9602 9.55596 26.4267 10.6639 25.5397ZM1.04285 22.3985C1.09823 21.8443 1.44914 21.641 1.92918 21.8627C3.16657 22.3431 4.51458 23.4703 5.27165 24.6528C6.04736 25.8908 6.43515 27.6276 6.28738 28.9766C6.232 29.42 5.89959 29.6418 5.4748 29.5124C4.12679 29.1244 2.74177 28.0158 2.02157 26.7408C1.28287 25.4843 0.876579 23.7475 1.04285 22.3985ZM11.9567 17.5389C13.2309 17.0585 14.9852 17.0216 16.3148 17.4096C16.7949 17.5758 16.9427 17.9269 16.6841 18.352C15.9824 19.5346 14.5974 20.6617 13.2124 21.1974C11.8643 21.7703 10.073 21.7703 8.74351 21.216C8.35559 21.0312 8.22633 20.6617 8.46648 20.2921C9.20518 19.091 10.6086 18.0009 11.9567 17.5389ZM3.99753 11.2565C4.21904 10.8131 4.62534 10.7392 5.01312 11.0533C6.01035 11.9772 6.87832 13.5108 7.17372 14.8782C7.48776 16.2639 7.28461 18.0009 6.65667 19.2574C6.43515 19.6454 6.06573 19.7562 5.73332 19.4791C4.56996 18.6476 3.64661 17.114 3.40659 15.6911C3.12956 14.3423 3.36958 12.5684 3.99753 11.2565ZM16.2594 10.6468C17.6444 10.3881 19.3803 10.5913 20.636 11.1457C21.0977 11.3489 21.19 11.7554 20.8576 12.1435C19.9528 13.1967 18.42 14.1206 17.0165 14.4346C15.6131 14.8043 13.8403 14.5825 12.6215 13.8249C12.2521 13.5847 12.1783 13.2336 12.4553 12.901C13.3232 11.8293 14.8375 10.9239 16.2594 10.6468ZM9.26056 3.31116C9.53746 2.90465 9.94375 2.86769 10.2947 3.25572C11.181 4.36439 11.8458 5.97193 11.9382 7.33928C12.049 8.68815 11.5873 10.4066 10.8117 11.6261C10.5532 11.9956 10.1839 12.0326 9.8515 11.7185C8.81726 10.6653 8.11557 9.02074 8.07869 7.59796C7.98631 6.23063 8.46648 4.5122 9.26056 3.31116ZM21.504 0.909066C22.0395 0.835156 22.3165 1.1308 22.2611 1.64817C22.0395 3.05247 21.2639 4.66003 20.3221 5.63934C19.3433 6.72952 17.7367 7.50558 16.2963 7.57948C15.8531 7.59796 15.6131 7.33928 15.65 6.89581C15.8162 5.50999 16.5918 3.90244 17.589 2.92313C18.5677 1.94381 20.119 1.1308 21.504 0.909066Z" fill="url(#paint0_linear_572_19255)"/>
</g>
<defs>
<linearGradient id="paint0_linear_572_19255" x1="13.2445" y1="0.897827" x2="13.2445" y2="52.7433" gradientUnits="userSpaceOnUse">
<stop stop-color="#E6EAEB"/>
<stop offset="1" stop-color="#F3F7FB"/>
</linearGradient>
<clipPath id="clip0_572_19255">
<rect width="25" height="52" fill="white" transform="matrix(-1 0 0 1 25.5 0.897827)"/>
</clipPath>
</defs>
</svg>
