<svg width="24" height="24" viewBox="0 0 24 24" fill="none" xmlns="http://www.w3.org/2000/svg">
<path d="M8.75893 14.8678C9.04838 14.6089 9.07313 14.1644 8.81429 13.875V13.8749C7.14104 12.0044 7.14104 9.18308 8.81429 7.31249V7.31244C9.07318 7.02304 9.04838 6.57852 8.75898 6.31968L8.75893 6.31963C8.46953 6.06074 8.02501 6.08549 7.76612 6.37494C5.61474 8.78005 5.61474 12.4074 7.76612 14.8125C8.02501 15.1019 8.46953 15.1267 8.75893 14.8678Z" fill="#37766E"/>
<path d="M9.74427 12.79C9.9891 13.0915 10.4319 13.1374 10.7333 12.8926L10.7334 12.8925C11.0348 12.6477 11.0807 12.2049 10.8359 11.9035C10.5355 11.5336 10.3768 11.0817 10.3768 10.5967C10.3768 10.1124 10.5355 9.65797 10.8358 9.28255C11.0784 8.97931 11.0293 8.53686 10.7261 8.29428L10.726 8.29423C10.4228 8.05166 9.98033 8.10083 9.73776 8.40402C9.23582 9.03144 8.97046 9.78964 8.97046 10.5966C8.97041 11.3966 9.24524 12.1755 9.74427 12.79Z" fill="#37766E"/>
<path d="M21.0156 14.5781H20.5261C20.079 13.5509 19.8438 12.4298 19.8438 11.31V10.5938C19.8438 8.89598 18.634 7.47553 17.0312 7.14886V2.10938C17.0312 0.946266 16.085 0 14.9219 0H4.60938C3.44627 0 2.5 0.946266 2.5 2.10938V21.8906C2.5 23.0537 3.44627 24 4.60938 24H14.9219C16.085 24 17.0312 23.0537 17.0312 21.8906V18.6759C17.8496 18.3857 18.4375 17.6041 18.4375 16.6875V15.9844H21.0156C21.4039 15.9844 21.7188 15.6696 21.7188 15.2812C21.7188 14.8929 21.4039 14.5781 21.0156 14.5781ZM11.6026 1.40625L11.1338 2.8125H8.39739L7.92864 1.40625H11.6026ZM15.625 21.8906C15.625 22.2783 15.3096 22.5938 14.9219 22.5938H4.60938C4.22167 22.5938 3.90625 22.2783 3.90625 21.8906V2.10938C3.90625 1.72167 4.22167 1.40625 4.60938 1.40625H6.44631L7.22355 3.738C7.31931 4.02511 7.58795 4.21875 7.89062 4.21875H11.6406C11.9433 4.21875 12.2119 4.02511 12.3077 3.738L13.0849 1.40625H14.9219C15.3096 1.40625 15.625 1.72167 15.625 2.10938V7.14886C14.0223 7.47548 12.8125 8.89598 12.8125 10.5938V11.31C12.8125 12.4298 12.5772 13.5509 12.1302 14.5781H11.6406C11.2523 14.5781 10.9375 14.8929 10.9375 15.2812C10.9375 15.6696 11.2523 15.9844 11.6406 15.9844H14.2188V16.6875C14.2188 17.6041 14.8066 18.3857 15.625 18.6759V21.8906ZM17.0312 16.6875C17.0312 17.0752 16.7158 17.3906 16.3281 17.3906C15.9404 17.3906 15.625 17.0752 15.625 16.6875V15.9844H17.0312V16.6875ZM13.6434 14.5781C14.0216 13.5328 14.2188 12.4208 14.2188 11.31V10.5938C14.2188 9.43064 15.165 8.48438 16.3281 8.48438C17.4912 8.48438 18.4375 9.43064 18.4375 10.5938V11.31C18.4375 12.4208 18.6346 13.5328 19.0128 14.5781H13.6434Z" fill="#37766E"/>
<path d="M11.1719 19.7812H8.35938C7.97106 19.7812 7.65625 20.0961 7.65625 20.4844C7.65625 20.8727 7.97106 21.1875 8.35938 21.1875H11.1719C11.5602 21.1875 11.875 20.8727 11.875 20.4844C11.875 20.0961 11.5602 19.7812 11.1719 19.7812Z" fill="#37766E"/>
</svg>
