<svg width="25" height="25" viewBox="0 0 25 25" fill="none" xmlns="http://www.w3.org/2000/svg">
<g clip-path="url(#clip0_572_19262)">
<path d="M22.9039 12.7086C22.8074 12.5111 22.8074 12.2845 22.9039 12.0869L23.799 10.2558C24.2974 9.23621 23.9025 8.02098 22.9001 7.4891L21.0996 6.53379C20.9054 6.43076 20.7722 6.24738 20.7342 6.03087L20.3821 4.02327C20.186 2.9055 19.152 2.15438 18.0286 2.31333L16.0105 2.5988C15.7927 2.62955 15.5773 2.55951 15.4193 2.40666L13.9544 0.98954C13.1387 0.20045 11.8609 0.200404 11.0453 0.98954L9.58035 2.4068C9.42229 2.5597 9.2069 2.62959 8.98912 2.59894L6.97102 2.31347C5.8472 2.15442 4.81361 2.90564 4.61753 4.02341L4.26541 6.03092C4.2274 6.24748 4.09422 6.43081 3.90002 6.53388L2.09956 7.48919C1.0971 8.02103 0.702228 9.23635 1.2006 10.2559L2.09567 12.087C2.19224 12.2846 2.19224 12.5112 2.09567 12.7087L1.20055 14.5399C0.702182 15.5594 1.09705 16.7747 2.09952 17.3065L3.89998 18.2618C4.09422 18.3649 4.2274 18.5482 4.26541 18.7648L4.61753 20.7724C4.79603 21.7899 5.66856 22.5035 6.67135 22.5034C6.77011 22.5034 6.87033 22.4965 6.97107 22.4823L8.98916 22.1968C9.2068 22.1659 9.42233 22.2361 9.58039 22.3889L11.0453 23.806C11.4532 24.2006 11.9764 24.3979 12.4998 24.3978C13.0231 24.3978 13.5466 24.2005 13.9543 23.806L15.4193 22.3889C15.5773 22.2361 15.7927 22.1662 16.0105 22.1968L18.0286 22.4823C19.1525 22.6413 20.186 21.8901 20.3821 20.7723L20.7342 18.7648C20.7722 18.5483 20.9054 18.3649 21.0996 18.2618L22.9001 17.3065C23.9025 16.7747 24.2974 15.5594 23.799 14.5398L22.9039 12.7086ZM22.2513 16.0837L20.4508 17.039C19.8768 17.3437 19.4831 17.8854 19.3708 18.5256L19.0187 20.5331C18.9524 20.9113 18.6027 21.1653 18.2225 21.1116L16.2044 20.8262C15.5608 20.735 14.9239 20.9421 14.4568 21.394L12.9919 22.811C12.716 23.0779 12.2837 23.0779 12.0077 22.811L10.5428 21.3939C10.148 21.012 9.63191 20.8051 9.09313 20.8051C8.99441 20.8051 8.8949 20.812 8.79524 20.8261L6.77715 21.1116C6.39718 21.1653 6.04726 20.9113 5.98089 20.5331L5.62872 18.5255C5.5164 17.8853 5.12275 17.3435 4.54867 17.039L2.74822 16.0837C2.40903 15.9037 2.27544 15.4926 2.44405 15.1476L3.33917 13.3165C3.62454 12.7326 3.62454 12.0629 3.33917 11.4791L2.44405 9.64791C2.27544 9.30296 2.40903 8.89182 2.74822 8.71187L4.54867 7.75656C5.1227 7.45192 5.5164 6.91015 5.62867 6.27002L5.98079 4.26247C6.04717 3.88429 6.39676 3.63023 6.77705 3.68395L8.79515 3.96941C9.43851 4.06049 10.0756 3.85344 10.5427 3.40162L12.0076 1.9845C12.2835 1.7176 12.7158 1.7176 12.9918 1.9845L14.4567 3.40162C14.9238 3.85349 15.5608 4.06049 16.2043 3.96941L18.2224 3.68395C18.6024 3.63018 18.9523 3.88429 19.0186 4.26247L19.3707 6.27007C19.4831 6.91019 19.8767 7.45202 20.4508 7.75656L22.2512 8.71187C22.5904 8.89182 22.724 9.30296 22.5554 9.64791L21.6603 11.479C21.3749 12.0628 21.3749 12.7326 21.6603 13.3164L22.5554 15.1475C22.7241 15.4926 22.5905 15.9038 22.2513 16.0837Z" fill="#37766E"/>
<path d="M17.5571 7.34077C17.2869 7.07049 16.8486 7.07049 16.5783 7.34077L7.44294 16.4762C7.17266 16.7465 7.17266 17.1847 7.44294 17.455C7.57808 17.5901 7.75522 17.6577 7.93232 17.6577C8.10941 17.6577 8.2866 17.5902 8.42169 17.455L17.5571 8.31961C17.8274 8.04928 17.8274 7.6111 17.5571 7.34077Z" fill="#37766E"/>
<path d="M9.7316 6.16931C8.33229 6.16931 7.19385 7.30776 7.19385 8.70706C7.19385 10.1064 8.33229 11.2448 9.7316 11.2448C11.1309 11.2448 12.2693 10.1064 12.2693 8.70706C12.2693 7.30776 11.1309 6.16931 9.7316 6.16931ZM9.7316 9.86056C9.09555 9.86056 8.5781 9.34311 8.5781 8.70702C8.5781 8.07097 9.09555 7.55352 9.7316 7.55352C10.3676 7.55352 10.8851 8.07097 10.8851 8.70702C10.8851 9.34311 10.3676 9.86056 9.7316 9.86056Z" fill="#37766E"/>
<path d="M15.2682 13.5521C13.8689 13.5521 12.7305 14.6906 12.7305 16.0899C12.7305 17.4892 13.8689 18.6276 15.2682 18.6276C16.6675 18.6276 17.806 17.4892 17.806 16.0899C17.806 14.6906 16.6675 13.5521 15.2682 13.5521ZM15.2682 17.2434C14.6322 17.2434 14.1147 16.7259 14.1147 16.0899C14.1147 15.4538 14.6321 14.9364 15.2682 14.9364C15.9043 14.9364 16.4217 15.4538 16.4217 16.0899C16.4217 16.7259 15.9043 17.2434 15.2682 17.2434Z" fill="#37766E"/>
</g>
<defs>
<clipPath id="clip0_572_19262">
<rect width="24" height="24" fill="white" transform="translate(0.5 0.397827)"/>
</clipPath>
</defs>
</svg>
