<svg width="24" height="24" viewBox="0 0 24 24" fill="none" xmlns="http://www.w3.org/2000/svg">
<path fill-rule="evenodd" clip-rule="evenodd" d="M3 3C2.44772 3 2 3.44772 2 4V20C2 20.5523 2.44772 21 3 21H21C21.5523 21 22 20.5523 22 20V4C22 3.44772 21.5523 3 21 3H3ZM3.5 8.5V15H20.5V8.5H3.5ZM3.5 7H5V4.5H3.5V7ZM20.5 7H19V4.5H20.5V7ZM17.5 4.5V7H15V4.5H17.5ZM10.5 7H13.5V4.5H10.5V7ZM9 4.5V7H6.5V4.5H9ZM3.5 19.5V16.5H5V19.5H3.5ZM19 19.5H20.5V16.5H19V19.5ZM17.5 19.5V16.5H15V19.5H17.5ZM13.5 19.5H10.5V16.5H13.5V19.5ZM9 19.5V16.5H6.5V19.5H9Z" fill="#37766E"/>
</svg>
