<svg width="90" height="90" viewBox="0 0 90 90" fill="none" xmlns="http://www.w3.org/2000/svg">
<g clip-path="url(#clip0_1_1135)">
<path d="M19.2832 16.1401C18.6199 16.1401 18.0832 15.6028 18.0832 14.9401V12.5401C18.0832 11.8774 18.6199 11.3401 19.2832 11.3401C19.9465 11.3401 20.4832 11.8774 20.4832 12.5401V14.9401C20.4832 15.6028 19.9465 16.1401 19.2832 16.1401Z" fill="#F2EBD6"/>
<path d="M19.2832 18.54C19.9465 18.54 20.4832 19.0773 20.4832 19.74V22.14C20.4832 22.8027 19.9465 23.34 19.2832 23.34C18.6199 23.34 18.0832 22.8027 18.0832 22.14V19.74C18.0832 19.0773 18.6199 18.54 19.2832 18.54Z" fill="#F2EBD6"/>
<path d="M21.6832 16.1401H24.0832C24.7465 16.1401 25.2832 16.6774 25.2832 17.3401C25.2832 18.0028 24.7465 18.5401 24.0832 18.5401H21.6832C21.0199 18.5401 20.4832 18.0028 20.4832 17.3401C20.4832 16.6774 21.0199 16.1401 21.6832 16.1401Z" fill="#F2EBD6"/>
<path d="M14.4833 16.1401H16.8833C17.5466 16.1401 18.0833 16.6774 18.0833 17.3401C18.0833 18.0028 17.5466 18.5401 16.8833 18.5401H14.4833C13.82 18.5401 13.2833 18.0028 13.2833 17.3401C13.2833 16.6774 13.82 16.1401 14.4833 16.1401Z" fill="#F2EBD6"/>
<path d="M76.2832 66.54C78.5989 66.54 80.4832 68.4243 80.4832 70.74C80.4832 73.0557 78.5989 74.94 76.2832 74.94C73.9675 74.94 72.0832 73.0557 72.0832 70.74C72.0832 68.4243 73.9675 66.54 76.2832 66.54ZM76.2832 72.54C77.2759 72.54 78.0832 71.7327 78.0832 70.74C78.0832 69.7473 77.2759 68.94 76.2832 68.94C75.2905 68.94 74.4832 69.7473 74.4832 70.74C74.4832 71.7327 75.2905 72.54 76.2832 72.54Z" fill="#F2EBD6"/>
<path d="M10.8 38.8862C10.0915 38.8862 9.51716 38.3118 9.51716 37.6034C9.51716 36.8949 10.0915 36.3206 10.8 36.3206C11.5084 36.3206 12.0828 36.8949 12.0828 37.6034C12.0828 38.3118 11.5084 38.8862 10.8 38.8862Z" fill="#F2EBD6"/>
<path d="M16.8 77.2861C16.0915 77.2861 15.5172 76.7117 15.5172 76.0033C15.5172 75.2948 16.0915 74.7205 16.8 74.7205C17.5084 74.7205 18.0828 75.2948 18.0828 76.0033C18.0828 76.7117 17.5084 77.2861 16.8 77.2861Z" fill="#F2EBD6"/>
<path d="M24.0002 58.0861C23.2917 58.0861 22.7174 57.5118 22.7174 56.8033C22.7174 56.0948 23.2917 55.5205 24.0002 55.5205C24.7086 55.5205 25.283 56.0948 25.283 56.8033C25.283 57.5118 24.7086 58.0861 24.0002 58.0861Z" fill="#F2EBD6"/>
<path d="M43.3417 60.3803C43.8058 60.3803 44.2276 60.6476 44.4268 61.067L45.5998 63.5483L48.0925 63.9902C48.5425 64.0706 48.907 64.3985 49.0348 64.8368C49.1626 65.2757 49.03 65.7485 48.6937 66.0566L46.8352 67.7588L47.1832 70.2542C47.2465 70.7066 47.0473 71.1554 46.6699 71.4119C46.4671 71.5502 46.2316 71.6198 45.9949 71.6198C45.7909 71.6198 45.5872 71.5682 45.4042 71.4638L43.2106 70.2227L40.9453 71.3249C40.5352 71.5229 40.0465 71.4743 39.6856 71.1941C39.3247 70.9139 39.1537 70.4534 39.2449 70.0058L39.7477 67.5368L37.9993 65.7227C37.6816 65.3939 37.5799 64.9136 37.7332 64.484C37.888 64.0538 38.2736 63.7493 38.7268 63.6977L41.1832 63.4187L42.2497 61.0814C42.4441 60.6566 42.8675 60.3824 43.3337 60.3794C43.3361 60.3803 43.3393 60.3803 43.3417 60.3803ZM42.1288 65.7275L41.4139 65.8085L41.9131 66.3266C42.1873 66.6107 42.3046 67.0115 42.2248 67.3988L42.0817 68.1038L42.7273 67.7891C43.0837 67.6163 43.4995 67.6286 43.843 67.8242L44.47 68.1788L44.3704 67.4663C44.3152 67.0754 44.4571 66.6824 44.7478 66.4157L45.2788 65.9294L44.5712 65.804C44.1892 65.7359 43.8622 65.4869 43.6957 65.1353L43.3618 64.4276L43.0852 65.0336C42.9094 65.4164 42.5473 65.6801 42.1288 65.7275Z" fill="#F2EBD6"/>
<path d="M24.9021 38.8063C24.6702 39.0226 24.3771 39.1291 24.0831 39.1291C23.7621 39.1291 23.442 39.0007 23.2053 38.7478C22.7541 38.2639 22.7799 37.5043 23.2638 37.0522C24.8292 35.5912 26.454 34.2391 28.1127 32.9671L24.4239 32.3461C23.7699 32.236 23.3295 31.6165 23.4396 30.9634C23.5497 30.3103 24.1614 29.8666 24.8223 29.9791L30.825 30.9898C32.1075 30.1006 33.4053 29.2606 34.7148 28.4692L30.8247 26.6581C30.2235 26.3779 29.9634 25.6645 30.2433 25.0639C30.5211 24.4639 31.2336 24.2008 31.8369 24.4822L37.2495 27.0019C38.2302 26.4583 39.2124 25.9351 40.1964 25.4407L35.9067 23.6569C35.295 23.4025 35.0043 22.7002 35.2587 22.0882C35.5143 21.4759 36.2184 21.1858 36.8277 21.4408L43.0965 24.0475C44.334 23.4823 45.5658 22.9567 46.7892 22.462L42.9018 20.6104C42.303 20.3257 42.0486 19.6096 42.3333 19.0114C42.6192 18.4126 43.3317 18.1582 43.9329 18.4435L49.8756 21.2734C50.8662 20.9119 51.8436 20.5759 52.8108 20.257L48.9861 18.6154C48.3768 18.3541 48.0954 17.6485 48.3567 17.0392C48.6204 16.4293 49.3248 16.1479 49.9329 16.4098L56.34 19.1596C57.2982 18.8809 58.2354 18.6241 59.1531 18.3841L54.9138 15.4408C54.369 15.0628 54.234 14.3152 54.6126 13.771C54.99 13.2268 55.7376 13.09 56.2824 13.4698L62.2602 17.6197C63.2514 17.3917 64.2108 17.1838 65.1276 16.999L61.8936 14.3809C61.3779 13.9636 61.2984 13.2085 61.7154 12.6928C62.1303 12.1783 62.8872 12.0976 63.4029 12.5152L68.2278 16.4206C73.3419 15.5449 76.6281 15.3706 76.7295 15.3658C76.7472 15.3652 76.7658 15.3646 76.7847 15.3646C77.4222 15.3646 77.9532 15.8668 77.9823 16.51C78.0129 17.1721 77.4996 17.7334 76.8375 17.7634C76.7403 17.7679 73.6086 17.9329 68.7189 18.7621L66.4983 24.1438C66.3072 24.6067 65.8596 24.8869 65.3886 24.8869C65.235 24.8869 65.0805 24.8575 64.9305 24.7954C64.3188 24.5428 64.0269 23.8408 64.2789 23.2285L65.9088 19.279C64.9404 19.4707 63.9201 19.6897 62.8632 19.9312L60.8196 25.5223C60.6414 26.0086 60.1821 26.311 59.6922 26.311C59.5551 26.311 59.4156 26.287 59.2797 26.2378C58.6575 26.0098 58.3374 25.3207 58.5648 24.6985L60.0585 20.6134C59.1 20.8603 58.1157 21.1297 57.1107 21.4204L55.1232 26.9416C54.9474 27.4309 54.4869 27.7354 53.9946 27.7354C53.8599 27.7354 53.7228 27.712 53.5881 27.664C52.9647 27.4396 52.6413 26.7523 52.8663 26.1283L54.246 22.2949C53.0676 22.6741 51.8682 23.0842 50.6523 23.5285L47.9781 29.8507C47.7846 30.3082 47.3406 30.5836 46.8729 30.5836C46.7169 30.5836 46.5576 30.5524 46.4052 30.4882C45.7947 30.2305 45.51 29.5261 45.7677 28.9156L47.5356 24.7357C46.5234 25.1476 45.5055 25.5823 44.4834 26.0437V51.8692L48.2253 59.779L56.5011 61.2463C56.9511 61.3267 57.3156 61.6546 57.4434 62.0929C57.5712 62.5318 57.4386 63.0046 57.1011 63.3133L50.9112 68.9812L52.0713 77.2939C52.1346 77.7463 51.9354 78.1951 51.558 78.4522C51.3552 78.5899 51.1197 78.6595 50.883 78.6595C50.679 78.6595 50.4753 78.6079 50.2911 78.5035L42.9879 74.368L35.4411 78.0406C35.0322 78.2398 34.5435 78.1894 34.1814 77.9098C33.8205 77.6296 33.6495 77.1691 33.7407 76.7215L35.4153 68.4973L29.5923 62.4538C29.2746 62.125 29.1729 61.6447 29.3262 61.2151C29.481 60.7849 29.8665 60.4804 30.3198 60.4288L38.6121 59.4871L42.0831 51.8773V27.1705C40.8165 27.7903 39.5511 28.456 38.2893 29.1598L36.6375 35.3887C36.4944 35.926 36.0093 36.2818 35.4786 36.2812C35.3766 36.2812 35.2722 36.2683 35.1705 36.2413C34.5294 36.0715 34.1475 35.4139 34.3173 34.7734L35.3502 30.8773C34.2798 31.5394 33.2205 32.2435 32.1699 32.9737L30.9609 39.5701C30.8553 40.1491 30.3504 40.5538 29.7819 40.5538C29.7105 40.5538 29.6379 40.5475 29.5638 40.534C28.9122 40.4152 28.4811 39.7894 28.6005 39.1378L29.3514 35.0371C27.8307 36.2143 26.3406 37.4638 24.9021 38.8063ZM39.5577 61.7962L33.0069 62.5402L37.5807 67.2868C37.8549 67.5709 37.9722 67.9717 37.8924 68.359L36.5775 74.8189L42.5049 71.9338C42.8613 71.7622 43.2771 71.7739 43.6218 71.9689L49.3581 75.2173L48.4464 68.6881C48.3912 68.2972 48.5331 67.9042 48.8238 67.6369L53.6871 63.1849L47.1948 62.0341C46.8129 61.966 46.4859 61.717 46.3194 61.3654L43.3029 54.9874L40.5138 61.1011C40.338 61.4851 39.9759 61.7488 39.5577 61.7962Z" fill="#F2EBD6"/>
<path d="M57.0561 54.394C56.4759 54.7105 55.7448 54.4954 55.4283 53.9128C55.1118 53.3302 55.3275 52.6021 55.9098 52.2856L60.4764 49.8028C60.6522 48.7168 60.8643 47.6599 61.1004 46.6246L56.9646 48.4387C56.3565 48.7036 55.6509 48.4276 55.3836 47.8216C55.1175 47.2147 55.3941 46.5067 56.0013 46.2403L61.8666 43.6678C62.2722 42.2761 62.7249 40.9393 63.213 39.6556L58.3779 41.3302C57.7533 41.5465 57.0678 41.2153 56.8509 40.5889C56.634 39.9625 56.9658 39.2794 57.5928 39.0625L64.44 36.6916C64.8267 35.8306 65.2233 34.9918 65.6319 34.1911L61.2936 34.8433C60.6372 34.9504 60.0267 34.4905 59.9283 33.8356C59.8299 33.1798 60.2811 32.5687 60.9372 32.4703L67.0692 31.5481C67.3794 31.0111 67.6911 30.4924 68.0028 29.9902L64.1421 30.5704C63.4824 30.6736 62.8764 30.217 62.7768 29.5621C62.6784 28.9069 63.1308 28.2958 63.7857 28.1974L69.7809 27.2962C72.9372 22.7887 75.6921 20.2099 75.9726 19.9528C76.4625 19.5052 77.2194 19.5379 77.667 20.0266C78.1146 20.5141 78.0831 21.2734 77.5944 21.7216C77.5287 21.7819 74.922 24.2296 71.8755 28.5934L73.6335 33.2314C73.8678 33.8512 73.5561 34.5439 72.9363 34.7788C72.7956 34.8322 72.6528 34.8574 72.5109 34.8574C72.027 34.8574 71.571 34.5622 71.3883 34.0822L70.2438 31.0627C69.8754 31.6528 69.507 32.2708 69.1401 32.9113L71.9508 38.3932C72.2532 38.9827 72.0198 39.7057 71.4306 40.0081C71.256 40.0984 71.0685 40.1404 70.8846 40.1404C70.4487 40.1404 70.0281 39.9025 69.816 39.4876L67.758 35.4736C67.3701 36.2398 66.9903 37.0336 66.6228 37.8556L69.8022 43.609C70.1232 44.1892 69.9123 44.9197 69.3324 45.2404C69.1485 45.3418 68.9493 45.3898 68.7534 45.3898C68.3304 45.3898 67.9215 45.1666 67.7022 44.7706L65.4522 40.6984C65.0271 41.8192 64.6308 42.9814 64.2705 44.185L68.2857 50.2801C68.6502 50.8339 68.4978 51.5779 67.9434 51.9424C67.7406 52.0765 67.5111 52.1404 67.2849 52.1404C66.8946 52.1404 66.5127 51.9505 66.2817 51.6007L63.4491 47.3011C63.225 48.2764 63.0207 49.2682 62.8536 50.2885L65.8059 54.4768C66.1878 55.0189 66.0579 55.7671 65.5164 56.149C65.3067 56.2972 65.0652 56.368 64.8261 56.368C64.4487 56.368 64.0773 56.191 63.8442 55.8595L62.4165 53.8342C62.226 56.0215 62.175 58.2925 62.3136 60.6484C62.3523 61.3099 61.8483 61.8778 61.1862 61.9165C61.1628 61.9183 61.1382 61.9189 61.1148 61.9189C60.4842 61.9189 59.9559 61.4266 59.9184 60.7891C59.7534 57.9859 59.8368 55.3042 60.0975 52.741L57.0561 54.394Z" fill="#F2EBD6"/>
<path d="M79.2001 48.486C78.4916 48.486 77.9173 47.9117 77.9173 47.2032C77.9173 46.4947 78.4916 45.9204 79.2001 45.9204C79.9086 45.9204 80.4829 46.4947 80.4829 47.2032C80.4829 47.9117 79.9086 48.486 79.2001 48.486Z" fill="#F2EBD6"/>
</g>
<defs>
<clipPath id="clip0_1_1135">
<rect width="90" height="90" fill="white" transform="matrix(-1 0 0 1 90 0)"/>
</clipPath>
</defs>
</svg>
